<?xml version="1.0" encoding="UTF-8"?>
<!DOCTYPE svg PUBLIC "-//W3C//DTD SVG 1.1//EN" "http://www.w3.org/Graphics/SVG/1.1/DTD/svg11.dtd">
<svg xmlns="http://www.w3.org/2000/svg" version="1.1" width="1299px" height="1033px" style="shape-rendering:geometricPrecision; text-rendering:geometricPrecision; image-rendering:optimizeQuality; fill-rule:evenodd; clip-rule:evenodd" xmlns:xlink="http://www.w3.org/1999/xlink">
<g><path style="opacity:1" fill="#eafcfe" d="M -0.5,-0.5 C 432.5,-0.5 865.5,-0.5 1298.5,-0.5C 1298.5,343.833 1298.5,688.167 1298.5,1032.5C 865.5,1032.5 432.5,1032.5 -0.5,1032.5C -0.5,688.167 -0.5,343.833 -0.5,-0.5 Z"/></g>
<g><path style="opacity:1" fill="#7295b2" d="M 732.5,260.5 C 731.778,260.918 731.278,261.584 731,262.5C 730.442,286.465 719.609,303.965 698.5,315C 676.67,321.13 656.336,317.797 637.5,305C 636.203,302.455 636.369,299.955 638,297.5C 640.142,293.529 642.976,290.195 646.5,287.5C 654.832,291.833 663.499,295.333 672.5,298C 677.5,298.667 682.5,298.667 687.5,298C 693.604,295.521 698.77,291.688 703,286.5C 705.974,280.227 708.641,273.894 711,267.5C 711.5,260.842 711.666,254.175 711.5,247.5C 711.823,241.31 711.49,235.31 710.5,229.5C 702.545,180.469 677.212,142.969 634.5,117C 624.053,110.962 612.886,107.129 601,105.5C 589.305,105.834 580.971,111.167 576,121.5C 574.634,125.635 572.968,129.635 571,133.5C 569.59,152.701 570.757,171.701 574.5,190.5C 574.654,195.289 575.987,199.622 578.5,203.5C 580.566,210.573 583.566,217.239 587.5,223.5C 584.274,230.953 580.274,237.953 575.5,244.5C 566.748,228.983 559.581,212.65 554,195.5C 553.506,193.866 553.34,192.199 553.5,190.5C 552.362,185.909 551.529,181.243 551,176.5C 550.5,161.837 550.333,147.17 550.5,132.5C 557.869,96.3187 579.869,81.152 616.5,87C 653.231,98.9429 682.065,121.11 703,153.5C 723.323,186.178 733.156,221.845 732.5,260.5 Z"/></g>
<g><path style="opacity:1" fill="#eafbfe" d="M 710.5,229.5 C 710.822,235.358 710.489,241.025 709.5,246.5C 690.833,236.167 672.167,225.833 653.5,215.5C 653.167,215.5 652.833,215.5 652.5,215.5C 650.206,213.347 647.54,211.68 644.5,210.5C 644.027,209.094 643.027,208.427 641.5,208.5C 639.103,206.805 636.437,205.472 633.5,204.5C 632.341,202.75 630.674,201.75 628.5,201.5C 626.365,199.929 624.032,198.596 621.5,197.5C 620.22,196.069 618.553,195.402 616.5,195.5C 614.282,192.391 611.282,190.891 607.5,191C 600.933,201.981 594.267,212.814 587.5,223.5C 583.566,217.239 580.566,210.573 578.5,203.5C 577.537,198.951 576.204,194.617 574.5,190.5C 570.757,171.701 569.59,152.701 571,133.5C 572.968,129.635 574.634,125.635 576,121.5C 580.971,111.167 589.305,105.834 601,105.5C 612.886,107.129 624.053,110.962 634.5,117C 677.212,142.969 702.545,180.469 710.5,229.5 Z"/></g>
<g><path style="opacity:1" fill="#9ab7cc" d="M 550.5,132.5 C 550.333,147.17 550.5,161.837 551,176.5C 551.529,181.243 552.362,185.909 553.5,190.5C 551.123,186.621 549.957,182.287 550,177.5C 549.172,162.328 549.339,147.328 550.5,132.5 Z"/></g>
<g><path style="opacity:1" fill="#f6c46f" d="M 616.5,195.5 C 589.592,241.643 562.926,287.976 536.5,334.5C 535.277,335.614 533.944,335.781 532.5,335C 530.677,334.003 529.01,332.836 527.5,331.5C 542.536,303.1 558.369,275.1 575,247.5C 575.483,246.552 575.649,245.552 575.5,244.5C 580.274,237.953 584.274,230.953 587.5,223.5C 594.267,212.814 600.933,201.981 607.5,191C 611.282,190.891 614.282,192.391 616.5,195.5 Z"/></g>
<g><path style="opacity:1" fill="#aac5d6" d="M 574.5,190.5 C 576.204,194.617 577.537,198.951 578.5,203.5C 575.987,199.622 574.654,195.289 574.5,190.5 Z"/></g>
<g><path style="opacity:1" fill="#da462d" d="M 616.5,195.5 C 618.553,195.402 620.22,196.069 621.5,197.5C 595.528,243.439 569.028,289.106 542,334.5C 540.152,340.653 542.152,342.653 548,340.5C 574.714,294.304 601.548,247.971 628.5,201.5C 630.674,201.75 632.341,202.75 633.5,204.5C 606.174,249.81 579.341,295.477 553,341.5C 552.229,346.763 554.396,348.429 559.5,346.5C 585.802,301.336 611.968,256.003 638,210.5C 638.816,209.177 639.983,208.511 641.5,208.5C 643.027,208.427 644.027,209.094 644.5,210.5C 616.877,256.904 589.877,303.738 563.5,351C 565.181,353.508 567.514,355.008 570.5,355.5C 570.833,449.668 570.499,543.668 569.5,637.5C 566.338,636.553 564.004,634.553 562.5,631.5C 559.893,630.682 557.226,630.182 554.5,630C 553.619,629.292 552.953,628.458 552.5,627.5C 552.5,625.833 552.5,624.167 552.5,622.5C 550.62,622.229 549.287,622.896 548.5,624.5C 543.039,624.71 540.039,622.043 539.5,616.5C 538.452,617.383 537.285,618.05 536,618.5C 533.54,617.402 531.04,616.402 528.5,615.5C 527.5,520.836 527.167,426.169 527.5,331.5C 529.01,332.836 530.677,334.003 532.5,335C 533.944,335.781 535.277,335.614 536.5,334.5C 562.926,287.976 589.592,241.643 616.5,195.5 Z"/></g>
<g><path style="opacity:1" fill="#f6bb65" d="M 621.5,197.5 C 624.032,198.596 626.365,199.929 628.5,201.5C 601.548,247.971 574.714,294.304 548,340.5C 542.152,342.653 540.152,340.653 542,334.5C 569.028,289.106 595.528,243.439 621.5,197.5 Z"/></g>
<g><path style="opacity:1" fill="#f6bb66" d="M 633.5,204.5 C 636.437,205.472 639.103,206.805 641.5,208.5C 639.983,208.511 638.816,209.177 638,210.5C 611.968,256.003 585.802,301.336 559.5,346.5C 554.396,348.429 552.229,346.763 553,341.5C 579.341,295.477 606.174,249.81 633.5,204.5 Z"/></g>
<g><path style="opacity:1" fill="#f5bd67" d="M 644.5,210.5 C 647.54,211.68 650.206,213.347 652.5,215.5C 651.89,216.391 651.557,217.391 651.5,218.5C 649.44,221.24 647.774,224.24 646.5,227.5C 645.094,227.973 644.427,228.973 644.5,230.5C 643.326,231.514 642.66,232.847 642.5,234.5C 641.094,234.973 640.427,235.973 640.5,237.5C 638.44,240.24 636.774,243.24 635.5,246.5C 634.094,246.973 633.427,247.973 633.5,249.5C 629.997,254.502 626.997,259.835 624.5,265.5C 623.094,265.973 622.427,266.973 622.5,268.5C 618.997,273.502 615.997,278.835 613.5,284.5C 612.094,284.973 611.427,285.973 611.5,287.5C 607.997,292.502 604.997,297.835 602.5,303.5C 601.094,303.973 600.427,304.973 600.5,306.5C 590.581,322.668 580.915,339.002 571.5,355.5C 571.167,355.5 570.833,355.5 570.5,355.5C 567.514,355.008 565.181,353.508 563.5,351C 589.877,303.738 616.877,256.904 644.5,210.5 Z"/></g>
<g><path style="opacity:1" fill="#944c8c" d="M 653.5,215.5 C 672.167,225.833 690.833,236.167 709.5,246.5C 709.842,247.338 710.508,247.672 711.5,247.5C 711.666,254.175 711.5,260.842 711,267.5C 708.641,273.894 705.974,280.227 703,286.5C 698.77,291.688 693.604,295.521 687.5,298C 682.5,298.667 677.5,298.667 672.5,298C 663.499,295.333 654.832,291.833 646.5,287.5C 642.976,290.195 640.142,293.529 638,297.5C 636.369,299.955 636.203,302.455 637.5,305C 656.336,317.797 676.67,321.13 698.5,315C 719.609,303.965 730.442,286.465 731,262.5C 731.278,261.584 731.778,260.918 732.5,260.5C 733.496,260.414 734.329,260.748 735,261.5C 735.667,356.167 735.667,450.833 735,545.5C 680.594,576.756 626.094,607.756 571.5,638.5C 571.5,544.167 571.5,449.833 571.5,355.5C 580.915,339.002 590.581,322.668 600.5,306.5C 601.906,306.027 602.573,305.027 602.5,303.5C 604.997,297.835 607.997,292.502 611.5,287.5C 612.906,287.027 613.573,286.027 613.5,284.5C 615.997,278.835 618.997,273.502 622.5,268.5C 623.906,268.027 624.573,267.027 624.5,265.5C 626.997,259.835 629.997,254.502 633.5,249.5C 634.906,249.027 635.573,248.027 635.5,246.5C 636.774,243.24 638.44,240.24 640.5,237.5C 641.906,237.027 642.573,236.027 642.5,234.5C 642.66,232.847 643.326,231.514 644.5,230.5C 645.906,230.027 646.573,229.027 646.5,227.5C 647.774,224.24 649.44,221.24 651.5,218.5C 652.906,218.027 653.573,217.027 653.5,215.5 Z"/></g>
<g><path style="opacity:1" fill="#bc7b7f" d="M 652.5,215.5 C 652.833,215.5 653.167,215.5 653.5,215.5C 653.573,217.027 652.906,218.027 651.5,218.5C 651.557,217.391 651.89,216.391 652.5,215.5 Z"/></g>
<g><path style="opacity:1" fill="#bd7d7e" d="M 646.5,227.5 C 646.573,229.027 645.906,230.027 644.5,230.5C 644.427,228.973 645.094,227.973 646.5,227.5 Z"/></g>
<g><path style="opacity:1" fill="#bb7b7f" d="M 642.5,234.5 C 642.573,236.027 641.906,237.027 640.5,237.5C 640.427,235.973 641.094,234.973 642.5,234.5 Z"/></g>
<g><path style="opacity:1" fill="#b2c9d9" d="M 710.5,229.5 C 711.49,235.31 711.823,241.31 711.5,247.5C 710.508,247.672 709.842,247.338 709.5,246.5C 710.489,241.025 710.822,235.358 710.5,229.5 Z"/></g>
<g><path style="opacity:1" fill="#bd7d7e" d="M 635.5,246.5 C 635.573,248.027 634.906,249.027 633.5,249.5C 633.427,247.973 634.094,246.973 635.5,246.5 Z"/></g>
<g><path style="opacity:1" fill="#bd7d7e" d="M 624.5,265.5 C 624.573,267.027 623.906,268.027 622.5,268.5C 622.427,266.973 623.094,265.973 624.5,265.5 Z"/></g>
<g><path style="opacity:1" fill="#9ab8cc" d="M 1150.5,272.5 C 1151.5,272.5 1152.5,272.5 1153.5,272.5C 1153.5,273.5 1153.5,274.5 1153.5,275.5C 1152.5,275.5 1151.5,275.5 1150.5,275.5C 1150.5,274.5 1150.5,273.5 1150.5,272.5 Z"/></g>
<g><path style="opacity:1" fill="#be7e7d" d="M 613.5,284.5 C 613.573,286.027 612.906,287.027 611.5,287.5C 611.427,285.973 612.094,284.973 613.5,284.5 Z"/></g>
<g><path style="opacity:1" fill="#be7e7d" d="M 602.5,303.5 C 602.573,305.027 601.906,306.027 600.5,306.5C 600.427,304.973 601.094,303.973 602.5,303.5 Z"/></g>
<g><path style="opacity:1" fill="#eebc6f" d="M 718.5,359.5 C 719.234,360.708 719.567,362.041 719.5,363.5C 719.5,363.833 719.5,364.167 719.5,364.5C 718.094,364.973 717.427,365.973 717.5,367.5C 716.026,368.436 715.026,369.77 714.5,371.5C 713.094,371.973 712.427,372.973 712.5,374.5C 707.144,381.198 702.144,388.198 697.5,395.5C 696.094,395.973 695.427,396.973 695.5,398.5C 691.811,402.865 688.478,407.531 685.5,412.5C 684.094,412.973 683.427,413.973 683.5,415.5C 682.094,415.973 681.427,416.973 681.5,418.5C 679.738,419.262 678.738,420.596 678.5,422.5C 677.094,422.973 676.427,423.973 676.5,425.5C 675.026,426.436 674.026,427.77 673.5,429.5C 672.094,429.973 671.427,430.973 671.5,432.5C 670.026,433.436 669.026,434.77 668.5,436.5C 667.094,436.973 666.427,437.973 666.5,439.5C 664.478,441.531 662.811,443.865 661.5,446.5C 660.094,446.973 659.427,447.973 659.5,449.5C 658.026,450.436 657.026,451.77 656.5,453.5C 655.094,453.973 654.427,454.973 654.5,456.5C 652.478,458.531 650.811,460.865 649.5,463.5C 648.094,463.973 647.427,464.973 647.5,466.5C 646.026,467.436 645.026,468.77 644.5,470.5C 643.094,470.973 642.427,471.973 642.5,473.5C 638.811,477.865 635.478,482.531 632.5,487.5C 631.094,487.973 630.427,488.973 630.5,490.5C 626.811,494.865 623.478,499.531 620.5,504.5C 619.094,504.973 618.427,505.973 618.5,507.5C 614.811,511.865 611.478,516.531 608.5,521.5C 607.094,521.973 606.427,522.973 606.5,524.5C 603.677,527.475 601.344,530.808 599.5,534.5C 597.787,535.635 597.12,537.302 597.5,539.5C 597.138,544.421 596.138,549.087 594.5,553.5C 593.542,553.047 592.708,552.381 592,551.5C 591.333,545.167 591.333,538.833 592,532.5C 632.833,475 673.667,417.5 714.5,360C 715.793,359.51 717.127,359.343 718.5,359.5 Z"/></g>
<g><path style="opacity:1" fill="#c5877b" d="M 718.5,359.5 C 719.586,359.62 720.253,360.287 720.5,361.5C 720.457,362.416 720.124,363.083 719.5,363.5C 719.567,362.041 719.234,360.708 718.5,359.5 Z"/></g>
<g><path style="opacity:1" fill="#2878ee" d="M 719.5,364.5 C 720.5,364.5 721.5,364.5 722.5,364.5C 722.666,369.179 722.499,373.845 722,378.5C 681.306,435.695 640.806,493.028 600.5,550.5C 599.675,551.386 598.675,551.719 597.5,551.5C 597.5,547.5 597.5,543.5 597.5,539.5C 598.537,538.07 599.204,536.403 599.5,534.5C 601.344,530.808 603.677,527.475 606.5,524.5C 607.906,524.027 608.573,523.027 608.5,521.5C 611.478,516.531 614.811,511.865 618.5,507.5C 619.906,507.027 620.573,506.027 620.5,504.5C 623.478,499.531 626.811,494.865 630.5,490.5C 631.906,490.027 632.573,489.027 632.5,487.5C 635.478,482.531 638.811,477.865 642.5,473.5C 643.906,473.027 644.573,472.027 644.5,470.5C 645.026,468.77 646.026,467.436 647.5,466.5C 648.906,466.027 649.573,465.027 649.5,463.5C 650.811,460.865 652.478,458.531 654.5,456.5C 655.906,456.027 656.573,455.027 656.5,453.5C 657.026,451.77 658.026,450.436 659.5,449.5C 660.906,449.027 661.573,448.027 661.5,446.5C 662.811,443.865 664.478,441.531 666.5,439.5C 667.906,439.027 668.573,438.027 668.5,436.5C 669.026,434.77 670.026,433.436 671.5,432.5C 672.906,432.027 673.573,431.027 673.5,429.5C 674.026,427.77 675.026,426.436 676.5,425.5C 677.906,425.027 678.573,424.027 678.5,422.5C 680.262,421.738 681.262,420.404 681.5,418.5C 681.427,416.973 682.094,415.973 683.5,415.5C 684.906,415.027 685.573,414.027 685.5,412.5C 688.478,407.531 691.811,402.865 695.5,398.5C 696.906,398.027 697.573,397.027 697.5,395.5C 702.144,388.198 707.144,381.198 712.5,374.5C 713.906,374.027 714.573,373.027 714.5,371.5C 715.026,369.77 716.026,368.436 717.5,367.5C 718.906,367.027 719.573,366.027 719.5,364.5 Z"/></g>
<g><path style="opacity:1" fill="#638ecb" d="M 719.5,364.5 C 719.573,366.027 718.906,367.027 717.5,367.5C 717.427,365.973 718.094,364.973 719.5,364.5 Z"/></g>
<g><path style="opacity:1" fill="#6a90c6" d="M 714.5,371.5 C 714.573,373.027 713.906,374.027 712.5,374.5C 712.427,372.973 713.094,371.973 714.5,371.5 Z"/></g>
<g><path style="opacity:1" fill="#6b91c6" d="M 697.5,395.5 C 697.573,397.027 696.906,398.027 695.5,398.5C 695.427,396.973 696.094,395.973 697.5,395.5 Z"/></g>
<g><path style="opacity:1" fill="#edbb6f" d="M 641.5,402.5 C 638.654,402.552 636.32,403.552 634.5,405.5C 633.5,405.833 632.833,406.5 632.5,407.5C 629.833,408.167 628.167,409.833 627.5,412.5C 626.094,412.973 625.427,413.973 625.5,415.5C 624.326,416.514 623.66,417.847 623.5,419.5C 622.094,419.973 621.427,420.973 621.5,422.5C 621.5,426.167 621.5,429.833 621.5,433.5C 621.715,435.179 621.048,436.179 619.5,436.5C 617.808,434.795 616.475,432.795 615.5,430.5C 615.431,425.384 616.098,420.384 617.5,415.5C 621.33,405.105 628.663,399.938 639.5,400C 640.381,400.708 641.047,401.542 641.5,402.5 Z"/></g>
<g><path style="opacity:1" fill="#2277f0" d="M 642.5,403.5 C 644.929,403.585 646.929,404.585 648.5,406.5C 650.082,413.027 649.582,419.36 647,425.5C 643.88,430.954 639.713,435.454 634.5,439C 629.541,441.681 625.541,440.848 622.5,436.5C 622.737,435.209 622.404,434.209 621.5,433.5C 621.5,429.833 621.5,426.167 621.5,422.5C 622.906,422.027 623.573,421.027 623.5,419.5C 623.66,417.847 624.326,416.514 625.5,415.5C 626.906,415.027 627.573,414.027 627.5,412.5C 629.5,411.167 631.167,409.5 632.5,407.5C 632.833,406.5 633.5,405.833 634.5,405.5C 637.112,404.629 639.779,403.963 642.5,403.5 Z"/></g>
<g><path style="opacity:1" fill="#8d9cb0" d="M 641.5,402.5 C 642.167,402.5 642.5,402.833 642.5,403.5C 639.779,403.963 637.112,404.629 634.5,405.5C 636.32,403.552 638.654,402.552 641.5,402.5 Z"/></g>
<g><path style="opacity:1" fill="#6f90c6" d="M 632.5,407.5 C 631.167,409.5 629.5,411.167 627.5,412.5C 628.167,409.833 629.833,408.167 632.5,407.5 Z"/></g>
<g><path style="opacity:1" fill="#6c91c5" d="M 627.5,412.5 C 627.573,414.027 626.906,415.027 625.5,415.5C 625.427,413.973 626.094,412.973 627.5,412.5 Z"/></g>
<g><path style="opacity:1" fill="#6b90c6" d="M 685.5,412.5 C 685.573,414.027 684.906,415.027 683.5,415.5C 683.427,413.973 684.094,412.973 685.5,412.5 Z"/></g>
<g><path style="opacity:1" fill="#698ec9" d="M 681.5,418.5 C 681.262,420.404 680.262,421.738 678.5,422.5C 678.738,420.596 679.738,419.262 681.5,418.5 Z"/></g>
<g><path style="opacity:1" fill="#a4a5a1" d="M 623.5,419.5 C 623.573,421.027 622.906,422.027 621.5,422.5C 621.427,420.973 622.094,419.973 623.5,419.5 Z"/></g>
<g><path style="opacity:1" fill="#658eca" d="M 678.5,422.5 C 678.573,424.027 677.906,425.027 676.5,425.5C 676.427,423.973 677.094,422.973 678.5,422.5 Z"/></g>
<g><path style="opacity:1" fill="#c0817d" d="M 617.5,415.5 C 616.098,420.384 615.431,425.384 615.5,430.5C 613.972,425.261 614.639,420.261 617.5,415.5 Z"/></g>
<g><path style="opacity:1" fill="#698fc7" d="M 673.5,429.5 C 673.573,431.027 672.906,432.027 671.5,432.5C 671.427,430.973 672.094,429.973 673.5,429.5 Z"/></g>
<g><path style="opacity:1" fill="#af9993" d="M 621.5,433.5 C 622.404,434.209 622.737,435.209 622.5,436.5C 621.5,437.833 620.5,437.833 619.5,436.5C 621.048,436.179 621.715,435.179 621.5,433.5 Z"/></g>
<g><path style="opacity:1" fill="#7191c3" d="M 668.5,436.5 C 668.573,438.027 667.906,439.027 666.5,439.5C 666.427,437.973 667.094,436.973 668.5,436.5 Z"/></g>
<g><path style="opacity:1" fill="#698fc7" d="M 661.5,446.5 C 661.573,448.027 660.906,449.027 659.5,449.5C 659.427,447.973 660.094,446.973 661.5,446.5 Z"/></g>
<g><path style="opacity:1" fill="#6f91c4" d="M 656.5,453.5 C 656.573,455.027 655.906,456.027 654.5,456.5C 654.427,454.973 655.094,453.973 656.5,453.5 Z"/></g>
<g><path style="opacity:1" fill="#eebb6f" d="M 699.5,466.5 C 697.03,466.654 695.03,467.654 693.5,469.5C 690.5,470.5 688.5,472.5 687.5,475.5C 681.047,481.881 679.047,489.548 681.5,498.5C 681.483,500.028 680.816,500.528 679.5,500C 674.105,493.84 673.105,487.006 676.5,479.5C 677.906,479.027 678.573,478.027 678.5,476.5C 682.54,467.153 689.54,462.987 699.5,464C 700.598,464.77 700.598,465.603 699.5,466.5 Z"/></g>
<g><path style="opacity:1" fill="#698fc8" d="M 649.5,463.5 C 649.573,465.027 648.906,466.027 647.5,466.5C 647.427,464.973 648.094,463.973 649.5,463.5 Z"/></g>
<g><path style="opacity:1" fill="#2777ef" d="M 681.5,498.5 C 679.047,489.548 681.047,481.881 687.5,475.5C 689.833,473.833 691.833,471.833 693.5,469.5C 695.03,467.654 697.03,466.654 699.5,466.5C 703.649,465.827 706.816,467.493 709,471.5C 710.009,485.819 704.176,496.319 691.5,503C 686.43,504.687 683.097,503.187 681.5,498.5 Z"/></g>
<g><path style="opacity:1" fill="#6f91c5" d="M 644.5,470.5 C 644.573,472.027 643.906,473.027 642.5,473.5C 642.427,471.973 643.094,470.973 644.5,470.5 Z"/></g>
<g><path style="opacity:1" fill="#698ec9" d="M 693.5,469.5 C 691.833,471.833 689.833,473.833 687.5,475.5C 688.5,472.5 690.5,470.5 693.5,469.5 Z"/></g>
<g><path style="opacity:1" fill="#c3847c" d="M 678.5,476.5 C 678.573,478.027 677.906,479.027 676.5,479.5C 676.427,477.973 677.094,476.973 678.5,476.5 Z"/></g>
<g><path style="opacity:1" fill="#6a90c7" d="M 632.5,487.5 C 632.573,489.027 631.906,490.027 630.5,490.5C 630.427,488.973 631.094,487.973 632.5,487.5 Z"/></g>
<g><path style="opacity:1" fill="#90afc6" d="M 164.5,491.5 C 165.5,491.5 166.5,491.5 167.5,491.5C 167.5,492.5 167.5,493.5 167.5,494.5C 166.5,494.5 165.5,494.5 164.5,494.5C 164.5,493.5 164.5,492.5 164.5,491.5 Z"/></g>
<g><path style="opacity:1" fill="#698fc8" d="M 620.5,504.5 C 620.573,506.027 619.906,507.027 618.5,507.5C 618.427,505.973 619.094,504.973 620.5,504.5 Z"/></g>
<g><path style="opacity:1" fill="#688fc9" d="M 608.5,521.5 C 608.573,523.027 607.906,524.027 606.5,524.5C 606.427,522.973 607.094,521.973 608.5,521.5 Z"/></g>
<g><path style="opacity:1" fill="#d34435" d="M 570.5,355.5 C 570.833,355.5 571.167,355.5 571.5,355.5C 571.5,449.833 571.5,544.167 571.5,638.5C 570.508,638.672 569.842,638.338 569.5,637.5C 570.499,543.668 570.833,449.668 570.5,355.5 Z"/></g>
<g><path style="opacity:1" fill="#8f9ead" d="M 599.5,534.5 C 599.204,536.403 598.537,538.07 597.5,539.5C 597.12,537.302 597.787,535.635 599.5,534.5 Z"/></g>
<g><path style="opacity:1" fill="#a89d98" d="M 597.5,539.5 C 597.5,543.5 597.5,547.5 597.5,551.5C 597.5,552.5 597.5,553.5 597.5,554.5C 596.209,554.737 595.209,554.404 594.5,553.5C 596.138,549.087 597.138,544.421 597.5,539.5 Z"/></g>
<g><path style="opacity:1" fill="#93b2c8" d="M 1041.5,545.5 C 1042.5,545.5 1043.5,545.5 1044.5,545.5C 1044.5,546.833 1044.5,548.167 1044.5,549.5C 1043.17,549.5 1041.83,549.5 1040.5,549.5C 1040.43,548.041 1040.77,546.708 1041.5,545.5 Z"/></g>
<g><path style="opacity:1" fill="#e39b8e" d="M 552.5,627.5 C 551.71,626.391 551.21,625.058 551,623.5C 550.329,624.252 549.496,624.586 548.5,624.5C 549.287,622.896 550.62,622.229 552.5,622.5C 552.5,624.167 552.5,625.833 552.5,627.5 Z"/></g>
<g><path style="opacity:1" fill="#df7665" d="M 91.5,685.5 C 120.329,684.502 149.329,684.169 178.5,684.5C 178.768,686.099 178.434,687.432 177.5,688.5C 177.5,687.5 177.5,686.5 177.5,685.5C 148.833,685.5 120.167,685.5 91.5,685.5 Z"/></g>
<g><path style="opacity:1" fill="#df7665" d="M 192.5,685.5 C 201.986,684.506 211.652,684.173 221.5,684.5C 221.737,685.791 221.404,686.791 220.5,687.5C 211.56,685.528 202.227,684.861 192.5,685.5 Z"/></g>
<g><path style="opacity:1" fill="#df7968" d="M 289.5,687.5 C 285.217,686.173 280.551,685.507 275.5,685.5C 270.421,685.525 265.421,685.858 260.5,686.5C 270.111,684.526 280.111,683.859 290.5,684.5C 290.737,685.791 290.404,686.791 289.5,687.5 Z"/></g>
<g><path style="opacity:1" fill="#df7564" d="M 302.5,685.5 C 320.995,684.338 339.662,684.171 358.5,685C 360.058,685.21 361.391,685.71 362.5,686.5C 342.52,685.574 322.52,685.241 302.5,685.5 Z"/></g>
<g><path style="opacity:1" fill="#e08271" d="M 405.5,685.5 C 414.986,684.506 424.652,684.173 434.5,684.5C 434.81,687.713 434.477,690.713 433.5,693.5C 433.5,690.833 433.5,688.167 433.5,685.5C 424.167,685.5 414.833,685.5 405.5,685.5 Z"/></g>
<g><path style="opacity:1" fill="#df7665" d="M 446.5,685.5 C 471.328,684.502 496.328,684.169 521.5,684.5C 521.802,687.059 521.468,689.393 520.5,691.5C 520.5,689.5 520.5,687.5 520.5,685.5C 495.833,685.5 471.167,685.5 446.5,685.5 Z"/></g>
<g><path style="opacity:1" fill="#df7a69" d="M 619.5,689.5 C 619.5,688.167 619.5,686.833 619.5,685.5C 591.165,685.333 562.831,685.5 534.5,686C 533.891,687.948 533.224,689.782 532.5,691.5C 532.5,689.167 532.5,686.833 532.5,684.5C 561.833,684.5 591.167,684.5 620.5,684.5C 620.784,686.415 620.451,688.081 619.5,689.5 Z"/></g>
<g><path style="opacity:1" fill="#e3a397" d="M 714.5,685.5 C 718.97,684.514 723.637,684.181 728.5,684.5C 728.737,685.791 728.404,686.791 727.5,687.5C 723.627,685.57 719.294,684.903 714.5,685.5 Z"/></g>
<g><path style="opacity:1" fill="#da462e" d="M 780.5,685.5 C 781.287,687.104 782.62,687.771 784.5,687.5C 790.033,689.43 794.7,692.597 798.5,697C 791.861,704.133 784.195,709.966 775.5,714.5C 771.928,713.478 768.595,711.978 765.5,710C 759.083,709.13 752.749,709.464 746.5,711C 739.689,716.33 740.023,721.33 747.5,726C 755.703,731.538 764.369,736.204 773.5,740C 778.957,743.29 783.623,747.457 787.5,752.5C 787.427,754.027 788.094,755.027 789.5,755.5C 792.102,761.823 792.102,768.157 789.5,774.5C 788.463,775.93 787.796,777.597 787.5,779.5C 787.5,779.833 787.5,780.167 787.5,780.5C 786.094,780.973 785.427,781.973 785.5,783.5C 784.512,784.795 783.512,786.128 782.5,787.5C 779.5,789.833 776.833,792.5 774.5,795.5C 767.689,799.904 760.356,803.237 752.5,805.5C 744.495,806.79 736.495,806.79 728.5,805.5C 716.44,803.653 705.94,798.653 697,790.5C 696.333,789.167 696.333,787.833 697,786.5C 703.167,781 709.333,775.5 715.5,770C 718.979,769.434 721.645,770.767 723.5,774C 735.595,782.413 747.761,782.58 760,774.5C 761.567,769.467 760.067,765.633 755.5,763C 743.178,756.841 731.178,750.174 719.5,743C 715.763,739.622 713.429,735.456 712.5,730.5C 712.201,723.711 712.868,717.044 714.5,710.5C 718.441,700.893 725.107,693.893 734.5,689.5C 739.422,688.364 744.089,686.697 748.5,684.5C 759.221,683.018 769.887,683.351 780.5,685.5 Z"/></g>
<g><path style="opacity:1" fill="#df7867" d="M 874.5,685.5 C 856.488,685.167 838.488,685.5 820.5,686.5C 820.058,687.739 819.391,688.739 818.5,689.5C 818.286,687.856 818.62,686.356 819.5,685C 838.005,684.171 856.338,684.338 874.5,685.5 Z"/></g>
<g><path style="opacity:1" fill="#db5139" d="M 85.5,693.5 C 76.4978,693.214 67.4978,692.881 58.5,692.5C 54.1578,692.261 49.8244,691.927 45.5,691.5C 39.1046,690.924 32.7713,689.924 26.5,688.5C 27.5,688.5 28.5,688.5 29.5,688.5C 37.1739,688.666 44.8406,688.5 52.5,688C 54.7078,687.809 56.7078,687.309 58.5,686.5C 67.8109,685.551 77.1443,684.884 86.5,684.5C 86.81,687.713 86.4767,690.713 85.5,693.5 Z"/></g>
<g><path style="opacity:1" fill="#da452d" d="M 91.5,685.5 C 120.167,685.5 148.833,685.5 177.5,685.5C 177.5,686.5 177.5,687.5 177.5,688.5C 177.5,690.167 177.5,691.833 177.5,693.5C 175.96,695.838 175.294,698.505 175.5,701.5C 175.037,704.482 174.704,707.482 174.5,710.5C 164.584,710.181 154.75,710.514 145,711.5C 139.451,742.126 134.118,772.792 129,803.5C 119.25,804.486 109.416,804.819 99.5,804.5C 99.6488,799.425 100.315,794.425 101.5,789.5C 102.657,786.727 103.324,783.727 103.5,780.5C 105.018,772.208 106.351,763.875 107.5,755.5C 108.951,750.041 109.951,744.374 110.5,738.5C 110.833,736.5 111.167,734.5 111.5,732.5C 112.525,729.026 113.192,725.36 113.5,721.5C 114.244,717.881 114.577,714.215 114.5,710.5C 105.5,710.5 96.5,710.5 87.5,710.5C 88.4358,701.98 89.7691,693.647 91.5,685.5 Z"/></g>
<g><path style="opacity:1" fill="#da452d" d="M 192.5,685.5 C 202.227,684.861 211.56,685.528 220.5,687.5C 219.833,692.5 219.167,697.5 218.5,702.5C 216.96,704.838 216.294,707.505 216.5,710.5C 216.474,715.267 215.807,719.934 214.5,724.5C 212.688,726.713 212.355,729.047 213.5,731.5C 226.517,731.832 239.517,731.499 252.5,730.5C 253.352,726.869 254.019,723.202 254.5,719.5C 255.525,716.026 256.192,712.36 256.5,708.5C 256.5,707.5 256.5,706.5 256.5,705.5C 258.04,703.162 258.706,700.495 258.5,697.5C 259.06,693.807 259.727,690.14 260.5,686.5C 265.421,685.858 270.421,685.525 275.5,685.5C 280.551,685.507 285.217,686.173 289.5,687.5C 289.5,688.5 289.5,689.5 289.5,690.5C 287.96,692.838 287.294,695.505 287.5,698.5C 286.841,701.455 286.508,704.455 286.5,707.5C 284.96,709.838 284.294,712.505 284.5,715.5C 282.512,725.762 280.845,736.096 279.5,746.5C 277.96,748.838 277.294,751.505 277.5,754.5C 276.894,761.23 275.894,767.897 274.5,774.5C 272.96,776.838 272.294,779.505 272.5,782.5C 272.081,790.122 270.747,797.455 268.5,804.5C 259.167,804.5 249.833,804.5 240.5,804.5C 240.5,803.5 240.5,802.5 240.5,801.5C 242.781,788.868 244.781,776.201 246.5,763.5C 247.461,761.735 247.795,759.735 247.5,757.5C 234.124,756.852 221.124,757.519 208.5,759.5C 205.542,774.054 203.042,788.721 201,803.5C 191.25,804.486 181.416,804.819 171.5,804.5C 174.52,782.065 178.187,759.732 182.5,737.5C 183.525,734.026 184.192,730.36 184.5,726.5C 187.178,712.707 189.845,699.04 192.5,685.5 Z"/></g>
<g><path style="opacity:1" fill="#da452d" d="M 302.5,685.5 C 322.52,685.241 342.52,685.574 362.5,686.5C 369.107,687.928 374.607,691.261 379,696.5C 379.464,697.094 379.631,697.761 379.5,698.5C 379.427,700.027 380.094,701.027 381.5,701.5C 381.5,701.833 381.5,702.167 381.5,702.5C 381.259,704.898 381.926,706.898 383.5,708.5C 385.713,729.746 378.213,746.413 361,758.5C 360.517,759.448 360.351,760.448 360.5,761.5C 360.742,765.479 361.742,769.146 363.5,772.5C 363.742,776.479 364.742,780.146 366.5,783.5C 367.96,790.547 369.627,797.547 371.5,804.5C 361.833,804.5 352.167,804.5 342.5,804.5C 342.768,802.901 342.434,801.568 341.5,800.5C 341.59,797.848 340.924,795.515 339.5,793.5C 339.768,791.901 339.434,790.568 338.5,789.5C 338.59,786.848 337.924,784.515 336.5,782.5C 336.768,780.901 336.434,779.568 335.5,778.5C 335.59,775.848 334.924,773.515 333.5,771.5C 333.643,769.738 333.309,768.071 332.5,766.5C 327.544,765.506 322.544,765.173 317.5,765.5C 314.758,778.045 312.592,790.712 311,803.5C 301.25,804.486 291.416,804.819 281.5,804.5C 284.41,785.458 287.41,766.458 290.5,747.5C 291.768,745.095 292.435,742.428 292.5,739.5C 293.799,733.764 294.799,728.098 295.5,722.5C 296.525,719.026 297.192,715.36 297.5,711.5C 298.525,708.026 299.192,704.36 299.5,700.5C 299.5,699.5 299.5,698.5 299.5,697.5C 300.768,695.095 301.435,692.428 301.5,689.5C 301.232,687.901 301.566,686.568 302.5,685.5 Z"/></g>
<g><path style="opacity:1" fill="#da472f" d="M 405.5,685.5 C 414.833,685.5 424.167,685.5 433.5,685.5C 433.5,688.167 433.5,690.833 433.5,693.5C 431.416,705.179 429.416,716.846 427.5,728.5C 425.96,730.838 425.294,733.505 425.5,736.5C 424.338,743.129 423.338,749.796 422.5,756.5C 420.96,758.838 420.294,761.505 420.5,764.5C 419.211,771.09 418.211,777.756 417.5,784.5C 415.96,786.838 415.294,789.505 415.5,792.5C 415.531,796.484 414.864,800.317 413.5,804C 403.839,804.5 394.172,804.666 384.5,804.5C 385.718,797.518 386.718,790.518 387.5,783.5C 389.175,780.493 389.841,777.16 389.5,773.5C 390.714,767.528 391.714,761.528 392.5,755.5C 394.175,752.493 394.841,749.16 394.5,745.5C 397.679,725.284 401.345,705.284 405.5,685.5 Z"/></g>
<g><path style="opacity:1" fill="#da452d" d="M 446.5,685.5 C 471.167,685.5 495.833,685.5 520.5,685.5C 520.5,687.5 520.5,689.5 520.5,691.5C 520.5,692.5 520.5,693.5 520.5,694.5C 518.96,696.838 518.294,699.505 518.5,702.5C 518.148,705.428 517.482,708.262 516.5,711C 501.504,711.5 486.504,711.667 471.5,711.5C 469.96,713.838 469.294,716.505 469.5,719.5C 469.5,720.5 469.5,721.5 469.5,722.5C 467.518,725.373 467.185,728.373 468.5,731.5C 480.655,732.495 492.989,732.829 505.5,732.5C 505.5,733.833 505.5,735.167 505.5,736.5C 504.833,741.5 504.167,746.5 503.5,751.5C 502.539,753.265 502.205,755.265 502.5,757.5C 489.167,757.5 475.833,757.5 462.5,757.5C 462.5,759.167 462.5,760.833 462.5,762.5C 460.96,764.838 460.294,767.505 460.5,770.5C 460.492,773.545 460.159,776.545 459.5,779.5C 457.96,781.838 457.294,784.505 457.5,787.5C 456.29,793.096 455.623,798.762 455.5,804.5C 445.5,804.5 435.5,804.5 425.5,804.5C 428.096,789.871 430.429,775.205 432.5,760.5C 433.768,758.095 434.435,755.428 434.5,752.5C 434.205,750.265 434.539,748.265 435.5,746.5C 436.903,743.091 437.57,739.425 437.5,735.5C 437.5,734.5 437.5,733.5 437.5,732.5C 438.768,730.095 439.435,727.428 439.5,724.5C 439.205,722.265 439.539,720.265 440.5,718.5C 441.903,715.091 442.57,711.425 442.5,707.5C 442.5,706.5 442.5,705.5 442.5,704.5C 443.768,702.095 444.435,699.428 444.5,696.5C 444.414,692.681 445.081,689.015 446.5,685.5 Z"/></g>
<g><path style="opacity:1" fill="#da452d" d="M 619.5,689.5 C 619.5,690.833 619.5,692.167 619.5,693.5C 618.076,695.515 617.41,697.848 617.5,700.5C 616.793,703.786 616.46,707.119 616.5,710.5C 606.828,710.334 597.161,710.5 587.5,711C 585.883,718.432 584.549,725.932 583.5,733.5C 582.232,735.905 581.565,738.572 581.5,741.5C 581.5,742.5 581.5,743.5 581.5,744.5C 579.96,746.838 579.294,749.505 579.5,752.5C 578.841,755.455 578.508,758.455 578.5,761.5C 577.232,763.905 576.565,766.572 576.5,769.5C 576.5,770.5 576.5,771.5 576.5,772.5C 574.96,774.838 574.294,777.505 574.5,780.5C 573.329,788.539 571.996,796.539 570.5,804.5C 560.833,804.5 551.167,804.5 541.5,804.5C 542.435,795.992 543.768,787.658 545.5,779.5C 547.217,776.155 547.884,772.489 547.5,768.5C 548.101,762.638 549.101,756.971 550.5,751.5C 552.217,748.155 552.884,744.489 552.5,740.5C 553.376,733.949 554.376,727.283 555.5,720.5C 557.011,717.456 557.678,714.122 557.5,710.5C 548.167,710.5 538.833,710.5 529.5,710.5C 529.625,703.902 530.625,697.569 532.5,691.5C 533.224,689.782 533.891,687.948 534.5,686C 562.831,685.5 591.165,685.333 619.5,685.5C 619.5,686.833 619.5,688.167 619.5,689.5 Z"/></g>
<g><path style="opacity:1" fill="#da462e" d="M 874.5,685.5 C 889.701,687.034 898.368,695.368 900.5,710.5C 900.546,717.191 900.212,723.857 899.5,730.5C 895.141,744.86 886.141,755.193 872.5,761.5C 869.848,761.41 867.515,762.076 865.5,763.5C 855.274,765.264 844.941,765.931 834.5,765.5C 833.42,772.474 832.42,779.474 831.5,786.5C 829.96,788.838 829.294,791.505 829.5,794.5C 829.5,795.167 829.5,795.833 829.5,796.5C 828.79,798.893 828.123,801.393 827.5,804C 818.173,804.5 808.839,804.666 799.5,804.5C 799.5,802.167 799.5,799.833 799.5,797.5C 804.038,770.809 808.705,744.143 813.5,717.5C 814.768,715.095 815.435,712.428 815.5,709.5C 816.241,702.793 817.241,696.127 818.5,689.5C 819.391,688.739 820.058,687.739 820.5,686.5C 838.488,685.5 856.488,685.167 874.5,685.5 Z"/></g>
<g><path style="opacity:1" fill="#da452d" d="M 998.5,702.5 C 1000.16,708.365 1000.82,714.365 1000.5,720.5C 1000.17,723.167 999.833,725.833 999.5,728.5C 998.129,730.936 997.129,733.603 996.5,736.5C 992.849,745.83 986.849,753.164 978.5,758.5C 977.185,761.627 977.518,764.627 979.5,767.5C 982.394,779.865 985.394,792.198 988.5,804.5C 979.167,804.5 969.833,804.5 960.5,804.5C 960.204,802.597 959.537,800.93 958.5,799.5C 957.611,793.181 955.944,787.181 953.5,781.5C 953.258,777.521 952.258,773.854 950.5,770.5C 950.822,768.278 950.155,766.444 948.5,765C 943.833,764.333 939.167,764.333 934.5,765C 933.512,768.745 932.845,772.578 932.5,776.5C 931.475,779.974 930.808,783.64 930.5,787.5C 930.5,788.5 930.5,789.5 930.5,790.5C 928.77,794.883 927.77,799.55 927.5,804.5C 917.833,804.5 908.167,804.5 898.5,804.5C 899.265,801.904 899.599,799.237 899.5,796.5C 901.513,782.447 903.846,768.447 906.5,754.5C 908.369,752.365 909.036,749.698 908.5,746.5C 909.241,739.793 910.241,733.127 911.5,726.5C 913.369,724.365 914.036,721.698 913.5,718.5C 913.5,717.5 913.5,716.5 913.5,715.5C 915.956,711.274 916.956,706.607 916.5,701.5C 916.5,700.5 916.5,699.5 916.5,698.5C 917.768,696.095 918.435,693.428 918.5,690.5C 918.261,688.533 918.594,686.699 919.5,685C 937.5,684.333 955.5,684.333 973.5,685C 980.05,685.875 986.05,688.208 991.5,692C 994.712,694.927 997.045,698.427 998.5,702.5 Z"/></g>
<g><path style="opacity:1" fill="#da462e" d="M 1051.5,684.5 C 1051.04,687.482 1050.7,690.482 1050.5,693.5C 1049.42,696.627 1048.75,699.96 1048.5,703.5C 1048.5,704.167 1048.5,704.833 1048.5,705.5C 1046.87,710.591 1045.87,715.924 1045.5,721.5C 1045.5,721.833 1045.5,722.167 1045.5,722.5C 1043.87,727.591 1042.87,732.924 1042.5,738.5C 1041.31,741.946 1040.65,745.613 1040.5,749.5C 1038.37,759.055 1036.71,768.722 1035.5,778.5C 1033.6,786.634 1032.27,794.967 1031.5,803.5C 1021.58,804.474 1011.58,804.807 1001.5,804.5C 1001.12,800.511 1001.78,796.845 1003.5,793.5C 1005.1,789.1 1005.77,784.434 1005.5,779.5C 1005.86,774.569 1006.86,769.902 1008.5,765.5C 1010.1,761.1 1010.77,756.434 1010.5,751.5C 1010.95,746.596 1011.95,741.93 1013.5,737.5C 1015.1,733.1 1015.77,728.434 1015.5,723.5C 1016.83,715.833 1018.17,708.167 1019.5,700.5C 1020.77,698.095 1021.43,695.428 1021.5,692.5C 1021.23,689.881 1021.56,687.381 1022.5,685C 1032.16,684.5 1041.83,684.334 1051.5,684.5 Z"/></g>
<g><path style="opacity:1" fill="#da452d" d="M 1107.5,717.5 C 1107.93,720.157 1108.93,722.491 1110.5,724.5C 1112.9,733.696 1115.9,742.696 1119.5,751.5C 1121.14,747.68 1122.14,743.68 1122.5,739.5C 1123.99,735.718 1125.16,731.718 1126,727.5C 1126.5,724.854 1126.66,722.187 1126.5,719.5C 1128.33,714.105 1129.33,708.438 1129.5,702.5C 1129.93,696.539 1130.93,690.706 1132.5,685C 1142.16,684.5 1151.83,684.334 1161.5,684.5C 1161.5,686.5 1161.5,688.5 1161.5,690.5C 1159.96,692.838 1159.29,695.505 1159.5,698.5C 1159.5,699.5 1159.5,700.5 1159.5,701.5C 1157.96,703.838 1157.29,706.505 1157.5,709.5C 1157.17,711.5 1156.83,713.5 1156.5,715.5C 1155.48,718.974 1154.81,722.64 1154.5,726.5C 1153.09,732.085 1152.09,737.751 1151.5,743.5C 1150.48,746.974 1149.81,750.64 1149.5,754.5C 1149.5,755.5 1149.5,756.5 1149.5,757.5C 1147.96,759.838 1147.29,762.505 1147.5,765.5C 1147.17,767.5 1146.83,769.5 1146.5,771.5C 1145.48,774.974 1144.81,778.64 1144.5,782.5C 1144.5,783.5 1144.5,784.5 1144.5,785.5C 1142.96,787.838 1142.29,790.505 1142.5,793.5C 1142.05,796.876 1141.38,800.209 1140.5,803.5C 1129.19,804.499 1117.85,804.832 1106.5,804.5C 1099.84,783.518 1093.17,762.518 1086.5,741.5C 1086.67,740.178 1086.34,739.011 1085.5,738C 1084.18,737.472 1083.52,737.972 1083.5,739.5C 1081.66,747.288 1080.33,755.288 1079.5,763.5C 1077.96,765.838 1077.29,768.505 1077.5,771.5C 1076.29,776.414 1075.63,781.414 1075.5,786.5C 1073.96,788.838 1073.29,791.505 1073.5,794.5C 1072.86,797.456 1072.36,800.456 1072,803.5C 1071.62,804.056 1071.12,804.389 1070.5,804.5C 1061.5,804.5 1052.5,804.5 1043.5,804.5C 1043.5,802.5 1043.5,800.5 1043.5,798.5C 1048.03,769.424 1053.03,740.424 1058.5,711.5C 1059.77,709.095 1060.43,706.428 1060.5,703.5C 1060.5,702.5 1060.5,701.5 1060.5,700.5C 1063.02,695.939 1064.02,690.939 1063.5,685.5C 1074.33,684.341 1085.33,684.174 1096.5,685C 1100.47,695.729 1104.13,706.562 1107.5,717.5 Z"/></g>
<g><path style="opacity:1" fill="#da462e" d="M 1260.5,687.5 C 1259.34,690.273 1258.68,693.273 1258.5,696.5C 1258.5,697.833 1258.5,699.167 1258.5,700.5C 1257.08,702.515 1256.41,704.848 1256.5,707.5C 1256.67,708.822 1256.34,709.989 1255.5,711C 1245.84,711.5 1236.17,711.666 1226.5,711.5C 1226.5,713.833 1226.5,716.167 1226.5,718.5C 1224.96,720.838 1224.29,723.505 1224.5,726.5C 1223.74,730.477 1223.07,734.477 1222.5,738.5C 1221.48,741.974 1220.81,745.64 1220.5,749.5C 1216.92,767.403 1213.75,785.403 1211,803.5C 1201.25,804.486 1191.42,804.819 1181.5,804.5C 1185.01,782.809 1188.67,761.142 1192.5,739.5C 1193.77,737.095 1194.43,734.428 1194.5,731.5C 1194.51,728.455 1194.84,725.455 1195.5,722.5C 1197.14,718.79 1197.8,714.79 1197.5,710.5C 1188.5,710.5 1179.5,710.5 1170.5,710.5C 1170.5,708.833 1170.5,707.167 1170.5,705.5C 1170.21,703.265 1170.54,701.265 1171.5,699.5C 1173.18,695.455 1173.84,691.122 1173.5,686.5C 1202.15,684.508 1231.15,683.841 1260.5,684.5C 1260.5,685.5 1260.5,686.5 1260.5,687.5 Z"/></g>
<g><path style="opacity:1" fill="#db5139" d="M 714.5,685.5 C 719.294,684.903 723.627,685.57 727.5,687.5C 724.667,689.478 721.667,691.311 718.5,693C 702.466,692.915 686.466,692.081 670.5,690.5C 675.856,689.645 681.189,688.645 686.5,687.5C 695.682,686.724 705.015,686.058 714.5,685.5 Z"/></g>
<g><path style="opacity:1" fill="#e28878" d="M 780.5,685.5 C 782.153,685.66 783.486,686.326 784.5,687.5C 782.62,687.771 781.287,687.104 780.5,685.5 Z"/></g>
<g><path style="opacity:1" fill="#e18271" d="M 58.5,686.5 C 56.7078,687.309 54.7078,687.809 52.5,688C 44.8406,688.5 37.1739,688.666 29.5,688.5C 38.9795,687.302 48.6462,686.636 58.5,686.5 Z"/></g>
<g><path style="opacity:1" fill="#df7866" d="M 686.5,687.5 C 681.189,688.645 675.856,689.645 670.5,690.5C 665.786,690.827 661.12,690.493 656.5,689.5C 666.484,688.548 676.484,687.882 686.5,687.5 Z"/></g>
<g><path style="opacity:1" fill="#e07662" d="M 748.5,684.5 C 744.089,686.697 739.422,688.364 734.5,689.5C 738.664,686.666 743.331,684.999 748.5,684.5 Z"/></g>
<g><path style="opacity:1" fill="#e5b8af" d="M 26.5,688.5 C 32.7713,689.924 39.1046,690.924 45.5,691.5C 39.8236,691.666 34.1569,691.499 28.5,691C 26.9559,690.71 25.6226,690.044 24.5,689C 25.0944,688.536 25.7611,688.369 26.5,688.5 Z"/></g>
<g><path style="opacity:1" fill="#e6b3aa" d="M 1051.5,684.5 C 1052.15,685.449 1052.49,686.615 1052.5,688C 1052.61,690.221 1051.94,692.054 1050.5,693.5C 1050.7,690.482 1051.04,687.482 1051.5,684.5 Z"/></g>
<g><path style="opacity:1" fill="#e6c4bd" d="M 58.5,692.5 C 67.4978,692.881 76.4978,693.214 85.5,693.5C 76.4596,694.773 67.4596,694.439 58.5,692.5 Z"/></g>
<g><path style="opacity:1" fill="#e07966" d="M 1063.5,685.5 C 1064.02,690.939 1063.02,695.939 1060.5,700.5C 1061.34,695.351 1062.34,690.351 1063.5,685.5 Z"/></g>
<g><path style="opacity:1" fill="#df6d59" d="M 1173.5,686.5 C 1173.84,691.122 1173.18,695.455 1171.5,699.5C 1171.62,694.951 1172.29,690.618 1173.5,686.5 Z"/></g>
<g><path style="opacity:1" fill="#e8beb6" d="M 1260.5,687.5 C 1260.66,690.187 1260.5,692.854 1260,695.5C 1259.62,696.056 1259.12,696.389 1258.5,696.5C 1258.68,693.273 1259.34,690.273 1260.5,687.5 Z"/></g>
<g><path style="opacity:1" fill="#e6bfb8" d="M 301.5,689.5 C 301.435,692.428 300.768,695.095 299.5,697.5C 299.294,694.505 299.96,691.838 301.5,689.5 Z"/></g>
<g><path style="opacity:1" fill="#e08170" d="M 289.5,690.5 C 289.435,693.428 288.768,696.095 287.5,698.5C 287.294,695.505 287.96,692.838 289.5,690.5 Z"/></g>
<g><path style="opacity:1" fill="#e39d91" d="M 918.5,690.5 C 918.435,693.428 917.768,696.095 916.5,698.5C 916.294,695.505 916.96,692.838 918.5,690.5 Z"/></g>
<g><path style="opacity:1" fill="#e5b1a7" d="M 1161.5,690.5 C 1161.43,693.428 1160.77,696.095 1159.5,698.5C 1159.29,695.505 1159.96,692.838 1161.5,690.5 Z"/></g>
<g><path style="opacity:1" fill="#e5aca2" d="M 177.5,693.5 C 177.435,696.428 176.768,699.095 175.5,701.5C 175.294,698.505 175.96,695.838 177.5,693.5 Z"/></g>
<g><path style="opacity:1" fill="#e39d90" d="M 619.5,693.5 C 619.59,696.152 618.924,698.485 617.5,700.5C 617.41,697.848 618.076,695.515 619.5,693.5 Z"/></g>
<g><path style="opacity:1" fill="#e28e80" d="M 1021.5,692.5 C 1021.43,695.428 1020.77,698.095 1019.5,700.5C 1019.29,697.505 1019.96,694.838 1021.5,692.5 Z"/></g>
<g><path style="opacity:1" fill="#e4a195" d="M 379.5,698.5 C 380.906,698.973 381.573,699.973 381.5,701.5C 380.094,701.027 379.427,700.027 379.5,698.5 Z"/></g>
<g><path style="opacity:1" fill="#e18e80" d="M 520.5,694.5 C 520.435,697.428 519.768,700.095 518.5,702.5C 518.294,699.505 518.96,696.838 520.5,694.5 Z"/></g>
<g><path style="opacity:1" fill="#e6afa5" d="M 1050.5,693.5 C 1050.66,696.187 1050.5,698.854 1050,701.5C 1049.72,702.416 1049.22,703.082 1048.5,703.5C 1048.75,699.96 1049.42,696.627 1050.5,693.5 Z"/></g>
<g><path style="opacity:1" fill="#e5b8b0" d="M 444.5,696.5 C 444.435,699.428 443.768,702.095 442.5,704.5C 442.294,701.505 442.96,698.838 444.5,696.5 Z"/></g>
<g><path style="opacity:1" fill="#e6beb6" d="M 258.5,697.5 C 258.706,700.495 258.04,703.162 256.5,705.5C 256.294,702.505 256.96,699.838 258.5,697.5 Z"/></g>
<g><path style="opacity:1" fill="#e18778" d="M 711.5,705.5 C 701.013,705.082 690.346,705.082 679.5,705.5C 690.326,703.808 701.326,703.475 712.5,704.5C 712.376,705.107 712.043,705.44 711.5,705.5 Z"/></g>
<g><path style="opacity:1" fill="#da4931" d="M 67.5,704.5 C 68.5,704.5 69.5,704.5 70.5,704.5C 74.5,704.5 78.5,704.5 82.5,704.5C 82.5,706.833 82.5,709.167 82.5,711.5C 81.3784,712.156 80.0451,712.489 78.5,712.5C 62.1945,711.013 45.8612,710.013 29.5,709.5C 29.1667,708.833 28.8333,708.167 28.5,707.5C 30.5,707.5 32.5,707.5 34.5,707.5C 45.7286,707.391 56.7286,706.391 67.5,704.5 Z"/></g>
<g><path style="opacity:1" fill="#da4b34" d="M 711.5,705.5 C 710.129,707.259 709.129,709.259 708.5,711.5C 707.5,711.833 706.5,712.167 705.5,712.5C 689.854,711.185 674.187,710.185 658.5,709.5C 658.082,708.778 657.416,708.278 656.5,708C 658.382,707.802 660.048,707.302 661.5,706.5C 667.536,706.64 673.536,706.307 679.5,705.5C 690.346,705.082 701.013,705.082 711.5,705.5 Z"/></g>
<g><path style="opacity:1" fill="#df7360" d="M 67.5,704.5 C 56.7286,706.391 45.7286,707.391 34.5,707.5C 45.28,705.718 56.28,704.718 67.5,704.5 Z"/></g>
<g><path style="opacity:1" fill="#e6b8af" d="M 1258.5,700.5 C 1258.59,703.152 1257.92,705.485 1256.5,707.5C 1256.41,704.848 1257.08,702.515 1258.5,700.5 Z"/></g>
<g><path style="opacity:1" fill="#df7665" d="M 70.5,704.5 C 74.6344,703.515 78.9677,703.182 83.5,703.5C 83.8064,706.385 83.4731,709.052 82.5,711.5C 82.5,709.167 82.5,706.833 82.5,704.5C 78.5,704.5 74.5,704.5 70.5,704.5 Z"/></g>
<g><path style="opacity:1" fill="#e5b5ac" d="M 299.5,700.5 C 299.192,704.36 298.525,708.026 297.5,711.5C 297.116,707.511 297.783,703.845 299.5,700.5 Z"/></g>
<g><path style="opacity:1" fill="#e28d7d" d="M 381.5,702.5 C 383.074,704.102 383.741,706.102 383.5,708.5C 381.926,706.898 381.259,704.898 381.5,702.5 Z"/></g>
<g><path style="opacity:1" fill="#e29487" d="M 28.5,707.5 C 28.8333,708.167 29.1667,708.833 29.5,709.5C 26.6035,709.875 23.9368,709.375 21.5,708C 23.8098,707.503 26.1432,707.337 28.5,707.5 Z"/></g>
<g><path style="opacity:1" fill="#df7d6c" d="M 218.5,702.5 C 218.435,705.428 217.768,708.095 216.5,710.5C 216.294,707.505 216.96,704.838 218.5,702.5 Z"/></g>
<g><path style="opacity:1" fill="#e28c7c" d="M 661.5,706.5 C 660.048,707.302 658.382,707.802 656.5,708C 657.416,708.278 658.082,708.778 658.5,709.5C 656.076,709.808 653.743,709.474 651.5,708.5C 651.667,708.167 651.833,707.833 652,707.5C 655.057,706.549 658.223,706.216 661.5,706.5 Z"/></g>
<g><path style="opacity:1" fill="#e17b68" d="M 916.5,701.5 C 916.956,706.607 915.956,711.274 913.5,715.5C 914.133,710.64 915.133,705.973 916.5,701.5 Z"/></g>
<g><path style="opacity:1" fill="#e5aea4" d="M 1159.5,701.5 C 1159.43,704.428 1158.77,707.095 1157.5,709.5C 1157.29,706.505 1157.96,703.838 1159.5,701.5 Z"/></g>
<g><path style="opacity:1" fill="#e3a398" d="M 529.5,710.5 C 538.833,710.5 548.167,710.5 557.5,710.5C 557.678,714.122 557.011,717.456 555.5,720.5C 555.704,717.482 556.037,714.482 556.5,711.5C 547.318,711.827 538.318,711.493 529.5,710.5 Z"/></g>
<g><path style="opacity:1" fill="#e29588" d="M 1060.5,703.5 C 1060.43,706.428 1059.77,709.095 1058.5,711.5C 1058.29,708.505 1058.96,705.838 1060.5,703.5 Z"/></g>
<g><path style="opacity:1" fill="#e2988b" d="M 1170.5,705.5 C 1170.5,707.167 1170.5,708.833 1170.5,710.5C 1179.5,710.5 1188.5,710.5 1197.5,710.5C 1197.8,714.79 1197.14,718.79 1195.5,722.5C 1195.94,718.846 1196.28,715.179 1196.5,711.5C 1187.5,711.5 1178.5,711.5 1169.5,711.5C 1169.21,709.265 1169.54,707.265 1170.5,705.5 Z"/></g>
<g><path style="opacity:1" fill="#e8cbc5" d="M 350.5,713.5 C 342.876,712.602 335.209,712.269 327.5,712.5C 327.198,715.373 326.531,718.039 325.5,720.5C 325.257,717.117 325.924,713.951 327.5,711C 333.167,710.333 338.833,710.333 344.5,711C 346.852,711.24 348.852,712.073 350.5,713.5 Z"/></g>
<g><path style="opacity:1" fill="#ebf7f8" d="M 840.5,738.5 C 840.704,735.482 841.037,732.482 841.5,729.5C 841.5,728.5 841.5,727.5 841.5,726.5C 842.222,726.082 842.722,725.416 843,724.5C 843.498,721.518 843.665,718.518 843.5,715.5C 843.286,713.856 843.62,712.356 844.5,711C 852.348,709.912 860.015,710.579 867.5,713C 872.534,718.864 872.7,725.031 868,731.5C 866.127,733.709 863.96,735.542 861.5,737C 854.574,738.339 847.574,738.839 840.5,738.5 Z"/></g>
<g><path style="opacity:1" fill="#e9ccc7" d="M 964.5,712.5 C 957.833,712.5 951.167,712.5 944.5,712.5C 944.342,716.841 943.342,720.841 941.5,724.5C 941.594,719.757 942.594,715.257 944.5,711C 950.833,710.333 957.167,710.333 963.5,711C 964.056,711.383 964.389,711.883 964.5,712.5 Z"/></g>
<g><path style="opacity:1" fill="#ebf9fa" d="M 350.5,713.5 C 356.572,724.772 353.572,732.939 341.5,738C 335.175,738.5 328.842,738.666 322.5,738.5C 323.136,732.318 324.136,726.318 325.5,720.5C 326.531,718.039 327.198,715.373 327.5,712.5C 335.209,712.269 342.876,712.602 350.5,713.5 Z"/></g>
<g><path style="opacity:1" fill="#eaf9fa" d="M 964.5,712.5 C 966.679,712.84 968.512,713.84 970,715.5C 972.231,726.16 968.398,733.66 958.5,738C 952.175,738.5 945.842,738.666 939.5,738.5C 939.95,733.798 940.617,729.132 941.5,724.5C 943.342,720.841 944.342,716.841 944.5,712.5C 951.167,712.5 957.833,712.5 964.5,712.5 Z"/></g>
<g><path style="opacity:1" fill="#e0806f" d="M 286.5,707.5 C 286.435,710.428 285.768,713.095 284.5,715.5C 284.294,712.505 284.96,709.838 286.5,707.5 Z"/></g>
<g><path style="opacity:1" fill="#e8c2ba" d="M 1048.5,705.5 C 1048.95,711.245 1047.95,716.579 1045.5,721.5C 1045.87,715.924 1046.87,710.591 1048.5,705.5 Z"/></g>
<g><path style="opacity:1" fill="#e5a79b" d="M 442.5,707.5 C 442.57,711.425 441.903,715.091 440.5,718.5C 440.116,714.511 440.783,710.845 442.5,707.5 Z"/></g>
<g><path style="opacity:1" fill="#e6b7ae" d="M 256.5,708.5 C 256.192,712.36 255.525,716.026 254.5,719.5C 254.116,715.511 254.783,711.845 256.5,708.5 Z"/></g>
<g><path style="opacity:1" fill="#e4a297" d="M 815.5,709.5 C 815.435,712.428 814.768,715.095 813.5,717.5C 813.294,714.505 813.96,711.838 815.5,709.5 Z"/></g>
<g><path style="opacity:1" fill="#e39f93" d="M 998.5,702.5 C 1000.07,703.681 1000.9,705.347 1001,707.5C 1001.81,712.02 1001.65,716.354 1000.5,720.5C 1000.82,714.365 1000.16,708.365 998.5,702.5 Z"/></g>
<g><path style="opacity:1" fill="#e1897a" d="M 471.5,711.5 C 471.435,714.428 470.768,717.095 469.5,719.5C 469.294,716.505 469.96,713.838 471.5,711.5 Z"/></g>
<g><path style="opacity:1" fill="#e5b5ac" d="M 297.5,711.5 C 297.192,715.36 296.525,719.026 295.5,722.5C 295.116,718.511 295.783,714.845 297.5,711.5 Z"/></g>
<g><path style="opacity:1" fill="#e07461" d="M 1129.5,702.5 C 1129.33,708.438 1128.33,714.105 1126.5,719.5C 1126.51,713.534 1127.51,707.868 1129.5,702.5 Z"/></g>
<g><path style="opacity:1" fill="#e7bcb5" d="M 1107.5,717.5 C 1109.45,719.32 1110.45,721.654 1110.5,724.5C 1108.93,722.491 1107.93,720.157 1107.5,717.5 Z"/></g>
<g><path style="opacity:1" fill="#e1897a" d="M 94.5,722.5 C 99.3054,721.513 104.305,721.179 109.5,721.5C 109.785,724.829 109.118,727.829 107.5,730.5C 107.833,727.833 108.167,725.167 108.5,722.5C 103.833,722.5 99.1667,722.5 94.5,722.5 Z"/></g>
<g><path style="opacity:1" fill="#db4d35" d="M 94.5,722.5 C 99.1667,722.5 103.833,722.5 108.5,722.5C 108.167,725.167 107.833,727.833 107.5,730.5C 97.8386,730.042 88.172,729.709 78.5,729.5C 70.3772,728.038 62.0439,727.371 53.5,727.5C 51.6916,727.509 50.0249,727.009 48.5,726C 57.1448,725.073 65.8114,724.573 74.5,724.5C 81.4146,724.867 88.0812,724.201 94.5,722.5 Z"/></g>
<g><path style="opacity:1" fill="#e18475" d="M 714.5,710.5 C 712.868,717.044 712.201,723.711 712.5,730.5C 711.35,725.684 711.184,720.684 712,715.5C 712.757,713.685 713.59,712.019 714.5,710.5 Z"/></g>
<g><path style="opacity:1" fill="#e7bfb7" d="M 1156.5,715.5 C 1156.66,718.518 1156.5,721.518 1156,724.5C 1155.72,725.416 1155.22,726.082 1154.5,726.5C 1154.81,722.64 1155.48,718.974 1156.5,715.5 Z"/></g>
<g><path style="opacity:1" fill="#df7563" d="M 94.5,722.5 C 88.0812,724.201 81.4146,724.867 74.5,724.5C 80.9279,722.874 87.5946,722.207 94.5,722.5 Z"/></g>
<g><path style="opacity:1" fill="#db4f37" d="M 707.5,723.5 C 707.5,725.833 707.5,728.167 707.5,730.5C 701.833,730.5 696.167,730.5 690.5,730.5C 679.69,728.997 668.69,727.997 657.5,727.5C 657.389,726.883 657.056,726.383 656.5,726C 662.762,725.967 668.762,725.134 674.5,723.5C 685.657,722.334 696.657,722.334 707.5,723.5 Z"/></g>
<g><path style="opacity:1" fill="#e6b3a9" d="M 843.5,715.5 C 843.665,718.518 843.498,721.518 843,724.5C 842.722,725.416 842.222,726.082 841.5,726.5C 841.646,722.613 842.313,718.946 843.5,715.5 Z"/></g>
<g><path style="opacity:1" fill="#e18473" d="M 674.5,723.5 C 668.762,725.134 662.762,725.967 656.5,726C 657.056,726.383 657.389,726.883 657.5,727.5C 653.297,727.924 649.297,727.424 645.5,726C 655.132,724.733 664.798,723.9 674.5,723.5 Z"/></g>
<g><path style="opacity:1" fill="#e07460" d="M 913.5,718.5 C 914.036,721.698 913.369,724.365 911.5,726.5C 911.565,723.572 912.232,720.905 913.5,718.5 Z"/></g>
<g><path style="opacity:1" fill="#e6b1a7" d="M 1226.5,718.5 C 1226.43,721.428 1225.77,724.095 1224.5,726.5C 1224.29,723.505 1224.96,720.838 1226.5,718.5 Z"/></g>
<g><path style="opacity:1" fill="#e07461" d="M 1126.5,719.5 C 1126.66,722.187 1126.5,724.854 1126,727.5C 1125.16,731.718 1123.99,735.718 1122.5,739.5C 1123.01,732.539 1124.34,725.873 1126.5,719.5 Z"/></g>
<g><path style="opacity:1" fill="#e7c9c3" d="M 53.5,727.5 C 62.0439,727.371 70.3772,728.038 78.5,729.5C 69.9379,729.843 61.6046,729.176 53.5,727.5 Z"/></g>
<g><path style="opacity:1" fill="#e6beb7" d="M 113.5,721.5 C 113.192,725.36 112.525,729.026 111.5,732.5C 111.116,728.511 111.783,724.845 113.5,721.5 Z"/></g>
<g><path style="opacity:1" fill="#e3988b" d="M 900.5,710.5 C 901.164,712.81 901.497,715.31 901.5,718C 901.606,722.427 900.94,726.594 899.5,730.5C 900.212,723.857 900.546,717.191 900.5,710.5 Z"/></g>
<g><path style="opacity:1" fill="#e18c7d" d="M 469.5,722.5 C 469.037,725.482 468.704,728.482 468.5,731.5C 467.185,728.373 467.518,725.373 469.5,722.5 Z"/></g>
<g><path style="opacity:1" fill="#e7cac4" d="M 78.5,729.5 C 88.172,729.709 97.8386,730.042 107.5,730.5C 97.804,731.624 88.1373,731.29 78.5,729.5 Z"/></g>
<g><path style="opacity:1" fill="#e07c6a" d="M 214.5,724.5 C 214.552,726.903 214.219,729.236 213.5,731.5C 212.355,729.047 212.688,726.713 214.5,724.5 Z"/></g>
<g><path style="opacity:1" fill="#e5b8b1" d="M 439.5,724.5 C 439.435,727.428 438.768,730.095 437.5,732.5C 437.294,729.505 437.96,726.838 439.5,724.5 Z"/></g>
<g><path style="opacity:1" fill="#e7cac4" d="M 707.5,723.5 C 708.477,726.287 708.81,729.287 708.5,732.5C 702.331,732.082 696.331,731.415 690.5,730.5C 696.167,730.5 701.833,730.5 707.5,730.5C 707.5,728.167 707.5,725.833 707.5,723.5 Z"/></g>
<g><path style="opacity:1" fill="#e8c2bb" d="M 1045.5,722.5 C 1045.95,728.245 1044.95,733.579 1042.5,738.5C 1042.87,732.924 1043.87,727.591 1045.5,722.5 Z"/></g>
<g><path style="opacity:1" fill="#df8070" d="M 468.5,731.5 C 481.167,731.5 493.833,731.5 506.5,731.5C 506.784,733.415 506.451,735.081 505.5,736.5C 505.5,735.167 505.5,733.833 505.5,732.5C 492.989,732.829 480.655,732.495 468.5,731.5 Z"/></g>
<g><path style="opacity:1" fill="#e6b8af" d="M 999.5,728.5 C 999.655,731.716 998.655,734.383 996.5,736.5C 997.129,733.603 998.129,730.936 999.5,728.5 Z"/></g>
<g><path style="opacity:1" fill="#df705c" d="M 1015.5,723.5 C 1015.77,728.434 1015.1,733.1 1013.5,737.5C 1013.69,732.63 1014.36,727.964 1015.5,723.5 Z"/></g>
<g><path style="opacity:1" fill="#e6bab2" d="M 184.5,726.5 C 184.192,730.36 183.525,734.026 182.5,737.5C 182.116,733.511 182.783,729.845 184.5,726.5 Z"/></g>
<g><path style="opacity:1" fill="#e39a8c" d="M 427.5,728.5 C 427.889,731.553 427.223,734.22 425.5,736.5C 425.294,733.505 425.96,730.838 427.5,728.5 Z"/></g>
<g><path style="opacity:1" fill="#e39b8e" d="M 841.5,729.5 C 841.037,732.482 840.704,735.482 840.5,738.5C 839.185,735.373 839.518,732.373 841.5,729.5 Z"/></g>
<g><path style="opacity:1" fill="#e49d90" d="M 1086.5,741.5 C 1085.78,740.449 1084.78,739.782 1083.5,739.5C 1083.52,737.972 1084.18,737.472 1085.5,738C 1086.34,739.011 1086.67,740.178 1086.5,741.5 Z"/></g>
<g><path style="opacity:1" fill="#e28e7f" d="M 1194.5,731.5 C 1194.43,734.428 1193.77,737.095 1192.5,739.5C 1192.29,736.505 1192.96,733.838 1194.5,731.5 Z"/></g>
<g><path style="opacity:1" fill="#de725f" d="M 92.5,741.5 C 96.6344,740.515 100.968,740.182 105.5,740.5C 105.806,743.385 105.473,746.052 104.5,748.5C 104.5,746.167 104.5,743.833 104.5,741.5C 100.5,741.5 96.5,741.5 92.5,741.5 Z"/></g>
<g><path style="opacity:1" fill="#e9c4bd" d="M 583.5,733.5 C 584.036,736.698 583.369,739.365 581.5,741.5C 581.565,738.572 582.232,735.905 583.5,733.5 Z"/></g>
<g><path style="opacity:1" fill="#db4c34" d="M 92.5,741.5 C 96.5,741.5 100.5,741.5 104.5,741.5C 104.5,743.833 104.5,746.167 104.5,748.5C 103.081,749.451 101.415,749.784 99.5,749.5C 92.6765,748.509 85.6765,747.842 78.5,747.5C 68.8453,746.691 59.1787,746.025 49.5,745.5C 57.5283,744.765 65.5283,743.765 73.5,742.5C 79.8039,741.74 86.1373,741.407 92.5,741.5 Z"/></g>
<g><path style="opacity:1" fill="#dc533b" d="M 720.5,749.5 C 714.368,749.767 708.034,749.767 701.5,749.5C 695.87,748.708 690.203,748.375 684.5,748.5C 672.376,746.764 660.042,745.764 647.5,745.5C 652.319,744.434 657.319,743.6 662.5,743C 676.164,742.106 689.831,741.273 703.5,740.5C 705.965,740.478 708.298,740.978 710.5,742C 713.734,744.748 717.068,747.248 720.5,749.5 Z"/></g>
<g><path style="opacity:1" fill="#e5a79c" d="M 437.5,735.5 C 437.57,739.425 436.903,743.091 435.5,746.5C 435.116,742.511 435.783,738.845 437.5,735.5 Z"/></g>
<g><path style="opacity:1" fill="#e18171" d="M 73.5,742.5 C 65.5283,743.765 57.5283,744.765 49.5,745.5C 47.8008,745.66 46.1341,745.494 44.5,745C 54.073,743.328 63.7397,742.494 73.5,742.5 Z"/></g>
<g><path style="opacity:1" fill="#e6bfb8" d="M 110.5,738.5 C 109.951,744.374 108.951,750.041 107.5,755.5C 107.493,749.521 108.493,743.854 110.5,738.5 Z"/></g>
<g><path style="opacity:1" fill="#e6c0ba" d="M 292.5,739.5 C 292.435,742.428 291.768,745.095 290.5,747.5C 290.294,744.505 290.96,741.838 292.5,739.5 Z"/></g>
<g><path style="opacity:1" fill="#e7bbb3" d="M 1042.5,738.5 C 1042.66,741.518 1042.5,744.518 1042,747.5C 1041.72,748.416 1041.22,749.082 1040.5,749.5C 1040.65,745.613 1041.31,741.946 1042.5,738.5 Z"/></g>
<g><path style="opacity:1" fill="#e7c2ba" d="M 1222.5,738.5 C 1222.66,741.518 1222.5,744.518 1222,747.5C 1221.72,748.416 1221.22,749.082 1220.5,749.5C 1220.81,745.64 1221.48,741.974 1222.5,738.5 Z"/></g>
<g><path style="opacity:1" fill="#e8cac4" d="M 647.5,745.5 C 660.042,745.764 672.376,746.764 684.5,748.5C 673.828,748.185 663.161,747.685 652.5,747C 650.618,746.802 648.952,746.302 647.5,745.5 Z"/></g>
<g><path style="opacity:1" fill="#e2816e" d="M 552.5,740.5 C 552.884,744.489 552.217,748.155 550.5,751.5C 550.251,747.542 550.918,743.876 552.5,740.5 Z"/></g>
<g><path style="opacity:1" fill="#e7c3bd" d="M 78.5,747.5 C 85.6765,747.842 92.6765,748.509 99.5,749.5C 93.8236,749.666 88.1569,749.499 82.5,749C 80.9419,748.79 79.6085,748.29 78.5,747.5 Z"/></g>
<g><path style="opacity:1" fill="#e7cdc7" d="M 701.5,749.5 C 708.034,749.767 714.368,749.767 720.5,749.5C 721.043,749.56 721.376,749.893 721.5,750.5C 714.658,751.477 707.991,751.144 701.5,749.5 Z"/></g>
<g><path style="opacity:1" fill="#e7bcb4" d="M 1151.5,743.5 C 1151.88,747.489 1151.22,751.155 1149.5,754.5C 1149.81,750.64 1150.48,746.974 1151.5,743.5 Z"/></g>
<g><path style="opacity:1" fill="#e39689" d="M 581.5,744.5 C 581.706,747.495 581.04,750.162 579.5,752.5C 579.294,749.505 579.96,746.838 581.5,744.5 Z"/></g>
<g><path style="opacity:1" fill="#e28979" d="M 279.5,746.5 C 279.889,749.553 279.223,752.22 277.5,754.5C 277.294,751.505 277.96,748.838 279.5,746.5 Z"/></g>
<g><path style="opacity:1" fill="#e07460" d="M 908.5,746.5 C 909.036,749.698 908.369,752.365 906.5,754.5C 906.565,751.572 907.232,748.905 908.5,746.5 Z"/></g>
<g><path style="opacity:1" fill="#e3a599" d="M 394.5,745.5 C 394.841,749.16 394.175,752.493 392.5,755.5C 392.753,751.96 393.419,748.627 394.5,745.5 Z"/></g>
<g><path style="opacity:1" fill="#e28a7b" d="M 787.5,752.5 C 788.906,752.973 789.573,753.973 789.5,755.5C 788.094,755.027 787.427,754.027 787.5,752.5 Z"/></g>
<g><path style="opacity:1" fill="#e6c8c2" d="M 246.5,763.5 C 246.5,761.833 246.5,760.167 246.5,758.5C 233.754,758.187 221.087,758.52 208.5,759.5C 221.124,757.519 234.124,756.852 247.5,757.5C 247.795,759.735 247.461,761.735 246.5,763.5 Z"/></g>
<g><path style="opacity:1" fill="#e6c5bf" d="M 503.5,751.5 C 503.5,753.833 503.5,756.167 503.5,758.5C 490.167,758.5 476.833,758.5 463.5,758.5C 463.768,760.099 463.434,761.432 462.5,762.5C 462.5,760.833 462.5,759.167 462.5,757.5C 475.833,757.5 489.167,757.5 502.5,757.5C 502.205,755.265 502.539,753.265 503.5,751.5 Z"/></g>
<g><path style="opacity:1" fill="#e5b8b1" d="M 434.5,752.5 C 434.435,755.428 433.768,758.095 432.5,760.5C 432.294,757.505 432.96,754.838 434.5,752.5 Z"/></g>
<g><path style="opacity:1" fill="#e3a195" d="M 711.5,759.5 C 714.962,758.518 718.629,758.185 722.5,758.5C 722.737,759.791 722.404,760.791 721.5,761.5C 718.663,759.598 715.329,758.931 711.5,759.5 Z"/></g>
<g><path style="opacity:1" fill="#e17d6b" d="M 101.5,766.5 C 101.5,764.5 101.5,762.5 101.5,760.5C 93.8333,760.5 86.1667,760.5 78.5,760.5C 86.3136,759.369 94.3136,758.702 102.5,758.5C 102.806,761.385 102.473,764.052 101.5,766.5 Z"/></g>
<g><path style="opacity:1" fill="#df6f5c" d="M 1010.5,751.5 C 1010.77,756.434 1010.1,761.1 1008.5,765.5C 1008.69,760.63 1009.36,755.964 1010.5,751.5 Z"/></g>
<g><path style="opacity:1" fill="#db4c34" d="M 78.5,760.5 C 86.1667,760.5 93.8333,760.5 101.5,760.5C 101.5,762.5 101.5,764.5 101.5,766.5C 91.3374,767.23 81.0041,767.23 70.5,766.5C 66.7016,765.517 62.7016,765.183 58.5,765.5C 54.1667,764.833 49.8333,764.167 45.5,763.5C 52.0365,763.414 58.3699,762.747 64.5,761.5C 68.97,760.514 73.6367,760.181 78.5,760.5 Z"/></g>
<g><path style="opacity:1" fill="#db4e36" d="M 711.5,759.5 C 715.329,758.931 718.663,759.598 721.5,761.5C 718.714,763.113 716.047,764.946 713.5,767C 702.833,767.245 692.167,767.079 681.5,766.5C 673.975,765.001 666.309,764.668 658.5,765.5C 660.857,763.902 663.523,762.902 666.5,762.5C 681.345,761.466 696.345,760.466 711.5,759.5 Z"/></g>
<g><path style="opacity:1" fill="#e07e6e" d="M 64.5,761.5 C 58.3699,762.747 52.0365,763.414 45.5,763.5C 51.605,762.004 57.9384,761.337 64.5,761.5 Z"/></g>
<g><path style="opacity:1" fill="#e6b8af" d="M 872.5,761.5 C 870.485,762.924 868.152,763.59 865.5,763.5C 867.515,762.076 869.848,761.41 872.5,761.5 Z"/></g>
<g><path style="opacity:1" fill="#e39a8d" d="M 422.5,756.5 C 422.889,759.553 422.223,762.22 420.5,764.5C 420.294,761.505 420.96,758.838 422.5,756.5 Z"/></g>
<g><path style="opacity:1" fill="#df8273" d="M 45.5,763.5 C 49.8333,764.167 54.1667,764.833 58.5,765.5C 51.3134,765.825 44.3134,765.491 37.5,764.5C 40.1667,764.167 42.8333,763.833 45.5,763.5 Z"/></g>
<g><path style="opacity:1" fill="#e29182" d="M 360.5,761.5 C 362.258,764.854 363.258,768.521 363.5,772.5C 361.742,769.146 360.742,765.479 360.5,761.5 Z"/></g>
<g><path style="opacity:1" fill="#df7361" d="M 666.5,762.5 C 663.523,762.902 660.857,763.902 658.5,765.5C 655.941,765.802 653.607,765.468 651.5,764.5C 656.308,762.758 661.308,762.091 666.5,762.5 Z"/></g>
<g><path style="opacity:1" fill="#e6bfb7" d="M 978.5,758.5 C 978.704,761.518 979.037,764.518 979.5,767.5C 977.518,764.627 977.185,761.627 978.5,758.5 Z"/></g>
<g><path style="opacity:1" fill="#e5b0a7" d="M 1149.5,757.5 C 1149.43,760.428 1148.77,763.095 1147.5,765.5C 1147.29,762.505 1147.96,759.838 1149.5,757.5 Z"/></g>
<g><path style="opacity:1" fill="#e7cfca" d="M 37.5,764.5 C 44.3134,765.491 51.3134,765.825 58.5,765.5C 62.7016,765.183 66.7016,765.517 70.5,766.5C 58.4954,766.667 46.4954,766.5 34.5,766C 35.2438,764.961 36.2438,764.461 37.5,764.5 Z"/></g>
<g><path style="opacity:1" fill="#e7c4be" d="M 651.5,764.5 C 653.607,765.468 655.941,765.802 658.5,765.5C 666.309,764.668 673.975,765.001 681.5,766.5C 671.145,766.832 660.812,766.499 650.5,765.5C 650.624,764.893 650.957,764.56 651.5,764.5 Z"/></g>
<g><path style="opacity:1" fill="#e8c1ba" d="M 950.5,770.5 C 949.751,769.469 949.085,768.302 948.5,767C 944.179,766.501 939.846,766.334 935.5,766.5C 935.243,770.171 934.243,773.505 932.5,776.5C 932.845,772.578 933.512,768.745 934.5,765C 939.167,764.333 943.833,764.333 948.5,765C 950.155,766.444 950.822,768.278 950.5,770.5 Z"/></g>
<g><path style="opacity:1" fill="#e9c4bd" d="M 578.5,761.5 C 579.036,764.698 578.369,767.365 576.5,769.5C 576.565,766.572 577.232,763.905 578.5,761.5 Z"/></g>
<g><path style="opacity:1" fill="#e29182" d="M 462.5,762.5 C 462.889,765.553 462.223,768.22 460.5,770.5C 460.294,767.505 460.96,764.838 462.5,762.5 Z"/></g>
<g><path style="opacity:1" fill="#e5aba0" d="M 1079.5,763.5 C 1079.43,766.428 1078.77,769.095 1077.5,771.5C 1077.29,768.505 1077.96,765.838 1079.5,763.5 Z"/></g>
<g><path style="opacity:1" fill="#e39689" d="M 950.5,770.5 C 952.258,773.854 953.258,777.521 953.5,781.5C 951.742,778.146 950.742,774.479 950.5,770.5 Z"/></g>
<g><path style="opacity:1" fill="#e29081" d="M 363.5,772.5 C 365.258,775.854 366.258,779.521 366.5,783.5C 364.742,780.146 363.742,776.479 363.5,772.5 Z"/></g>
<g><path style="opacity:1" fill="#e2816e" d="M 547.5,768.5 C 547.884,772.489 547.217,776.155 545.5,779.5C 545.251,775.542 545.918,771.876 547.5,768.5 Z"/></g>
<g><path style="opacity:1" fill="#e1897a" d="M 81.5,778.5 C 87.31,777.51 93.31,777.177 99.5,777.5C 99.8016,780.059 99.4682,782.393 98.5,784.5C 98.5,782.5 98.5,780.5 98.5,778.5C 92.8333,778.5 87.1667,778.5 81.5,778.5 Z"/></g>
<g><path style="opacity:1" fill="#e5afa5" d="M 333.5,771.5 C 334.924,773.515 335.59,775.848 335.5,778.5C 334.076,776.485 333.41,774.152 333.5,771.5 Z"/></g>
<g><path style="opacity:1" fill="#e5aa9f" d="M 789.5,774.5 C 789.88,776.698 789.213,778.365 787.5,779.5C 787.796,777.597 788.463,775.93 789.5,774.5 Z"/></g>
<g><path style="opacity:1" fill="#db5039" d="M 81.5,778.5 C 87.1667,778.5 92.8333,778.5 98.5,778.5C 98.5,780.5 98.5,782.5 98.5,784.5C 98.1667,785.167 97.8333,785.833 97.5,786.5C 92.8333,786.167 88.1667,785.833 83.5,785.5C 72.8079,785.19 62.1413,784.524 51.5,783.5C 48.3586,782.679 45.0252,782.179 41.5,782C 43.0581,781.79 44.3915,781.29 45.5,780.5C 57.5259,780.232 69.5259,779.565 81.5,778.5 Z"/></g>
<g><path style="opacity:1" fill="#dc523a" d="M 681.5,786.5 C 665.711,784.379 649.711,783.046 633.5,782.5C 655.592,779.085 677.925,777.752 700.5,778.5C 695.706,784.728 689.373,787.395 681.5,786.5 Z"/></g>
<g><path style="opacity:1" fill="#e3998b" d="M 576.5,772.5 C 576.889,775.553 576.223,778.22 574.5,780.5C 574.294,777.505 574.96,774.838 576.5,772.5 Z"/></g>
<g><path style="opacity:1" fill="#e8c5be" d="M 1146.5,771.5 C 1146.66,774.518 1146.5,777.518 1146,780.5C 1145.72,781.416 1145.22,782.082 1144.5,782.5C 1144.81,778.64 1145.48,774.974 1146.5,771.5 Z"/></g>
<g><path style="opacity:1" fill="#e28777" d="M 274.5,774.5 C 274.889,777.553 274.223,780.22 272.5,782.5C 272.294,779.505 272.96,776.838 274.5,774.5 Z"/></g>
<g><path style="opacity:1" fill="#e6bcb4" d="M 45.5,780.5 C 44.3915,781.29 43.0581,781.79 41.5,782C 45.0252,782.179 48.3586,782.679 51.5,783.5C 47.1539,783.666 42.8206,783.499 38.5,783C 37.3659,781.984 37.6992,781.317 39.5,781C 41.4727,780.505 43.4727,780.338 45.5,780.5 Z"/></g>
<g><path style="opacity:1" fill="#e3a59a" d="M 389.5,773.5 C 389.841,777.16 389.175,780.493 387.5,783.5C 387.753,779.96 388.419,776.627 389.5,773.5 Z"/></g>
<g><path style="opacity:1" fill="#e5ada3" d="M 787.5,780.5 C 787.573,782.027 786.906,783.027 785.5,783.5C 785.427,781.973 786.094,780.973 787.5,780.5 Z"/></g>
<g><path style="opacity:1" fill="#e7c9c4" d="M 633.5,782.5 C 649.711,783.046 665.711,784.379 681.5,786.5C 665.29,785.915 649.29,784.582 633.5,782.5 Z"/></g>
<g><path style="opacity:1" fill="#e7b9b0" d="M 932.5,776.5 C 932.665,779.518 932.498,782.518 932,785.5C 931.722,786.416 931.222,787.082 930.5,787.5C 930.808,783.64 931.475,779.974 932.5,776.5 Z"/></g>
<g><path style="opacity:1" fill="#e39283" d="M 953.5,781.5 C 955.944,787.181 957.611,793.181 958.5,799.5C 956.056,793.819 954.389,787.819 953.5,781.5 Z"/></g>
<g><path style="opacity:1" fill="#e6b0a6" d="M 103.5,780.5 C 103.324,783.727 102.657,786.727 101.5,789.5C 101.068,786.123 101.735,783.123 103.5,780.5 Z"/></g>
<g><path style="opacity:1" fill="#e8d2cd" d="M 83.5,785.5 C 88.1667,785.833 92.8333,786.167 97.5,786.5C 95.866,787.161 94.0326,787.494 92,787.5C 88.8502,787.64 86.0169,786.973 83.5,785.5 Z"/></g>
<g><path style="opacity:1" fill="#e39385" d="M 366.5,783.5 C 368.965,789.735 370.965,796.235 372.5,803C 372.43,803.765 372.097,804.265 371.5,804.5C 369.627,797.547 367.96,790.547 366.5,783.5 Z"/></g>
<g><path style="opacity:1" fill="#e39384" d="M 459.5,779.5 C 459.889,782.553 459.223,785.22 457.5,787.5C 457.294,784.505 457.96,781.838 459.5,779.5 Z"/></g>
<g><path style="opacity:1" fill="#e8c4bd" d="M 1035.5,778.5 C 1035.17,787.131 1033.84,795.464 1031.5,803.5C 1032.27,794.967 1033.6,786.634 1035.5,778.5 Z"/></g>
<g><path style="opacity:1" fill="#df705c" d="M 1005.5,779.5 C 1005.77,784.434 1005.1,789.1 1003.5,793.5C 1003.69,788.63 1004.36,783.964 1005.5,779.5 Z"/></g>
<g><path style="opacity:1" fill="#e5afa5" d="M 336.5,782.5 C 337.924,784.515 338.59,786.848 338.5,789.5C 337.076,787.485 336.41,785.152 336.5,782.5 Z"/></g>
<g><path style="opacity:1" fill="#e39a8d" d="M 417.5,784.5 C 417.889,787.553 417.223,790.22 415.5,792.5C 415.294,789.505 415.96,786.838 417.5,784.5 Z"/></g>
<g><path style="opacity:1" fill="#e9d2ce" d="M 782.5,787.5 C 780.833,791.167 778.167,793.833 774.5,795.5C 776.833,792.5 779.5,789.833 782.5,787.5 Z"/></g>
<g><path style="opacity:1" fill="#e5b0a7" d="M 1144.5,785.5 C 1144.43,788.428 1143.77,791.095 1142.5,793.5C 1142.29,790.505 1142.96,787.838 1144.5,785.5 Z"/></g>
<g><path style="opacity:1" fill="#e39d91" d="M 831.5,786.5 C 831.435,789.428 830.768,792.095 829.5,794.5C 829.294,791.505 829.96,788.838 831.5,786.5 Z"/></g>
<g><path style="opacity:1" fill="#e5aba0" d="M 1075.5,786.5 C 1075.43,789.428 1074.77,792.095 1073.5,794.5C 1073.29,791.505 1073.96,788.838 1075.5,786.5 Z"/></g>
<g><path style="opacity:1" fill="#db4e36" d="M 80.5,804.5 C 73.6765,803.509 66.6765,802.842 59.5,802.5C 54.518,801.947 49.518,801.613 44.5,801.5C 45.9179,799.692 47.9179,799.025 50.5,799.5C 57.4146,799.867 64.0812,799.201 70.5,797.5C 78.7946,796.393 87.1279,795.727 95.5,795.5C 95.5,798.5 95.5,801.5 95.5,804.5C 90.5,804.5 85.5,804.5 80.5,804.5 Z"/></g>
<g><path style="opacity:1" fill="#dc533b" d="M 710.5,803.5 C 701.998,804.437 693.332,804.437 684.5,803.5C 669.798,803.365 655.132,802.698 640.5,801.5C 641.5,800.833 642.5,800.167 643.5,799.5C 661.143,797.946 678.81,797.113 696.5,797C 700.802,799.985 705.469,802.151 710.5,803.5 Z"/></g>
<g><path style="opacity:1" fill="#df6e5a" d="M 70.5,797.5 C 64.0812,799.201 57.4146,799.867 50.5,799.5C 50.5,799.167 50.5,798.833 50.5,798.5C 57.1477,797.861 63.8144,797.527 70.5,797.5 Z"/></g>
<g><path style="opacity:1" fill="#e17f6e" d="M 50.5,798.5 C 50.5,798.833 50.5,799.167 50.5,799.5C 47.9179,799.025 45.9179,799.692 44.5,801.5C 41.7531,801.813 39.0865,801.48 36.5,800.5C 41.0196,798.886 45.6863,798.22 50.5,798.5 Z"/></g>
<g><path style="opacity:1" fill="#e5afa5" d="M 339.5,793.5 C 340.924,795.515 341.59,797.848 341.5,800.5C 340.076,798.485 339.41,796.152 339.5,793.5 Z"/></g>
<g><path style="opacity:1" fill="#de715f" d="M 634.5,799.5 C 637.5,799.5 640.5,799.5 643.5,799.5C 642.5,800.167 641.5,800.833 640.5,801.5C 638.5,801.5 636.5,801.5 634.5,801.5C 634.5,800.833 634.5,800.167 634.5,799.5 Z"/></g>
<g><path style="opacity:1" fill="#e3a49a" d="M 634.5,799.5 C 634.5,800.167 634.5,800.833 634.5,801.5C 627.833,800.833 627.833,800.167 634.5,799.5 Z"/></g>
<g><path style="opacity:1" fill="#e7bcb4" d="M 930.5,790.5 C 930.001,794.49 929.501,798.49 929,802.5C 928.722,803.416 928.222,804.082 927.5,804.5C 927.77,799.55 928.77,794.883 930.5,790.5 Z"/></g>
<g><path style="opacity:1" fill="#e49f93" d="M 899.5,796.5 C 899.599,799.237 899.265,801.904 898.5,804.5C 897.254,801.707 897.587,799.04 899.5,796.5 Z"/></g>
<g><path style="opacity:1" fill="#e39486" d="M 958.5,799.5 C 959.537,800.93 960.204,802.597 960.5,804.5C 958.787,803.365 958.12,801.698 958.5,799.5 Z"/></g>
<g><path style="opacity:1" fill="#e7c9c3" d="M 59.5,802.5 C 66.6765,802.842 73.6765,803.509 80.5,804.5C 74.8236,804.666 69.1569,804.499 63.5,804C 61.9419,803.79 60.6085,803.29 59.5,802.5 Z"/></g>
<g><path style="opacity:1" fill="#e4a99e" d="M 240.5,801.5 C 240.5,802.5 240.5,803.5 240.5,804.5C 249.833,804.5 259.167,804.5 268.5,804.5C 259.014,805.494 249.348,805.827 239.5,805.5C 239.232,803.901 239.566,802.568 240.5,801.5 Z"/></g>
<g><path style="opacity:1" fill="#e5b8b0" d="M 684.5,803.5 C 693.332,804.437 701.998,804.437 710.5,803.5C 711.043,803.56 711.376,803.893 711.5,804.5C 702.302,805.82 693.302,805.487 684.5,803.5 Z"/></g>
<g><path style="opacity:1" fill="#e5b1a7" d="M 829.5,796.5 C 829.777,799.448 829.444,802.281 828.5,805C 818.506,805.5 808.506,805.666 798.5,805.5C 798.194,802.615 798.527,799.948 799.5,797.5C 799.5,799.833 799.5,802.167 799.5,804.5C 808.839,804.666 818.173,804.5 827.5,804C 828.123,801.393 828.79,798.893 829.5,796.5 Z"/></g>
<g><path style="opacity:1" fill="#e3a398" d="M 1043.5,798.5 C 1043.5,800.5 1043.5,802.5 1043.5,804.5C 1052.5,804.5 1061.5,804.5 1070.5,804.5C 1061.35,805.494 1052.01,805.827 1042.5,805.5C 1042.2,802.941 1042.53,800.607 1043.5,798.5 Z"/></g>
<g><path style="opacity:1" fill="#e8d1cc" d="M 728.5,805.5 C 736.495,806.79 744.495,806.79 752.5,805.5C 752.389,806.117 752.056,806.617 751.5,807C 747.667,807.167 743.833,807.333 740,807.5C 735.771,807.49 731.938,806.823 728.5,805.5 Z"/></g>
<g><path style="opacity:1" fill="#2c7ff4" d="M 512.5,870.5 C 520.836,870.394 524.336,874.394 523,882.5C 517.916,889.059 512.916,889.059 508,882.5C 507.333,879.833 507.333,877.167 508,874.5C 509.667,873.267 511.167,871.933 512.5,870.5 Z"/></g>
<g><path style="opacity:1" fill="#4594f6" d="M 502.5,875.5 C 481.473,874.845 460.806,875.512 440.5,877.5C 440.167,877.5 439.833,877.5 439.5,877.5C 439.5,876.5 439.5,875.5 439.5,874.5C 460.673,874.169 481.673,874.503 502.5,875.5 Z"/></g>
<g><path style="opacity:1" fill="#217af4" d="M 184.5,875.5 C 192.605,875.771 200.605,876.771 208.5,878.5C 217.611,882.765 223.111,889.765 225,899.5C 220.911,900.899 216.744,901.732 212.5,902C 210.317,895.985 206.317,891.818 200.5,889.5C 200.082,888.778 199.416,888.278 198.5,888C 193.98,887.186 189.646,887.353 185.5,888.5C 177.43,890.809 175.43,895.642 179.5,903C 189.187,907.232 199.187,910.899 209.5,914C 225.913,921.354 230.08,933.187 222,949.5C 211.712,959.035 199.546,962.535 185.5,960C 174.01,957.839 166.177,951.339 162,940.5C 161.11,936.668 159.944,933.001 158.5,929.5C 159.5,929.5 160.5,929.5 161.5,929.5C 165.154,929.058 168.821,928.724 172.5,928.5C 172.476,932.787 173.81,936.453 176.5,939.5C 183.208,946.675 191.541,949.175 201.5,947C 205.762,945.888 208.762,943.388 210.5,939.5C 211.629,937.372 211.796,935.039 211,932.5C 210.292,931.619 209.458,930.953 208.5,930.5C 206.422,927.949 203.756,926.116 200.5,925C 188.149,922.737 176.983,917.904 167,910.5C 159.012,891.81 164.845,880.143 184.5,875.5 Z"/></g>
<g><path style="opacity:1" fill="#4890f6" d="M 184.5,875.5 C 188.981,874.352 193.648,874.185 198.5,875C 202.245,875.302 205.578,876.469 208.5,878.5C 200.605,876.771 192.605,875.771 184.5,875.5 Z"/></g>
<g><path style="opacity:1" fill="#1b78f4" d="M 502.5,875.5 C 503.823,879.9 503.823,884.4 502.5,889C 494.841,889.5 487.174,889.666 479.5,889.5C 478.883,889.611 478.383,889.944 478,890.5C 477.5,912.831 477.333,935.164 477.5,957.5C 473.5,957.5 469.5,957.5 465.5,957.5C 465.831,934.661 465.497,911.994 464.5,889.5C 456.684,888.508 448.684,888.174 440.5,888.5C 440.5,884.833 440.5,881.167 440.5,877.5C 460.806,875.512 481.473,874.845 502.5,875.5 Z"/></g>
<g><path style="opacity:1" fill="#1d79f4" d="M 878.5,958.5 C 878.5,941.833 878.5,925.167 878.5,908.5C 876.821,908.285 875.821,908.952 875.5,910.5C 875.5,910.833 875.5,911.167 875.5,911.5C 868.152,926.54 860.985,941.874 854,957.5C 852.333,958.833 850.667,958.833 849,957.5C 842.91,942.329 836.077,927.663 828.5,913.5C 828.634,911.708 828.301,910.042 827.5,908.5C 826.791,907.596 825.791,907.263 824.5,907.5C 824.5,924.5 824.5,941.5 824.5,958.5C 820.5,958.5 816.5,958.5 812.5,958.5C 812.5,931.5 812.5,904.5 812.5,877.5C 817.5,877.5 822.5,877.5 827.5,877.5C 834.277,891.646 840.777,905.979 847,920.5C 848.015,923.21 849.515,925.543 851.5,927.5C 859.928,911.143 867.761,894.477 875,877.5C 880.779,876.193 886.612,876.193 892.5,877.5C 891.509,904.456 891.176,931.456 891.5,958.5C 887.167,958.5 882.833,958.5 878.5,958.5 Z"/></g>
<g><path style="opacity:1" fill="#b0d6fb" d="M 185.5,888.5 C 189.646,887.353 193.98,887.186 198.5,888C 199.416,888.278 200.082,888.778 200.5,889.5C 195.537,888.746 190.537,888.413 185.5,888.5 Z"/></g>
<g><path style="opacity:1" fill="#66a7f7" d="M 439.5,877.5 C 439.833,877.5 440.167,877.5 440.5,877.5C 440.5,881.167 440.5,884.833 440.5,888.5C 448.684,888.174 456.684,888.508 464.5,889.5C 456.5,889.5 448.5,889.5 440.5,889.5C 439.517,885.702 439.183,881.702 439.5,877.5 Z"/></g>
<g><path style="opacity:1" fill="#5c9cf7" d="M 464.5,889.5 C 465.497,911.994 465.831,934.661 465.5,957.5C 469.5,957.5 473.5,957.5 477.5,957.5C 477.333,935.164 477.5,912.831 478,890.5C 478.383,889.944 478.883,889.611 479.5,889.5C 479.5,912.5 479.5,935.5 479.5,958.5C 474.305,958.821 469.305,958.487 464.5,957.5C 464.5,934.833 464.5,912.167 464.5,889.5 Z"/></g>
<g><path style="opacity:1" fill="#cae8fd" d="M 440.5,889.5 C 448.5,889.5 456.5,889.5 464.5,889.5C 464.5,912.167 464.5,934.833 464.5,957.5C 463.503,935.34 463.169,913.006 463.5,890.5C 455.648,890.825 447.982,890.492 440.5,889.5 Z"/></g>
<g><path style="opacity:1" fill="#3b8ef5" d="M 826.5,876.5 C 827.167,876.5 827.5,876.833 827.5,877.5C 822.5,877.5 817.5,877.5 812.5,877.5C 812.5,904.5 812.5,931.5 812.5,958.5C 811.833,958.5 811.5,958.167 811.5,957.5C 811.5,930.5 811.5,903.5 811.5,876.5C 816.5,876.5 821.5,876.5 826.5,876.5 Z"/></g>
<g><path style="opacity:1" fill="#a3cffb" d="M 826.5,876.5 C 821.5,876.5 816.5,876.5 811.5,876.5C 811.5,903.5 811.5,930.5 811.5,957.5C 810.502,930.338 810.169,903.005 810.5,875.5C 816.026,875.179 821.36,875.512 826.5,876.5 Z"/></g>
<g><path style="opacity:1" fill="#65a5f7" d="M 376.5,895.5 C 378.473,894.837 380.639,894.504 383,894.5C 386.782,894.379 390.282,895.046 393.5,896.5C 387.848,895.968 382.181,895.635 376.5,895.5 Z"/></g>
<g><path style="opacity:1" fill="#66a6f7" d="M 663.5,895.5 C 657.797,895.375 652.13,895.708 646.5,896.5C 649.526,894.981 652.859,894.315 656.5,894.5C 659.025,894.503 661.359,894.837 663.5,895.5 Z"/></g>
<g><path style="opacity:1" fill="#4f98f6" d="M 938.5,895.5 C 933.13,895.392 927.797,895.725 922.5,896.5C 925.356,894.994 928.523,894.328 932,894.5C 934.361,894.504 936.527,894.837 938.5,895.5 Z"/></g>
<g><path style="opacity:1" fill="#217af4" d="M 376.5,895.5 C 382.181,895.635 387.848,895.968 393.5,896.5C 402.963,899.628 408.963,905.961 411.5,915.5C 411.646,919.387 412.313,923.054 413.5,926.5C 413.5,927.833 413.5,929.167 413.5,930.5C 399.323,930.171 385.323,930.504 371.5,931.5C 368.045,932.128 366.878,934.128 368,937.5C 373.514,947.101 381.681,950.268 392.5,947C 395.671,944.659 398.671,942.159 401.5,939.5C 404.291,940.73 406.958,942.23 409.5,944C 410.517,945.049 410.684,946.216 410,947.5C 400.853,957.876 389.353,962.042 375.5,960C 366.436,957.101 360.102,951.268 356.5,942.5C 355.669,939.341 354.669,936.341 353.5,933.5C 352.07,920.283 356.07,909.116 365.5,900C 368.961,897.934 372.627,896.434 376.5,895.5 Z"/></g>
<g><path style="opacity:1" fill="#217bf4" d="M 663.5,895.5 C 673.966,897.965 680.966,904.298 684.5,914.5C 684.565,917.428 685.232,920.095 686.5,922.5C 686.5,923.167 686.5,923.833 686.5,924.5C 686.5,926.5 686.5,928.5 686.5,930.5C 672.323,930.171 658.323,930.504 644.5,931.5C 642.973,931.427 641.973,932.094 641.5,933.5C 639.652,937.351 640.652,940.351 644.5,942.5C 646.296,943.793 647.963,945.293 649.5,947C 654.5,947.667 659.5,947.667 664.5,947C 668.313,944.841 671.813,942.341 675,939.5C 677.818,940.91 680.485,942.577 683,944.5C 683.667,945.5 683.667,946.5 683,947.5C 670.043,961.451 655.21,963.951 638.5,955C 634.952,952.025 632.286,948.525 630.5,944.5C 629.871,941.603 628.871,938.936 627.5,936.5C 624.459,922.923 627.792,911.09 637.5,901C 640.243,898.962 643.243,897.462 646.5,896.5C 652.13,895.708 657.797,895.375 663.5,895.5 Z"/></g>
<g><path style="opacity:1" fill="#207af4" d="M 938.5,895.5 C 950.968,898.802 958.468,906.802 961,919.5C 963.806,936.041 958.306,948.874 944.5,958C 925.713,964.356 912.213,958.523 904,940.5C 903.505,938.527 903.338,936.527 903.5,934.5C 903.347,928.131 903.68,921.797 904.5,915.5C 907.234,906.121 913.234,899.788 922.5,896.5C 927.797,895.725 933.13,895.392 938.5,895.5 Z"/></g>
<g><path style="opacity:1" fill="#217bf4" d="M 283.5,908.5 C 284.61,912.406 285.443,916.406 286,920.5C 286.5,933.162 286.667,945.829 286.5,958.5C 282.5,958.5 278.5,958.5 274.5,958.5C 274.665,955.482 274.498,952.482 274,949.5C 264.586,960.312 253.42,962.812 240.5,957C 236.378,953.772 234.045,949.606 233.5,944.5C 233.294,940.102 233.627,935.768 234.5,931.5C 237.079,928.865 240.079,926.699 243.5,925C 253.146,922.874 262.646,920.374 272,917.5C 272.746,914.211 271.58,911.711 268.5,910C 264.514,907.335 260.181,906.335 255.5,907C 252.295,908.895 249.128,910.728 246,912.5C 234.981,910.791 233.814,906.624 242.5,900C 256.198,891.912 269.031,893.079 281,903.5C 282.094,905.078 282.928,906.745 283.5,908.5 Z"/></g>
<g><path style="opacity:1" fill="#4694f6" d="M 306.5,898.5 C 304.254,897.893 301.921,897.56 299.5,897.5C 297.048,897.539 295.048,898.206 293.5,899.5C 292.596,898.791 292.263,897.791 292.5,896.5C 297.619,895.897 302.285,896.564 306.5,898.5 Z"/></g>
<g><path style="opacity:1" fill="#5299f6" d="M 350.5,899.5 C 348.777,898.2 346.61,897.533 344,897.5C 341.413,897.555 338.913,897.889 336.5,898.5C 341.056,896.558 346.056,895.892 351.5,896.5C 351.737,897.791 351.404,898.791 350.5,899.5 Z"/></g>
<g><path style="opacity:1" fill="#5297f6" d="M 566.5,895.5 C 561.681,895.352 557.015,896.018 552.5,897.5C 556.886,894.569 561.552,893.903 566.5,895.5 Z"/></g>
<g><path style="opacity:1" fill="#227bf4" d="M 616.5,908.5 C 617.441,925.139 617.775,941.805 617.5,958.5C 613.167,958.5 608.833,958.5 604.5,958.5C 604.667,943.163 604.5,927.83 604,912.5C 597.58,904.606 591.246,904.606 585,912.5C 584.667,927.5 584.333,942.5 584,957.5C 579.263,958.469 574.43,958.803 569.5,958.5C 569.667,942.83 569.5,927.163 569,911.5C 563.674,905.385 558.174,905.052 552.5,910.5C 550.025,911.687 549.025,913.687 549.5,916.5C 548.504,929.99 548.171,943.656 548.5,957.5C 544.5,957.5 540.5,957.5 536.5,957.5C 536.5,937.5 536.5,917.5 536.5,897.5C 539.167,897.5 541.833,897.5 544.5,897.5C 547.197,898.63 549.863,898.63 552.5,897.5C 557.015,896.018 561.681,895.352 566.5,895.5C 569.016,895.755 571.35,896.589 573.5,898C 575.054,899.892 576.888,901.392 579,902.5C 591.607,891.38 603.607,892.047 615,904.5C 615.791,905.745 616.291,907.078 616.5,908.5 Z"/></g>
<g><path style="opacity:1" fill="#217af4" d="M 1023.5,916.5 C 1023.83,930.344 1023.5,944.01 1022.5,957.5C 1018.5,957.5 1014.5,957.5 1010.5,957.5C 1010.83,944.656 1010.5,931.989 1009.5,919.5C 1009.83,916.772 1009.16,914.438 1007.5,912.5C 1005.81,909.318 1003.14,907.652 999.5,907.5C 996.988,906.133 994.655,906.466 992.5,908.5C 989.448,909.88 987.282,912.214 986,915.5C 985.831,929.673 985.331,943.673 984.5,957.5C 980.5,957.5 976.5,957.5 972.5,957.5C 972.5,937.5 972.5,917.5 972.5,897.5C 975.833,897.5 979.167,897.5 982.5,897.5C 983.165,899.369 983.831,901.369 984.5,903.5C 986.511,900.323 989.178,897.823 992.5,896C 1010.24,891.936 1020.57,898.769 1023.5,916.5 Z"/></g>
<g><path style="opacity:1" fill="#5398f6" d="M 1066.5,895.5 C 1060.71,895.312 1055.05,895.978 1049.5,897.5C 1050.84,896.207 1052.51,895.374 1054.5,895C 1058.69,894.188 1062.69,894.355 1066.5,895.5 Z"/></g>
<g><path style="opacity:1" fill="#227bf4" d="M 1066.5,895.5 C 1080.71,898.383 1088.71,907.049 1090.5,921.5C 1091.05,924.807 1091.38,928.14 1091.5,931.5C 1076.83,931.333 1062.16,931.5 1047.5,932C 1046.94,932.383 1046.61,932.883 1046.5,933.5C 1045.29,935.435 1045.46,937.435 1047,939.5C 1049.18,942.376 1051.68,944.876 1054.5,947C 1061.05,948.081 1067.39,947.414 1073.5,945C 1075.2,942.69 1077.2,940.857 1079.5,939.5C 1083.19,940.69 1086.19,942.857 1088.5,946C 1080.46,957.437 1069.46,962.104 1055.5,960C 1051.98,959.605 1048.65,958.605 1045.5,957C 1038.24,951.975 1033.91,945.142 1032.5,936.5C 1032.06,928.353 1032.73,920.353 1034.5,912.5C 1037.13,905.202 1042.13,900.202 1049.5,897.5C 1055.05,895.978 1060.71,895.312 1066.5,895.5 Z"/></g>
<g><path style="opacity:1" fill="#4792f5" d="M 1104.5,897.5 C 1100.83,897.5 1097.17,897.5 1093.5,897.5C 1093.5,898.833 1093.5,900.167 1093.5,901.5C 1092.55,900.081 1092.22,898.415 1092.5,896.5C 1096.7,896.183 1100.7,896.517 1104.5,897.5 Z"/></g>
<g><path style="opacity:1" fill="#4c96f6" d="M 1146.5,899.5 C 1142.97,897.577 1138.97,896.911 1134.5,897.5C 1134.41,899.786 1133.74,901.786 1132.5,903.5C 1132.32,901.409 1132.65,899.409 1133.5,897.5C 1138.12,896.507 1142.79,896.173 1147.5,896.5C 1147.74,897.791 1147.4,898.791 1146.5,899.5 Z"/></g>
<g><path style="opacity:1" fill="#1f7af4" d="M 306.5,898.5 C 306.166,901.491 307.166,903.824 309.5,905.5C 310.363,907.421 311.029,909.421 311.5,911.5C 311.399,917.766 313.399,923.099 317.5,927.5C 317.5,927.833 317.5,928.167 317.5,928.5C 317.737,931.647 318.57,934.647 320,937.5C 321.756,938.985 322.923,938.652 323.5,936.5C 327.438,923.684 331.772,911.018 336.5,898.5C 338.913,897.889 341.413,897.555 344,897.5C 346.61,897.533 348.777,898.2 350.5,899.5C 343.638,918.892 336.472,938.225 329,957.5C 324.252,958.635 319.419,958.802 314.5,958C 313.107,953.313 311.441,948.813 309.5,944.5C 308.733,940.851 307.4,937.518 305.5,934.5C 305.5,934.167 305.5,933.833 305.5,933.5C 304.733,929.851 303.4,926.518 301.5,923.5C 299.035,915.438 296.368,907.438 293.5,899.5C 295.048,898.206 297.048,897.539 299.5,897.5C 301.921,897.56 304.254,897.893 306.5,898.5 Z"/></g>
<g><path style="opacity:1" fill="#1e79f4" d="M 1104.5,897.5 C 1108.31,904.132 1111.31,911.132 1113.5,918.5C 1113.59,920.786 1114.26,922.786 1115.5,924.5C 1117.1,929.06 1118.76,933.727 1120.5,938.5C 1121.18,937.757 1121.85,937.091 1122.5,936.5C 1124.26,933.146 1125.26,929.479 1125.5,925.5C 1125.33,924.508 1125.66,923.842 1126.5,923.5C 1128.02,920.417 1129.02,917.084 1129.5,913.5C 1130.77,911.095 1131.43,908.428 1131.5,905.5C 1131.33,904.508 1131.66,903.842 1132.5,903.5C 1133.74,901.786 1134.41,899.786 1134.5,897.5C 1138.97,896.911 1142.97,897.577 1146.5,899.5C 1146.5,900.167 1146.5,900.833 1146.5,901.5C 1144.96,903.838 1144.29,906.505 1144.5,909.5C 1143.66,909.842 1143.33,910.508 1143.5,911.5C 1136.93,930.563 1130.93,949.896 1125.5,969.5C 1121.31,976.191 1115.64,981.358 1108.5,985C 1106.87,985.494 1105.2,985.66 1103.5,985.5C 1101.83,985.5 1100.17,985.5 1098.5,985.5C 1098.5,981.833 1098.5,978.167 1098.5,974.5C 1100.74,974.795 1102.74,974.461 1104.5,973.5C 1109.99,970.545 1112.99,965.878 1113.5,959.5C 1111.31,953.594 1109.31,947.594 1107.5,941.5C 1107.69,938.189 1106.69,935.522 1104.5,933.5C 1102.97,929.567 1101.63,925.567 1100.5,921.5C 1100.3,917.22 1098.97,913.553 1096.5,910.5C 1095.3,907.579 1094.3,904.579 1093.5,901.5C 1093.5,900.167 1093.5,898.833 1093.5,897.5C 1097.17,897.5 1100.83,897.5 1104.5,897.5 Z"/></g>
<g><path style="opacity:1" fill="#529cf6" d="M 521.5,958.5 C 521.5,938.167 521.5,917.833 521.5,897.5C 517.5,897.5 513.5,897.5 509.5,897.5C 509.5,917.833 509.5,938.167 509.5,958.5C 508.503,938.007 508.169,917.34 508.5,896.5C 513.167,896.5 517.833,896.5 522.5,896.5C 522.831,917.34 522.497,938.007 521.5,958.5 Z"/></g>
<g><path style="opacity:1" fill="#1878f4" d="M 521.5,958.5 C 517.5,958.5 513.5,958.5 509.5,958.5C 509.5,938.167 509.5,917.833 509.5,897.5C 513.5,897.5 517.5,897.5 521.5,897.5C 521.5,917.833 521.5,938.167 521.5,958.5 Z"/></g>
<g><path style="opacity:1" fill="#5ca2f7" d="M 752.5,897.5 C 748.5,897.5 744.5,897.5 740.5,897.5C 740.823,904.022 740.49,910.355 739.5,916.5C 739.5,909.833 739.5,903.167 739.5,896.5C 744.032,896.182 748.366,896.515 752.5,897.5 Z"/></g>
<g><path style="opacity:1" fill="#1d79f4" d="M 752.5,897.5 C 753.167,903.833 753.833,910.167 754.5,916.5C 760.645,917.49 766.978,917.823 773.5,917.5C 773.5,921.833 773.5,926.167 773.5,930.5C 766.978,930.177 760.645,930.51 754.5,931.5C 753.51,937.645 753.177,943.978 753.5,950.5C 748.833,951.833 744.167,951.833 739.5,950.5C 739.823,943.978 739.49,937.645 738.5,931.5C 732.355,930.51 726.022,930.177 719.5,930.5C 719.5,926.167 719.5,921.833 719.5,917.5C 726.354,917.824 733.021,917.491 739.5,916.5C 740.49,910.355 740.823,904.022 740.5,897.5C 744.5,897.5 748.5,897.5 752.5,897.5 Z"/></g>
<g><path style="opacity:1" fill="#388bf5" d="M 982.5,897.5 C 979.167,897.5 975.833,897.5 972.5,897.5C 972.5,917.5 972.5,937.5 972.5,957.5C 976.5,957.5 980.5,957.5 984.5,957.5C 980.366,958.485 976.032,958.818 971.5,958.5C 971.5,937.833 971.5,917.167 971.5,896.5C 975.371,896.185 979.038,896.518 982.5,897.5 Z"/></g>
<g><path style="opacity:1" fill="#4594f6" d="M 544.5,897.5 C 541.833,897.5 539.167,897.5 536.5,897.5C 536.5,917.5 536.5,937.5 536.5,957.5C 540.5,957.5 544.5,957.5 548.5,957.5C 548.171,943.656 548.504,929.99 549.5,916.5C 549.5,930.5 549.5,944.5 549.5,958.5C 544.833,958.5 540.167,958.5 535.5,958.5C 535.5,937.833 535.5,917.167 535.5,896.5C 538.713,896.19 541.713,896.523 544.5,897.5 Z"/></g>
<g><path style="opacity:1" fill="#65a3f7" d="M 306.5,898.5 C 308.065,900.509 309.065,902.843 309.5,905.5C 307.166,903.824 306.166,901.491 306.5,898.5 Z"/></g>
<g><path style="opacity:1" fill="#a5cffb" d="M 1146.5,901.5 C 1146.43,904.428 1145.77,907.095 1144.5,909.5C 1144.29,906.505 1144.96,903.838 1146.5,901.5 Z"/></g>
<g><path style="opacity:1" fill="#aed3fb" d="M 999.5,907.5 C 997.236,908.219 994.903,908.552 992.5,908.5C 994.655,906.466 996.988,906.133 999.5,907.5 Z"/></g>
<g><path style="opacity:1" fill="#e4f8fe" d="M 397.5,915.5 C 397.5,916.833 397.5,918.167 397.5,919.5C 388.167,919.5 378.833,919.5 369.5,919.5C 369.5,918.167 369.5,916.833 369.5,915.5C 372.317,909.754 376.984,907.087 383.5,907.5C 387.16,907.241 390.493,908.075 393.5,910C 395.464,911.451 396.797,913.284 397.5,915.5 Z"/></g>
<g><path style="opacity:1" fill="#e5f9fe" d="M 670.5,914.5 C 670.5,916.167 670.5,917.833 670.5,919.5C 661.167,919.5 651.833,919.5 642.5,919.5C 642.5,918.5 642.5,917.5 642.5,916.5C 643.524,912.638 645.857,909.805 649.5,908C 653.833,907.333 658.167,907.333 662.5,908C 665.936,909.274 668.603,911.441 670.5,914.5 Z"/></g>
<g><path style="opacity:1" fill="#e6fafe" d="M 946.5,934.5 C 944.646,943.676 938.979,948.009 929.5,947.5C 923.551,946.218 919.884,942.551 918.5,936.5C 917.336,930.528 917.17,924.528 918,918.5C 921.796,907.854 928.962,904.687 939.5,909C 941.333,910.833 943.167,912.667 945,914.5C 946.329,921.092 946.829,927.759 946.5,934.5 Z"/></g>
<g><path style="opacity:1" fill="#e4f8fe" d="M 1075.5,915.5 C 1075.5,916.833 1075.5,918.167 1075.5,919.5C 1066.17,919.5 1056.83,919.5 1047.5,919.5C 1047.5,918.167 1047.5,916.833 1047.5,915.5C 1050.21,909.892 1054.71,907.225 1061,907.5C 1067.71,906.937 1072.55,909.603 1075.5,915.5 Z"/></g>
<g><path style="opacity:1" fill="#66a4f7" d="M 1131.5,905.5 C 1131.43,908.428 1130.77,911.095 1129.5,913.5C 1129.29,910.505 1129.96,907.838 1131.5,905.5 Z"/></g>
<g><path style="opacity:1" fill="#4694f6" d="M 827.5,908.5 C 825.515,924.466 824.848,940.799 825.5,957.5C 825.5,958.167 825.167,958.5 824.5,958.5C 824.5,941.5 824.5,924.5 824.5,907.5C 825.791,907.263 826.791,907.596 827.5,908.5 Z"/></g>
<g><path style="opacity:1" fill="#afd7fb" d="M 827.5,908.5 C 828.301,910.042 828.634,911.708 828.5,913.5C 827.732,912.737 827.232,911.737 827,910.5C 826.831,926.339 826.331,942.005 825.5,957.5C 824.848,940.799 825.515,924.466 827.5,908.5 Z"/></g>
<g><path style="opacity:1" fill="#4f9af7" d="M 878.5,958.5 C 878.167,958.5 877.833,958.5 877.5,958.5C 877.667,942.163 877.5,925.83 877,909.5C 876.617,910.056 876.117,910.389 875.5,910.5C 875.821,908.952 876.821,908.285 878.5,908.5C 878.5,925.167 878.5,941.833 878.5,958.5 Z"/></g>
<g><path style="opacity:1" fill="#bbdefc" d="M 877.5,958.5 C 876.833,942.833 876.167,927.167 875.5,911.5C 875.5,911.167 875.5,910.833 875.5,910.5C 876.117,910.389 876.617,910.056 877,909.5C 877.5,925.83 877.667,942.163 877.5,958.5 Z"/></g>
<g><path style="opacity:1" fill="#65a2f7" d="M 1096.5,910.5 C 1098.97,913.553 1100.3,917.22 1100.5,921.5C 1098.42,918.199 1097.08,914.532 1096.5,910.5 Z"/></g>
<g><path style="opacity:1" fill="#a0cbfa" d="M 1143.5,911.5 C 1138.48,931.226 1132.48,950.559 1125.5,969.5C 1130.93,949.896 1136.93,930.563 1143.5,911.5 Z"/></g>
<g><path style="opacity:1" fill="#4190f6" d="M 754.5,916.5 C 761.167,916.5 767.833,916.5 774.5,916.5C 774.5,921.5 774.5,926.5 774.5,931.5C 767.833,931.5 761.167,931.5 754.5,931.5C 760.645,930.51 766.978,930.177 773.5,930.5C 773.5,926.167 773.5,921.833 773.5,917.5C 766.978,917.823 760.645,917.49 754.5,916.5 Z"/></g>
<g><path style="opacity:1" fill="#5fa3f7" d="M 616.5,908.5 C 617.222,908.918 617.722,909.584 618,910.5C 618.828,926.672 618.661,942.672 617.5,958.5C 617.775,941.805 617.441,925.139 616.5,908.5 Z"/></g>
<g><path style="opacity:1" fill="#5e9ff7" d="M 1129.5,913.5 C 1129.02,917.084 1128.02,920.417 1126.5,923.5C 1126.32,919.714 1127.32,916.381 1129.5,913.5 Z"/></g>
<g><path style="opacity:1" fill="#a2cefb" d="M 369.5,915.5 C 369.5,916.833 369.5,918.167 369.5,919.5C 378.833,919.5 388.167,919.5 397.5,919.5C 397.5,918.167 397.5,916.833 397.5,915.5C 398.451,916.919 398.784,918.585 398.5,920.5C 388.5,920.5 378.5,920.5 368.5,920.5C 368.216,918.585 368.549,916.919 369.5,915.5 Z"/></g>
<g><path style="opacity:1" fill="#a8d2fb" d="M 670.5,914.5 C 671.461,916.265 671.795,918.265 671.5,920.5C 661.5,920.5 651.5,920.5 641.5,920.5C 641.232,918.901 641.566,917.568 642.5,916.5C 642.5,917.5 642.5,918.5 642.5,919.5C 651.833,919.5 661.167,919.5 670.5,919.5C 670.5,917.833 670.5,916.167 670.5,914.5 Z"/></g>
<g><path style="opacity:1" fill="#b5dafc" d="M 1047.5,915.5 C 1047.5,916.833 1047.5,918.167 1047.5,919.5C 1056.83,919.5 1066.17,919.5 1075.5,919.5C 1075.5,918.167 1075.5,916.833 1075.5,915.5C 1076.45,916.919 1076.78,918.585 1076.5,920.5C 1066.5,920.5 1056.5,920.5 1046.5,920.5C 1046.22,918.585 1046.55,916.919 1047.5,915.5 Z"/></g>
<g><path style="opacity:1" fill="#609ef7" d="M 311.5,911.5 C 314.013,916.547 316.013,921.88 317.5,927.5C 313.399,923.099 311.399,917.766 311.5,911.5 Z"/></g>
<g><path style="opacity:1" fill="#509af6" d="M 739.5,916.5 C 733.021,917.491 726.354,917.824 719.5,917.5C 719.5,921.833 719.5,926.167 719.5,930.5C 726.022,930.177 732.355,930.51 738.5,931.5C 731.833,931.5 725.167,931.5 718.5,931.5C 718.5,926.5 718.5,921.5 718.5,916.5C 725.5,916.5 732.5,916.5 739.5,916.5 Z"/></g>
<g><path style="opacity:1" fill="#a1cbfb" d="M 1113.5,918.5 C 1115.28,919.99 1115.95,921.99 1115.5,924.5C 1114.26,922.786 1113.59,920.786 1113.5,918.5 Z"/></g>
<g><path style="opacity:1" fill="#79b2f8" d="M 411.5,915.5 C 413.217,918.845 413.884,922.511 413.5,926.5C 412.313,923.054 411.646,919.387 411.5,915.5 Z"/></g>
<g><path style="opacity:1" fill="#80b8f9" d="M 684.5,914.5 C 686.04,916.838 686.706,919.505 686.5,922.5C 685.232,920.095 684.565,917.428 684.5,914.5 Z"/></g>
<g><path style="opacity:1" fill="#9dcbfa" d="M 1007.5,912.5 C 1009.16,914.438 1009.83,916.772 1009.5,919.5C 1009.5,932.167 1009.5,944.833 1009.5,957.5C 1008.77,942.648 1008.1,927.648 1007.5,912.5 Z"/></g>
<g><path style="opacity:1" fill="#3a8df5" d="M 1009.5,919.5 C 1010.5,931.989 1010.83,944.656 1010.5,957.5C 1014.5,957.5 1018.5,957.5 1022.5,957.5C 1022.5,957.833 1022.5,958.167 1022.5,958.5C 1017.97,958.818 1013.63,958.485 1009.5,957.5C 1009.5,944.833 1009.5,932.167 1009.5,919.5 Z"/></g>
<g><path style="opacity:1" fill="#4d95f6" d="M 904.5,915.5 C 903.68,921.797 903.347,928.131 903.5,934.5C 902.348,929.015 902.182,923.349 903,917.5C 903.278,916.584 903.778,915.918 904.5,915.5 Z"/></g>
<g><path style="opacity:1" fill="#a7cffb" d="M 301.5,923.5 C 303.4,926.518 304.733,929.851 305.5,933.5C 303.103,930.691 301.77,927.358 301.5,923.5 Z"/></g>
<g><path style="opacity:1" fill="#4991f6" d="M 176.5,939.5 C 173.81,936.453 172.476,932.787 172.5,928.5C 168.821,928.724 165.154,929.058 161.5,929.5C 164.856,927.579 168.523,926.746 172.5,927C 174.201,930.976 175.534,935.143 176.5,939.5 Z"/></g>
<g><path style="opacity:1" fill="#6ba7f8" d="M 1125.5,925.5 C 1125.26,929.479 1124.26,933.146 1122.5,936.5C 1122.52,932.466 1123.52,928.799 1125.5,925.5 Z"/></g>
<g><path style="opacity:1" fill="#62a5f8" d="M 283.5,908.5 C 285.531,911.422 286.698,914.755 287,918.5C 287.827,932.006 287.66,945.34 286.5,958.5C 286.667,945.829 286.5,933.162 286,920.5C 285.443,916.406 284.61,912.406 283.5,908.5 Z"/></g>
<g><path style="opacity:1" fill="#539af6" d="M 1034.5,912.5 C 1032.73,920.353 1032.06,928.353 1032.5,936.5C 1031.35,930.347 1031.18,924.014 1032,917.5C 1032.37,915.509 1033.21,913.842 1034.5,912.5 Z"/></g>
<g><path style="opacity:1" fill="#4b96f6" d="M 413.5,926.5 C 414.451,927.919 414.784,929.585 414.5,931.5C 400.167,931.5 385.833,931.5 371.5,931.5C 385.323,930.504 399.323,930.171 413.5,930.5C 413.5,929.167 413.5,927.833 413.5,926.5 Z"/></g>
<g><path style="opacity:1" fill="#4d97f6" d="M 686.5,924.5 C 687.468,926.607 687.802,928.941 687.5,931.5C 673.167,931.5 658.833,931.5 644.5,931.5C 658.323,930.504 672.323,930.171 686.5,930.5C 686.5,928.5 686.5,926.5 686.5,924.5 Z"/></g>
<g><path style="opacity:1" fill="#61a1f7" d="M 317.5,928.5 C 319.129,930.858 320.295,933.524 321,936.5C 321.77,937.598 322.603,937.598 323.5,936.5C 322.923,938.652 321.756,938.985 320,937.5C 318.57,934.647 317.737,931.647 317.5,928.5 Z"/></g>
<g><path style="opacity:1" fill="#b6dbfc" d="M 552.5,910.5 C 552.539,911.756 552.039,912.756 551,913.5C 550.831,928.672 550.331,943.672 549.5,958.5C 549.5,944.5 549.5,930.5 549.5,916.5C 549.025,913.687 550.025,911.687 552.5,910.5 Z"/></g>
<g><path style="opacity:1" fill="#bee0fc" d="M 774.5,916.5 C 775.488,921.64 775.821,926.974 775.5,932.5C 768.5,932.5 761.5,932.5 754.5,932.5C 754.823,938.69 754.49,944.69 753.5,950.5C 753.177,943.978 753.51,937.645 754.5,931.5C 761.167,931.5 767.833,931.5 774.5,931.5C 774.5,926.5 774.5,921.5 774.5,916.5 Z"/></g>
<g><path style="opacity:1" fill="#c8e7fd" d="M 1090.5,921.5 C 1091.22,921.918 1091.72,922.584 1092,923.5C 1092.5,926.482 1092.66,929.482 1092.5,932.5C 1077.12,932.198 1061.79,932.531 1046.5,933.5C 1046.61,932.883 1046.94,932.383 1047.5,932C 1062.16,931.5 1076.83,931.333 1091.5,931.5C 1091.38,928.14 1091.05,924.807 1090.5,921.5 Z"/></g>
<g><path style="opacity:1" fill="#a5cefb" d="M 266.5,931.5 C 264.095,932.768 261.428,933.435 258.5,933.5C 260.838,931.96 263.505,931.294 266.5,931.5 Z"/></g>
<g><path style="opacity:1" fill="#e4f8fe" d="M 266.5,931.5 C 268.5,931.5 270.5,931.5 272.5,931.5C 269.511,945.335 261.344,950.001 248,945.5C 246.958,937.7 250.458,933.7 258.5,933.5C 261.428,933.435 264.095,932.768 266.5,931.5 Z"/></g>
<g><path style="opacity:1" fill="#c5e5fd" d="M 718.5,931.5 C 725.167,931.5 731.833,931.5 738.5,931.5C 739.49,937.645 739.823,943.978 739.5,950.5C 738.51,944.69 738.177,938.69 738.5,932.5C 731.646,932.824 724.979,932.491 718.5,931.5 Z"/></g>
<g><path style="opacity:1" fill="#609ff7" d="M 1104.5,933.5 C 1106.69,935.522 1107.69,938.189 1107.5,941.5C 1105.9,939.152 1104.9,936.486 1104.5,933.5 Z"/></g>
<g><path style="opacity:1" fill="#a5d0fb" d="M 208.5,930.5 C 209.458,930.953 210.292,931.619 211,932.5C 211.796,935.039 211.629,937.372 210.5,939.5C 210.79,936.215 210.123,933.215 208.5,930.5 Z"/></g>
<g><path style="opacity:1" fill="#c2e3fd" d="M 1023.5,916.5 C 1024.17,923.325 1024.5,930.325 1024.5,937.5C 1024.5,944.867 1023.83,951.867 1022.5,958.5C 1022.5,958.167 1022.5,957.833 1022.5,957.5C 1023.5,944.01 1023.83,930.344 1023.5,916.5 Z"/></g>
<g><path style="opacity:1" fill="#6daaf8" d="M 234.5,931.5 C 233.627,935.768 233.294,940.102 233.5,944.5C 232.355,940.689 232.188,936.689 233,932.5C 233.383,931.944 233.883,931.611 234.5,931.5 Z"/></g>
<g><path style="opacity:1" fill="#abd2fb" d="M 305.5,934.5 C 307.4,937.518 308.733,940.851 309.5,944.5C 307.103,941.691 305.77,938.358 305.5,934.5 Z"/></g>
<g><path style="opacity:1" fill="#9dcafb" d="M 353.5,933.5 C 354.669,936.341 355.669,939.341 356.5,942.5C 354.138,940.081 353.138,937.081 353.5,933.5 Z"/></g>
<g><path style="opacity:1" fill="#5f9ef7" d="M 641.5,933.5 C 641.34,935.199 641.506,936.866 642,938.5C 643.481,939.471 644.315,940.804 644.5,942.5C 640.652,940.351 639.652,937.351 641.5,933.5 Z"/></g>
<g><path style="opacity:1" fill="#8ebffa" d="M 627.5,936.5 C 628.871,938.936 629.871,941.603 630.5,944.5C 628.345,942.383 627.345,939.716 627.5,936.5 Z"/></g>
<g><path style="opacity:1" fill="#4d93f6" d="M 946.5,934.5 C 945.591,945.436 939.924,949.77 929.5,947.5C 938.979,948.009 944.646,943.676 946.5,934.5 Z"/></g>
<g><path style="opacity:1" fill="#4f99f6" d="M 1104.5,973.5 C 1102.74,974.461 1100.74,974.795 1098.5,974.5C 1098.5,978.167 1098.5,981.833 1098.5,985.5C 1100.17,985.5 1101.83,985.5 1103.5,985.5C 1101.74,986.461 1099.74,986.795 1097.5,986.5C 1097.5,982.167 1097.5,977.833 1097.5,973.5C 1099.83,973.5 1102.17,973.5 1104.5,973.5 Z"/></g>
</svg>
