<?xml version="1.0" encoding="UTF-8"?>
<!DOCTYPE svg PUBLIC "-//W3C//DTD SVG 1.1//EN" "http://www.w3.org/Graphics/SVG/1.1/DTD/svg11.dtd">
<svg xmlns="http://www.w3.org/2000/svg" version="1.1" width="1356px" height="1031px" style="shape-rendering:geometricPrecision; text-rendering:geometricPrecision; image-rendering:optimizeQuality; fill-rule:evenodd; clip-rule:evenodd" xmlns:xlink="http://www.w3.org/1999/xlink">
<g><path style="opacity:1" fill="#f87d4f" d="M -0.5,-0.5 C 451.5,-0.5 903.5,-0.5 1355.5,-0.5C 1355.5,343.167 1355.5,686.833 1355.5,1030.5C 903.5,1030.5 451.5,1030.5 -0.5,1030.5C -0.5,686.833 -0.5,343.167 -0.5,-0.5 Z"/></g>
<g><path style="opacity:1" fill="#faf9f9" d="M 1275.5,170.5 C 1275.17,169.833 1274.83,169.167 1274.5,168.5C 1274.44,167.957 1274.11,167.624 1273.5,167.5C 1272.5,442.499 1272.17,717.499 1272.5,992.5C 877.5,992.5 482.5,992.5 87.5,992.5C 87.8331,715.999 87.4998,439.666 86.5,163.5C 85.5,163.833 84.8333,164.5 84.5,165.5C 76.5595,177.282 68.3929,188.949 60,200.5C 45.3102,192.086 31.4768,182.586 18.5,172C 40.1516,139.677 61.8182,107.344 83.5,75C 479.54,74.8328 875.54,74.3328 1271.5,73.5C 1293.86,105.72 1315.86,138.22 1337.5,171C 1324.56,181.429 1310.89,190.929 1296.5,199.5C 1288.78,190.41 1281.78,180.744 1275.5,170.5 Z"/></g>
<g><path style="opacity:1" fill="#0a53df" d="M 1255.5,975.5 C 871.5,975.5 487.5,975.5 103.5,975.5C 103.333,695.5 103.5,415.5 104,135.5C 107.833,130.333 111.667,125.167 115.5,120C 490.833,119.333 866.167,119.333 1241.5,120C 1245.96,127.097 1250.8,133.93 1256,140.5C 1256.83,419 1256.67,697.334 1255.5,975.5 Z"/></g>
<g><path style="opacity:1" fill="#f8916a" d="M 86.5,163.5 C 86.5,439.833 86.5,716.167 86.5,992.5C 85.8333,716.833 85.1667,441.167 84.5,165.5C 84.8333,164.5 85.5,163.833 86.5,163.5 Z"/></g>
<g><path style="opacity:1" fill="#fac9b7" d="M 1274.5,168.5 C 1273.83,443.167 1273.17,717.833 1272.5,992.5C 1272.17,717.499 1272.5,442.499 1273.5,167.5C 1274.11,167.624 1274.44,167.957 1274.5,168.5 Z"/></g>
<g><path style="opacity:1" fill="#f88d65" d="M 1274.5,168.5 C 1274.83,169.167 1275.17,169.833 1275.5,170.5C 1275.17,445.002 1274.17,719.335 1272.5,993.5C 1272.5,993.167 1272.5,992.833 1272.5,992.5C 1273.17,717.833 1273.83,443.167 1274.5,168.5 Z"/></g>
<g><path style="opacity:1" fill="#3f75e4" d="M 206.5,209.5 C 202.131,209.467 197.798,209.8 193.5,210.5C 195.634,208.967 198.134,208.3 201,208.5C 203.033,208.506 204.866,208.839 206.5,209.5 Z"/></g>
<g><path style="opacity:1" fill="#f1f4f9" d="M 289.5,212.5 C 290.675,219.698 293.009,226.365 296.5,232.5C 298.679,239.548 301.012,246.548 303.5,253.5C 303.369,254.376 303.702,255.043 304.5,255.5C 305.386,254.675 305.719,253.675 305.5,252.5C 311.072,238.455 316.072,224.122 320.5,209.5C 324.555,209.176 328.555,209.509 332.5,210.5C 325.294,230.636 317.627,250.469 309.5,270C 306.167,270.667 302.833,270.667 299.5,270C 291.483,250.441 284.15,230.608 277.5,210.5C 281.167,209.167 284.833,209.167 288.5,210.5C 288.863,211.183 289.196,211.85 289.5,212.5 Z"/></g>
<g><path style="opacity:1" fill="#f7f8fa" d="M 542.5,209.5 C 546.884,209.174 551.217,209.508 555.5,210.5C 563.028,222.227 570.028,234.227 576.5,246.5C 576.733,248.062 577.4,249.395 578.5,250.5C 579.209,251.404 580.209,251.737 581.5,251.5C 581.5,237.833 581.5,224.167 581.5,210.5C 584.167,210.5 586.833,210.5 589.5,210.5C 589.5,230.167 589.5,249.833 589.5,269.5C 586.167,269.5 582.833,269.5 579.5,269.5C 570.472,255.787 561.805,241.787 553.5,227.5C 553.44,226.957 553.107,226.624 552.5,226.5C 551.501,240.818 551.167,255.151 551.5,269.5C 548.5,269.5 545.5,269.5 542.5,269.5C 542.5,249.5 542.5,229.5 542.5,209.5 Z"/></g>
<g><path style="opacity:1" fill="#f7f8fa" d="M 604.5,209.5 C 617.5,209.5 630.5,209.5 643.5,209.5C 643.5,212.5 643.5,215.5 643.5,218.5C 633.652,218.173 623.986,218.506 614.5,219.5C 614.5,224.5 614.5,229.5 614.5,234.5C 623.833,234.5 633.167,234.5 642.5,234.5C 643.833,237.5 643.833,240.5 642.5,243.5C 633.167,243.5 623.833,243.5 614.5,243.5C 614.178,249.358 614.511,255.025 615.5,260.5C 625.5,260.5 635.5,260.5 645.5,260.5C 645.296,263.518 644.963,266.518 644.5,269.5C 631.167,269.5 617.833,269.5 604.5,269.5C 604.5,249.5 604.5,229.5 604.5,209.5 Z"/></g>
<g><path style="opacity:1" fill="#f1f4f9" d="M 661.5,214.5 C 661.427,216.027 662.094,217.027 663.5,217.5C 665.341,219.849 666.674,222.515 667.5,225.5C 667.427,227.027 668.094,228.027 669.5,228.5C 670.976,230.769 672.476,233.102 674,235.5C 674.662,234.016 675.496,232.683 676.5,231.5C 677.906,231.027 678.573,230.027 678.5,228.5C 678.66,226.847 679.326,225.514 680.5,224.5C 681.906,224.027 682.573,223.027 682.5,221.5C 682.975,219.216 683.975,217.216 685.5,215.5C 686.906,215.027 687.573,214.027 687.5,212.5C 691.388,210.311 695.388,209.977 699.5,211.5C 698.89,212.391 698.557,213.391 698.5,214.5C 697.094,214.973 696.427,215.973 696.5,217.5C 695.326,218.514 694.66,219.847 694.5,221.5C 693.094,221.973 692.427,222.973 692.5,224.5C 690.44,227.24 688.774,230.24 687.5,233.5C 686.094,233.973 685.427,234.973 685.5,236.5C 683.692,239.436 681.859,242.436 680,245.5C 679.667,253.5 679.333,261.5 679,269.5C 675.399,270.82 671.899,270.82 668.5,269.5C 668.666,261.493 668.5,253.493 668,245.5C 667.617,244.944 667.117,244.611 666.5,244.5C 664.75,240.665 662.75,236.999 660.5,233.5C 660.573,231.973 659.906,230.973 658.5,230.5C 658.008,228.181 657.008,226.181 655.5,224.5C 655.573,222.973 654.906,221.973 653.5,221.5C 653.34,219.847 652.674,218.514 651.5,217.5C 651.573,215.973 650.906,214.973 649.5,214.5C 649.249,212.83 648.582,211.33 647.5,210C 651.5,209.333 655.5,209.333 659.5,210C 660.582,211.33 661.249,212.83 661.5,214.5 Z"/></g>
<g><path style="opacity:1" fill="#bfd1f4" d="M 699.5,211.5 C 695.388,209.977 691.388,210.311 687.5,212.5C 687.414,211.504 687.748,210.671 688.5,210C 692.541,209.173 696.541,209.34 700.5,210.5C 700.376,211.107 700.043,211.44 699.5,211.5 Z"/></g>
<g><path style="opacity:1" fill="#cfdcf5" d="M 827.5,219.5 C 832.975,218.511 838.642,218.178 844.5,218.5C 844.5,215.833 844.5,213.167 844.5,210.5C 829.167,210.5 813.833,210.5 798.5,210.5C 798.5,213.167 798.5,215.833 798.5,218.5C 804.358,218.178 810.025,218.511 815.5,219.5C 809.5,219.5 803.5,219.5 797.5,219.5C 797.5,216.167 797.5,212.833 797.5,209.5C 813.5,209.5 829.5,209.5 845.5,209.5C 845.5,212.833 845.5,216.167 845.5,219.5C 839.5,219.5 833.5,219.5 827.5,219.5 Z"/></g>
<g><path style="opacity:1" fill="#f1f4f9" d="M 206.5,209.5 C 216.231,211.566 221.897,217.566 223.5,227.5C 219.833,227.5 216.167,227.5 212.5,227.5C 212.206,223.7 210.206,221.2 206.5,220C 202.1,219.022 197.933,219.522 194,221.5C 191.562,226.571 193.062,229.905 198.5,231.5C 201.939,233.204 205.605,234.538 209.5,235.5C 222.403,239.306 226.903,247.639 223,260.5C 219.29,265.432 214.456,268.432 208.5,269.5C 202.044,269.768 195.711,269.101 189.5,267.5C 185.494,265.494 182.494,262.494 180.5,258.5C 180.167,255.833 179.833,253.167 179.5,250.5C 182.833,250.5 186.167,250.5 189.5,250.5C 192.447,259.143 198.447,262.31 207.5,260C 213.059,258.542 214.892,255.042 213,249.5C 211.188,248.023 209.355,246.69 207.5,245.5C 204.495,243.723 201.162,242.723 197.5,242.5C 182.533,238.394 178.366,229.394 185,215.5C 187.531,213.097 190.364,211.43 193.5,210.5C 197.798,209.8 202.131,209.467 206.5,209.5 Z"/></g>
<g><path style="opacity:1" fill="#f2f4fa" d="M 264.5,219.5 C 264.345,222.716 265.345,225.383 267.5,227.5C 270.141,234.069 272.475,240.735 274.5,247.5C 274.77,251.358 276.103,254.691 278.5,257.5C 280.086,260.257 281.086,263.257 281.5,266.5C 281.5,267.5 281.5,268.5 281.5,269.5C 278.167,269.5 274.833,269.5 271.5,269.5C 269.969,264.096 268.136,258.763 266,253.5C 258.667,252.167 251.333,252.167 244,253.5C 242.632,259.107 240.799,264.441 238.5,269.5C 234.958,269.813 231.625,269.479 228.5,268.5C 235.167,248.833 241.833,229.167 248.5,209.5C 252.514,209.334 256.514,209.501 260.5,210C 262.511,212.872 263.844,216.038 264.5,219.5 Z"/></g>
<g><path style="opacity:1" fill="#f9f9fa" d="M 348.5,219.5 C 348.5,224.167 348.5,228.833 348.5,233.5C 357.318,234.493 366.318,234.827 375.5,234.5C 375.5,237.167 375.5,239.833 375.5,242.5C 366.318,242.173 357.318,242.507 348.5,243.5C 347.167,248.833 347.167,254.167 348.5,259.5C 358.319,260.494 368.319,260.827 378.5,260.5C 378.5,262.167 378.5,263.833 378.5,265.5C 377.596,266.209 377.263,267.209 377.5,268.5C 364.5,268.5 351.5,268.5 338.5,268.5C 338.5,249.167 338.5,229.833 338.5,210.5C 351.167,210.5 363.833,210.5 376.5,210.5C 376.5,213.167 376.5,215.833 376.5,218.5C 366.985,218.173 357.652,218.506 348.5,219.5 Z"/></g>
<g><path style="opacity:1" fill="#c7d6f5" d="M 348.5,219.5 C 357.652,218.506 366.985,218.173 376.5,218.5C 376.5,215.833 376.5,213.167 376.5,210.5C 363.833,210.5 351.167,210.5 338.5,210.5C 338.5,229.833 338.5,249.167 338.5,268.5C 351.5,268.5 364.5,268.5 377.5,268.5C 377.263,267.209 377.596,266.209 378.5,265.5C 378.714,267.144 378.38,268.644 377.5,270C 364.171,270.5 350.837,270.667 337.5,270.5C 337.5,250.167 337.5,229.833 337.5,209.5C 350.833,209.5 364.167,209.5 377.5,209.5C 377.5,212.833 377.5,216.167 377.5,219.5C 367.833,219.5 358.167,219.5 348.5,219.5 Z"/></g>
<g><path style="opacity:1" fill="#9ab8ef" d="M 408.5,209.5 C 408.5,229.5 408.5,249.5 408.5,269.5C 411.5,269.5 414.5,269.5 417.5,269.5C 417.168,256.483 417.501,243.483 418.5,230.5C 419.107,230.624 419.44,230.957 419.5,231.5C 418.505,244.323 418.171,257.323 418.5,270.5C 414.833,270.5 411.167,270.5 407.5,270.5C 407.17,249.993 407.503,229.66 408.5,209.5 Z"/></g>
<g><path style="opacity:1" fill="#f5f7fa" d="M 408.5,209.5 C 412.846,209.334 417.179,209.501 421.5,210C 422.056,210.383 422.389,210.883 422.5,211.5C 422.345,214.716 423.345,217.383 425.5,219.5C 425.557,220.609 425.89,221.609 426.5,222.5C 426.345,225.716 427.345,228.383 429.5,230.5C 429.557,231.609 429.89,232.609 430.5,233.5C 430.345,236.716 431.345,239.383 433.5,241.5C 433.557,242.609 433.89,243.609 434.5,244.5C 434.259,246.898 434.926,248.898 436.5,250.5C 436.56,251.043 436.893,251.376 437.5,251.5C 438.386,250.675 438.719,249.675 438.5,248.5C 441.31,242.42 443.644,236.087 445.5,229.5C 447.213,228.365 447.88,226.698 447.5,224.5C 448.7,219.335 450.7,214.502 453.5,210C 457.821,209.501 462.154,209.334 466.5,209.5C 466.5,229.5 466.5,249.5 466.5,269.5C 463.167,269.5 459.833,269.5 456.5,269.5C 456.667,256.496 456.5,243.496 456,230.5C 454.562,231.9 453.729,233.567 453.5,235.5C 449.716,247.063 445.383,258.397 440.5,269.5C 437.628,270.783 434.795,270.783 432,269.5C 427.532,256.906 423.365,244.239 419.5,231.5C 419.44,230.957 419.107,230.624 418.5,230.5C 417.501,243.483 417.168,256.483 417.5,269.5C 414.5,269.5 411.5,269.5 408.5,269.5C 408.5,249.5 408.5,229.5 408.5,209.5 Z"/></g>
<g><path style="opacity:1" fill="#93b3ee" d="M 466.5,209.5 C 467.497,229.66 467.83,249.993 467.5,270.5C 463.629,270.815 459.962,270.482 456.5,269.5C 459.833,269.5 463.167,269.5 466.5,269.5C 466.5,249.5 466.5,229.5 466.5,209.5 Z"/></g>
<g><path style="opacity:1" fill="#f1f4f9" d="M 527.5,221.5 C 528.508,223.544 529.508,225.544 530.5,227.5C 535.688,242.245 532.355,254.745 520.5,265C 508.979,271.277 497.646,270.943 486.5,264C 485.267,262.333 483.933,260.833 482.5,259.5C 481.492,257.456 480.492,255.456 479.5,253.5C 477.757,246.297 477.091,238.964 477.5,231.5C 478.249,228.799 479.249,226.132 480.5,223.5C 481.906,223.027 482.573,222.027 482.5,220.5C 489.619,211.538 498.952,208.038 510.5,210C 518.003,211.397 523.669,215.23 527.5,221.5 Z"/></g>
<g><path style="opacity:1" fill="#92b2ee" d="M 542.5,209.5 C 542.5,229.5 542.5,249.5 542.5,269.5C 545.5,269.5 548.5,269.5 551.5,269.5C 551.167,255.151 551.501,240.818 552.5,226.5C 553.107,226.624 553.44,226.957 553.5,227.5C 552.504,241.657 552.171,255.99 552.5,270.5C 548.833,270.5 545.167,270.5 541.5,270.5C 541.17,249.993 541.503,229.66 542.5,209.5 Z"/></g>
<g><path style="opacity:1" fill="#5385e7" d="M 580.5,209.5 C 581.149,223.541 580.482,237.208 578.5,250.5C 577.4,249.395 576.733,248.062 576.5,246.5C 577.458,246.953 578.292,247.619 579,248.5C 579.169,235.327 579.669,222.327 580.5,209.5 Z"/></g>
<g><path style="opacity:1" fill="#f4f5fa" d="M 827.5,219.5 C 826.503,236.325 826.17,253.325 826.5,270.5C 822.894,270.789 819.394,270.456 816,269.5C 815.5,252.837 815.333,236.17 815.5,219.5C 810.025,218.511 804.358,218.178 798.5,218.5C 798.5,215.833 798.5,213.167 798.5,210.5C 813.833,210.5 829.167,210.5 844.5,210.5C 844.5,213.167 844.5,215.833 844.5,218.5C 838.642,218.178 832.975,218.511 827.5,219.5 Z"/></g>
<g><path style="opacity:1" fill="#a9c2f1" d="M 851.5,209.5 C 851.5,229.5 851.5,249.5 851.5,269.5C 854.5,269.5 857.5,269.5 860.5,269.5C 860.5,249.5 860.5,229.5 860.5,209.5C 861.497,229.66 861.83,249.993 861.5,270.5C 857.833,270.5 854.167,270.5 850.5,270.5C 850.17,249.993 850.503,229.66 851.5,209.5 Z"/></g>
<g><path style="opacity:1" fill="#fafafa" d="M 851.5,209.5 C 854.5,209.5 857.5,209.5 860.5,209.5C 860.5,229.5 860.5,249.5 860.5,269.5C 857.5,269.5 854.5,269.5 851.5,269.5C 851.5,249.5 851.5,229.5 851.5,209.5 Z"/></g>
<g><path style="opacity:1" fill="#f6f7fa" d="M 887.5,209.5 C 887.427,211.027 888.094,212.027 889.5,212.5C 889.394,215.079 890.061,217.412 891.5,219.5C 891.259,221.898 891.926,223.898 893.5,225.5C 896.197,233.629 899.197,241.629 902.5,249.5C 902.517,251.028 903.184,251.528 904.5,251C 905.38,249.644 905.714,248.144 905.5,246.5C 909.45,237.061 912.95,227.394 916,217.5C 916.383,216.944 916.883,216.611 917.5,216.5C 918.771,214.891 919.771,213.058 920.5,211C 924.486,210.501 928.486,210.334 932.5,210.5C 932.5,230.167 932.5,249.833 932.5,269.5C 929.5,269.5 926.5,269.5 923.5,269.5C 923.833,255.817 923.499,242.15 922.5,228.5C 921.438,230.022 920.771,231.688 920.5,233.5C 919.962,235.117 919.629,236.784 919.5,238.5C 918.094,238.973 917.427,239.973 917.5,241.5C 916.962,243.117 916.629,244.784 916.5,246.5C 915.094,246.973 914.427,247.973 914.5,249.5C 913.962,251.117 913.629,252.784 913.5,254.5C 912.094,254.973 911.427,255.973 911.5,257.5C 910.962,259.117 910.629,260.784 910.5,262.5C 909.094,262.973 908.427,263.973 908.5,265.5C 908.703,267.39 908.037,268.89 906.5,270C 899.994,272.32 896.661,270.153 896.5,263.5C 894.122,253.69 890.789,244.357 886.5,235.5C 886.5,234.833 886.5,234.167 886.5,233.5C 886.778,231.654 886.111,230.32 884.5,229.5C 883.501,242.817 883.167,256.15 883.5,269.5C 880.5,269.5 877.5,269.5 874.5,269.5C 874.5,249.5 874.5,229.5 874.5,209.5C 878.833,209.5 883.167,209.5 887.5,209.5 Z"/></g>
<g><path style="opacity:1" fill="#b9ccf3" d="M 933.5,269.5 C 933.167,269.5 932.833,269.5 932.5,269.5C 932.5,249.833 932.5,230.167 932.5,210.5C 928.486,210.334 924.486,210.501 920.5,211C 919.771,213.058 918.771,214.891 917.5,216.5C 917.317,214.064 917.984,211.897 919.5,210C 924.155,209.501 928.821,209.334 933.5,209.5C 933.5,229.5 933.5,249.5 933.5,269.5 Z"/></g>
<g><path style="opacity:1" fill="#aac3f2" d="M 947.5,209.5 C 947.5,229.5 947.5,249.5 947.5,269.5C 960.5,269.5 973.5,269.5 986.5,269.5C 986.263,268.209 986.596,267.209 987.5,266.5C 987.5,267.5 987.5,268.5 987.5,269.5C 974.01,270.496 960.344,270.829 946.5,270.5C 946.17,249.993 946.503,229.66 947.5,209.5 Z"/></g>
<g><path style="opacity:1" fill="#f7f8fa" d="M 947.5,209.5 C 960.5,209.5 973.5,209.5 986.5,209.5C 986.5,212.5 986.5,215.5 986.5,218.5C 976.652,218.173 966.986,218.506 957.5,219.5C 957.5,224.5 957.5,229.5 957.5,234.5C 966.833,234.5 976.167,234.5 985.5,234.5C 985.5,237.5 985.5,240.5 985.5,243.5C 976.167,243.5 966.833,243.5 957.5,243.5C 957.5,248.833 957.5,254.167 957.5,259.5C 967.319,260.494 977.319,260.827 987.5,260.5C 987.5,262.5 987.5,264.5 987.5,266.5C 986.596,267.209 986.263,268.209 986.5,269.5C 973.5,269.5 960.5,269.5 947.5,269.5C 947.5,249.5 947.5,229.5 947.5,209.5 Z"/></g>
<g><path style="opacity:1" fill="#f2f5fa" d="M 1047.5,209.5 C 1049.1,211.074 1051.1,211.741 1053.5,211.5C 1057.08,213.733 1060.41,216.399 1063.5,219.5C 1065.74,223.303 1067.4,227.303 1068.5,231.5C 1069.4,240.564 1068.06,249.231 1064.5,257.5C 1060.76,263.589 1055.43,267.256 1048.5,268.5C 1041.35,268.891 1034.35,268.225 1027.5,266.5C 1020.57,262.001 1016.07,255.667 1014,247.5C 1013.18,241.984 1013.35,236.65 1014.5,231.5C 1016.07,229.898 1016.74,227.898 1016.5,225.5C 1022.73,212.621 1033.07,207.288 1047.5,209.5 Z"/></g>
<g><path style="opacity:1" fill="#5581e6" d="M 1047.5,209.5 C 1049.9,209.259 1051.9,209.926 1053.5,211.5C 1051.1,211.741 1049.1,211.074 1047.5,209.5 Z"/></g>
<g><path style="opacity:1" fill="#f3f4fa" d="M 1115.5,248.5 C 1115.43,250.027 1116.09,251.027 1117.5,251.5C 1118.5,238.01 1118.83,224.344 1118.5,210.5C 1121.5,210.5 1124.5,210.5 1127.5,210.5C 1127.5,230.167 1127.5,249.833 1127.5,269.5C 1122.93,269.946 1118.6,269.28 1114.5,267.5C 1107.21,254.644 1099.54,241.978 1091.5,229.5C 1091.17,228.833 1090.83,228.167 1090.5,227.5C 1090.44,226.957 1090.11,226.624 1089.5,226.5C 1088.5,240.818 1088.17,255.151 1088.5,269.5C 1085.5,269.5 1082.5,269.5 1079.5,269.5C 1078.5,249.674 1078.17,229.674 1078.5,209.5C 1082.85,209.334 1087.18,209.501 1091.5,210C 1099.9,222.645 1107.9,235.479 1115.5,248.5 Z"/></g>
<g><path style="opacity:1" fill="#3571e4" d="M 1117.5,210.5 C 1117.5,224.167 1117.5,237.833 1117.5,251.5C 1116.09,251.027 1115.43,250.027 1115.5,248.5C 1116.17,235.833 1116.83,223.167 1117.5,210.5 Z"/></g>
<g><path style="opacity:1" fill="#aac2f1" d="M 1127.5,269.5 C 1127.5,249.833 1127.5,230.167 1127.5,210.5C 1124.5,210.5 1121.5,210.5 1118.5,210.5C 1118.83,224.344 1118.5,238.01 1117.5,251.5C 1117.5,237.833 1117.5,224.167 1117.5,210.5C 1120.96,209.518 1124.63,209.185 1128.5,209.5C 1128.83,229.674 1128.5,249.674 1127.5,269.5 Z"/></g>
<g><path style="opacity:1" fill="#f2f5fa" d="M 1209.5,267.5 C 1206.32,269.414 1202.65,270.08 1198.5,269.5C 1196.63,263.903 1194.97,258.237 1193.5,252.5C 1186.49,252.334 1179.49,252.5 1172.5,253C 1171.12,255.364 1170.12,257.864 1169.5,260.5C 1167.93,263.215 1166.93,266.215 1166.5,269.5C 1163.1,269.82 1159.77,269.487 1156.5,268.5C 1157.31,266.929 1157.64,265.262 1157.5,263.5C 1157.77,261.035 1158.43,258.701 1159.5,256.5C 1161.83,254.824 1162.83,252.491 1162.5,249.5C 1162.77,247.035 1163.43,244.701 1164.5,242.5C 1166.65,240.383 1167.65,237.716 1167.5,234.5C 1167.97,232.421 1168.64,230.421 1169.5,228.5C 1171.65,226.383 1172.65,223.716 1172.5,220.5C 1174.9,217.691 1176.23,214.358 1176.5,210.5C 1180.57,209.178 1184.73,209.178 1189,210.5C 1195.74,229.551 1202.57,248.551 1209.5,267.5 Z"/></g>
<g><path style="opacity:1" fill="#7097ea" d="M 887.5,209.5 C 888.906,209.973 889.573,210.973 889.5,212.5C 888.094,212.027 887.427,211.027 887.5,209.5 Z"/></g>
<g><path style="opacity:1" fill="#91aeee" d="M 422.5,211.5 C 423.871,213.936 424.871,216.603 425.5,219.5C 423.345,217.383 422.345,214.716 422.5,211.5 Z"/></g>
<g><path style="opacity:1" fill="#83a5ed" d="M 687.5,212.5 C 687.573,214.027 686.906,215.027 685.5,215.5C 685.427,213.973 686.094,212.973 687.5,212.5 Z"/></g>
<g><path style="opacity:1" fill="#95b0ee" d="M 289.5,212.5 C 292.204,218.941 294.537,225.608 296.5,232.5C 293.009,226.365 290.675,219.698 289.5,212.5 Z"/></g>
<g><path style="opacity:1" fill="#afc3f2" d="M 1176.5,210.5 C 1176.23,214.358 1174.9,217.691 1172.5,220.5C 1173.27,216.851 1174.6,213.518 1176.5,210.5 Z"/></g>
<g><path style="opacity:1" fill="#6791e9" d="M 649.5,214.5 C 650.906,214.973 651.573,215.973 651.5,217.5C 650.094,217.027 649.427,216.027 649.5,214.5 Z"/></g>
<g><path style="opacity:1" fill="#8baaed" d="M 661.5,214.5 C 662.906,214.973 663.573,215.973 663.5,217.5C 662.094,217.027 661.427,216.027 661.5,214.5 Z"/></g>
<g><path style="opacity:1" fill="#749aea" d="M 698.5,214.5 C 698.573,216.027 697.906,217.027 696.5,217.5C 696.427,215.973 697.094,214.973 698.5,214.5 Z"/></g>
<g><path style="opacity:1" fill="#afc6f2" d="M 643.5,209.5 C 644.479,212.625 644.813,215.958 644.5,219.5C 634.833,219.5 625.167,219.5 615.5,219.5C 615.167,219.5 614.833,219.5 614.5,219.5C 623.986,218.506 633.652,218.173 643.5,218.5C 643.5,215.5 643.5,212.5 643.5,209.5 Z"/></g>
<g><path style="opacity:1" fill="#adc4f2" d="M 986.5,209.5 C 987.479,212.625 987.813,215.958 987.5,219.5C 977.5,219.5 967.5,219.5 957.5,219.5C 966.986,218.506 976.652,218.173 986.5,218.5C 986.5,215.5 986.5,212.5 986.5,209.5 Z"/></g>
<g><path style="opacity:1" fill="#bdcef3" d="M 580.5,209.5 C 584.167,209.5 587.833,209.5 591.5,209.5C 591.667,229.503 591.5,249.503 591,269.5C 587.066,270.821 583.233,270.821 579.5,269.5C 582.833,269.5 586.167,269.5 589.5,269.5C 589.5,249.833 589.5,230.167 589.5,210.5C 586.833,210.5 584.167,210.5 581.5,210.5C 581.5,224.167 581.5,237.833 581.5,251.5C 580.209,251.737 579.209,251.404 578.5,250.5C 580.482,237.208 581.149,223.541 580.5,209.5 Z"/></g>
<g><path style="opacity:1" fill="#1155df" d="M 518.5,227.5 C 520.182,233.68 520.848,240.013 520.5,246.5C 517.34,257.589 510.006,261.756 498.5,259C 495.308,256.972 492.641,254.472 490.5,251.5C 490.59,248.848 489.924,246.515 488.5,244.5C 486.646,234.946 489.313,227.112 496.5,221C 505.728,217.396 513.061,219.563 518.5,227.5 Z"/></g>
<g><path style="opacity:1" fill="#1556df" d="M 1025.5,245.5 C 1025.39,240.13 1025.73,234.797 1026.5,229.5C 1030.36,220.914 1037.03,217.747 1046.5,220C 1054.83,223.974 1058.83,230.641 1058.5,240C 1056.62,258.014 1047.46,263.514 1031,256.5C 1028.45,253.14 1026.62,249.474 1025.5,245.5 Z"/></g>
<g><path style="opacity:1" fill="#eff2f9" d="M 743.5,221.5 C 747.042,221.187 750.375,221.521 753.5,222.5C 753.5,228.5 753.5,234.5 753.5,240.5C 759.5,240.5 765.5,240.5 771.5,240.5C 771.5,240.833 771.5,241.167 771.5,241.5C 771.5,244.167 771.5,246.833 771.5,249.5C 765.31,249.177 759.31,249.51 753.5,250.5C 753.5,256.167 753.5,261.833 753.5,267.5C 750.663,269.402 747.329,270.069 743.5,269.5C 743.5,263.167 743.5,256.833 743.5,250.5C 738.167,250.5 732.833,250.5 727.5,250.5C 726.178,250.67 725.011,250.337 724,249.5C 723.264,246.408 723.431,243.408 724.5,240.5C 730.833,240.5 737.167,240.5 743.5,240.5C 743.5,234.167 743.5,227.833 743.5,221.5 Z"/></g>
<g><path style="opacity:1" fill="#9bb5ef" d="M 264.5,219.5 C 265.871,221.936 266.871,224.603 267.5,227.5C 265.345,225.383 264.345,222.716 264.5,219.5 Z"/></g>
<g><path style="opacity:1" fill="#84a6ed" d="M 482.5,220.5 C 482.573,222.027 481.906,223.027 480.5,223.5C 480.427,221.973 481.094,220.973 482.5,220.5 Z"/></g>
<g><path style="opacity:1" fill="#a3baf0" d="M 891.5,219.5 C 893.074,221.102 893.741,223.102 893.5,225.5C 891.926,223.898 891.259,221.898 891.5,219.5 Z"/></g>
<g><path style="opacity:1" fill="#99b4ef" d="M 527.5,221.5 C 529.975,222.687 530.975,224.687 530.5,227.5C 529.508,225.544 528.508,223.544 527.5,221.5 Z"/></g>
<g><path style="opacity:1" fill="#7399ea" d="M 653.5,221.5 C 654.906,221.973 655.573,222.973 655.5,224.5C 654.094,224.027 653.427,223.027 653.5,221.5 Z"/></g>
<g><path style="opacity:1" fill="#85a6ed" d="M 682.5,221.5 C 682.573,223.027 681.906,224.027 680.5,224.5C 680.427,222.973 681.094,221.973 682.5,221.5 Z"/></g>
<g><path style="opacity:1" fill="#6e95ea" d="M 694.5,221.5 C 694.573,223.027 693.906,224.027 692.5,224.5C 692.427,222.973 693.094,221.973 694.5,221.5 Z"/></g>
<g><path style="opacity:1" fill="#9cb6ef" d="M 1172.5,220.5 C 1172.65,223.716 1171.65,226.383 1169.5,228.5C 1170.13,225.603 1171.13,222.936 1172.5,220.5 Z"/></g>
<g><path style="opacity:1" fill="#91aeee" d="M 426.5,222.5 C 427.871,224.936 428.871,227.603 429.5,230.5C 427.345,228.383 426.345,225.716 426.5,222.5 Z"/></g>
<g><path style="opacity:1" fill="#245ce0" d="M 260.5,238.5 C 260.5,239.5 260.5,240.5 260.5,241.5C 256.5,241.5 252.5,241.5 248.5,241.5C 250.298,235.438 252.298,229.438 254.5,223.5C 257.28,228.171 259.28,233.171 260.5,238.5 Z"/></g>
<g><path style="opacity:1" fill="#205be0" d="M 1188.5,241.5 C 1184.83,241.5 1181.17,241.5 1177.5,241.5C 1177.5,239.833 1177.5,238.167 1177.5,236.5C 1178.17,232.173 1179.67,228.173 1182,224.5C 1184.85,229.895 1187.02,235.562 1188.5,241.5 Z"/></g>
<g><path style="opacity:1" fill="#92acee" d="M 447.5,224.5 C 447.88,226.698 447.213,228.365 445.5,229.5C 445.402,227.447 446.069,225.78 447.5,224.5 Z"/></g>
<g><path style="opacity:1" fill="#8babed" d="M 667.5,225.5 C 668.906,225.973 669.573,226.973 669.5,228.5C 668.094,228.027 667.427,227.027 667.5,225.5 Z"/></g>
<g><path style="opacity:1" fill="#a7c1f1" d="M 1090.5,227.5 C 1089.5,241.323 1089.17,255.323 1089.5,269.5C 1086.17,270.833 1082.83,270.833 1079.5,269.5C 1082.5,269.5 1085.5,269.5 1088.5,269.5C 1088.17,255.151 1088.5,240.818 1089.5,226.5C 1090.11,226.624 1090.44,226.957 1090.5,227.5 Z"/></g>
<g><path style="opacity:1" fill="#3270e4" d="M 1090.5,227.5 C 1090.83,228.167 1091.17,228.833 1091.5,229.5C 1090.83,242.833 1090.17,256.167 1089.5,269.5C 1089.17,255.323 1089.5,241.323 1090.5,227.5 Z"/></g>
<g><path style="opacity:1" fill="#83a5ed" d="M 678.5,228.5 C 678.573,230.027 677.906,231.027 676.5,231.5C 676.427,229.973 677.094,228.973 678.5,228.5 Z"/></g>
<g><path style="opacity:1" fill="#9fbbf0" d="M 932.5,269.5 C 932.833,269.5 933.167,269.5 933.5,269.5C 930.038,270.482 926.371,270.815 922.5,270.5C 922.667,257.829 922.5,245.162 922,232.5C 921.617,233.056 921.117,233.389 920.5,233.5C 920.771,231.688 921.438,230.022 922.5,228.5C 923.499,242.15 923.833,255.817 923.5,269.5C 926.5,269.5 929.5,269.5 932.5,269.5 Z"/></g>
<g><path style="opacity:1" fill="#a0b9f0" d="M 1016.5,225.5 C 1016.74,227.898 1016.07,229.898 1014.5,231.5C 1014.26,229.102 1014.93,227.102 1016.5,225.5 Z"/></g>
<g><path style="opacity:1" fill="#638be8" d="M 198.5,231.5 C 202.708,231.677 206.374,233.01 209.5,235.5C 205.605,234.538 201.939,233.204 198.5,231.5 Z"/></g>
<g><path style="opacity:1" fill="#5889e8" d="M 456.5,269.5 C 455.669,257.674 455.169,245.674 455,233.5C 454.722,234.416 454.222,235.082 453.5,235.5C 453.729,233.567 454.562,231.9 456,230.5C 456.5,243.496 456.667,256.496 456.5,269.5 Z"/></g>
<g><path style="opacity:1" fill="#6e96ea" d="M 658.5,230.5 C 659.906,230.973 660.573,231.973 660.5,233.5C 659.094,233.027 658.427,232.027 658.5,230.5 Z"/></g>
<g><path style="opacity:1" fill="#739deb" d="M 614.5,219.5 C 614.833,219.5 615.167,219.5 615.5,219.5C 615.5,224.167 615.5,228.833 615.5,233.5C 624.682,233.173 633.682,233.507 642.5,234.5C 633.167,234.5 623.833,234.5 614.5,234.5C 614.5,229.5 614.5,224.5 614.5,219.5 Z"/></g>
<g><path style="opacity:1" fill="#759aeb" d="M 687.5,233.5 C 687.573,235.027 686.906,236.027 685.5,236.5C 685.427,234.973 686.094,233.973 687.5,233.5 Z"/></g>
<g><path style="opacity:1" fill="#92aeee" d="M 430.5,233.5 C 431.871,235.936 432.871,238.603 433.5,241.5C 431.345,239.383 430.345,236.716 430.5,233.5 Z"/></g>
<g><path style="opacity:1" fill="#739beb" d="M 1026.5,229.5 C 1025.73,234.797 1025.39,240.13 1025.5,245.5C 1024.84,243.527 1024.5,241.361 1024.5,239C 1024.33,235.523 1024.99,232.356 1026.5,229.5 Z"/></g>
<g><path style="opacity:1" fill="#a1baf0" d="M 886.5,235.5 C 890.789,244.357 894.122,253.69 896.5,263.5C 892.599,254.469 889.265,245.136 886.5,235.5 Z"/></g>
<g><path style="opacity:1" fill="#9bb5ef" d="M 1167.5,234.5 C 1167.65,237.716 1166.65,240.383 1164.5,242.5C 1165.13,239.603 1166.13,236.936 1167.5,234.5 Z"/></g>
<g><path style="opacity:1" fill="#5c89e8" d="M 518.5,227.5 C 519.558,228.6 520.392,229.934 521,231.5C 521.816,236.684 521.65,241.684 520.5,246.5C 520.848,240.013 520.182,233.68 518.5,227.5 Z"/></g>
<g><path style="opacity:1" fill="#3c76e4" d="M 743.5,221.5 C 743.5,227.833 743.5,234.167 743.5,240.5C 737.167,240.5 730.833,240.5 724.5,240.5C 730.31,239.51 736.31,239.177 742.5,239.5C 742.177,233.31 742.51,227.31 743.5,221.5 Z"/></g>
<g><path style="opacity:1" fill="#2d6ce3" d="M 753.5,222.5 C 754.489,227.975 754.822,233.642 754.5,239.5C 760.358,239.178 766.025,239.511 771.5,240.5C 765.5,240.5 759.5,240.5 753.5,240.5C 753.5,234.5 753.5,228.5 753.5,222.5 Z"/></g>
<g><path style="opacity:1" fill="#769bea" d="M 919.5,238.5 C 919.573,240.027 918.906,241.027 917.5,241.5C 917.427,239.973 918.094,238.973 919.5,238.5 Z"/></g>
<g><path style="opacity:1" fill="#5c8ce8" d="M 260.5,238.5 C 261.434,239.568 261.768,240.901 261.5,242.5C 256.968,242.818 252.634,242.485 248.5,241.5C 252.5,241.5 256.5,241.5 260.5,241.5C 260.5,240.5 260.5,239.5 260.5,238.5 Z"/></g>
<g><path style="opacity:1" fill="#5c8ae8" d="M 1177.5,236.5 C 1177.5,238.167 1177.5,239.833 1177.5,241.5C 1181.17,241.5 1184.83,241.5 1188.5,241.5C 1184.37,242.485 1180.03,242.818 1175.5,242.5C 1175.59,240.214 1176.26,238.214 1177.5,236.5 Z"/></g>
<g><path style="opacity:1" fill="#aac0f1" d="M 197.5,242.5 C 201.162,242.723 204.495,243.723 207.5,245.5C 203.838,245.277 200.505,244.277 197.5,242.5 Z"/></g>
<g><path style="opacity:1" fill="#bbccf3" d="M 348.5,233.5 C 357.833,233.5 367.167,233.5 376.5,233.5C 376.5,236.833 376.5,240.167 376.5,243.5C 367.167,243.5 357.833,243.5 348.5,243.5C 357.318,242.507 366.318,242.173 375.5,242.5C 375.5,239.833 375.5,237.167 375.5,234.5C 366.318,234.827 357.318,234.493 348.5,233.5 Z"/></g>
<g><path style="opacity:1" fill="#5487e7" d="M 771.5,241.5 C 771.5,241.167 771.5,240.833 771.5,240.5C 772.765,241.514 773.431,243.014 773.5,245C 773.492,246.707 773.158,248.207 772.5,249.5C 772.806,246.615 772.473,243.948 771.5,241.5 Z"/></g>
<g><path style="opacity:1" fill="#719bea" d="M 642.5,243.5 C 633.682,244.493 624.682,244.827 615.5,244.5C 615.5,249.5 615.5,254.5 615.5,259.5C 615.5,259.833 615.5,260.167 615.5,260.5C 614.511,255.025 614.178,249.358 614.5,243.5C 623.833,243.5 633.167,243.5 642.5,243.5 Z"/></g>
<g><path style="opacity:1" fill="#8facee" d="M 434.5,244.5 C 435.738,246.214 436.405,248.214 436.5,250.5C 434.926,248.898 434.259,246.898 434.5,244.5 Z"/></g>
<g><path style="opacity:1" fill="#678ee9" d="M 477.5,231.5 C 477.091,238.964 477.757,246.297 479.5,253.5C 478.034,252.653 477.2,251.32 477,249.5C 476.181,243.319 476.347,237.319 477.5,231.5 Z"/></g>
<g><path style="opacity:1" fill="#a3bbf1" d="M 488.5,244.5 C 489.924,246.515 490.59,248.848 490.5,251.5C 488.837,249.562 488.171,247.228 488.5,244.5 Z"/></g>
<g><path style="opacity:1" fill="#769beb" d="M 916.5,246.5 C 916.573,248.027 915.906,249.027 914.5,249.5C 914.427,247.973 915.094,246.973 916.5,246.5 Z"/></g>
<g><path style="opacity:1" fill="#8eaeee" d="M 348.5,243.5 C 357.833,243.5 367.167,243.5 376.5,243.5C 367.348,244.494 358.015,244.827 348.5,244.5C 348.5,249.5 348.5,254.5 348.5,259.5C 347.167,254.167 347.167,248.833 348.5,243.5 Z"/></g>
<g><path style="opacity:1" fill="#c6d6f4" d="M 771.5,241.5 C 772.473,243.948 772.806,246.615 772.5,249.5C 771.791,250.404 770.791,250.737 769.5,250.5C 764.167,250.5 758.833,250.5 753.5,250.5C 759.31,249.51 765.31,249.177 771.5,249.5C 771.5,246.833 771.5,244.167 771.5,241.5 Z"/></g>
<g><path style="opacity:1" fill="#8caced" d="M 438.5,248.5 C 438.719,249.675 438.386,250.675 437.5,251.5C 436.893,251.376 436.56,251.043 436.5,250.5C 437.167,249.833 437.833,249.167 438.5,248.5 Z"/></g>
<g><path style="opacity:1" fill="#799deb" d="M 905.5,246.5 C 905.714,248.144 905.38,249.644 904.5,251C 903.184,251.528 902.517,251.028 902.5,249.5C 903.9,248.9 904.9,247.9 905.5,246.5 Z"/></g>
<g><path style="opacity:1" fill="#7799ea" d="M 1068.5,231.5 C 1070.25,239.753 1069.59,247.919 1066.5,256C 1066.16,257.03 1065.5,257.53 1064.5,257.5C 1068.06,249.231 1069.4,240.564 1068.5,231.5 Z"/></g>
<g><path style="opacity:1" fill="#296ae2" d="M 753.5,250.5 C 758.833,250.5 764.167,250.5 769.5,250.5C 764.695,251.487 759.695,251.821 754.5,251.5C 754.821,257.026 754.488,262.36 753.5,267.5C 753.5,261.833 753.5,256.167 753.5,250.5 Z"/></g>
<g><path style="opacity:1" fill="#a4bbf0" d="M 274.5,247.5 C 276.4,250.518 277.733,253.851 278.5,257.5C 276.103,254.691 274.77,251.358 274.5,247.5 Z"/></g>
<g><path style="opacity:1" fill="#6693e9" d="M 666.5,244.5 C 667.117,244.611 667.617,244.944 668,245.5C 668.5,253.493 668.666,261.493 668.5,269.5C 667.776,261.297 667.11,252.964 666.5,244.5 Z"/></g>
<g><path style="opacity:1" fill="#b4caf2" d="M 886.5,233.5 C 885.778,233.082 885.278,232.416 885,231.5C 884.5,244.162 884.333,256.829 884.5,269.5C 881.167,270.833 877.833,270.833 874.5,269.5C 877.5,269.5 880.5,269.5 883.5,269.5C 883.167,256.15 883.501,242.817 884.5,229.5C 886.111,230.32 886.778,231.654 886.5,233.5 Z"/></g>
<g><path style="opacity:1" fill="#417ae5" d="M 886.5,233.5 C 886.5,234.167 886.5,234.833 886.5,235.5C 885.833,246.833 885.167,258.167 884.5,269.5C 884.333,256.829 884.5,244.162 885,231.5C 885.278,232.416 885.778,233.082 886.5,233.5 Z"/></g>
<g><path style="opacity:1" fill="#5383e7" d="M 189.5,250.5 C 186.167,250.5 182.833,250.5 179.5,250.5C 179.833,253.167 180.167,255.833 180.5,258.5C 178.882,255.829 178.215,252.829 178.5,249.5C 182.371,249.185 186.038,249.518 189.5,250.5 Z"/></g>
<g><path style="opacity:1" fill="#7299ea" d="M 305.5,252.5 C 305.719,253.675 305.386,254.675 304.5,255.5C 303.702,255.043 303.369,254.376 303.5,253.5C 304.167,253.167 304.833,252.833 305.5,252.5 Z"/></g>
<g><path style="opacity:1" fill="#a8bef1" d="M 1162.5,249.5 C 1162.83,252.491 1161.83,254.824 1159.5,256.5C 1159.93,253.843 1160.93,251.509 1162.5,249.5 Z"/></g>
<g><path style="opacity:1" fill="#477de6" d="M 727.5,250.5 C 732.833,250.5 738.167,250.5 743.5,250.5C 743.5,256.833 743.5,263.167 743.5,269.5C 742.51,263.69 742.177,257.69 742.5,251.5C 737.305,251.821 732.305,251.487 727.5,250.5 Z"/></g>
<g><path style="opacity:1" fill="#547ee6" d="M 479.5,253.5 C 480.492,255.456 481.492,257.456 482.5,259.5C 480.025,258.313 479.025,256.313 479.5,253.5 Z"/></g>
<g><path style="opacity:1" fill="#769beb" d="M 913.5,254.5 C 913.573,256.027 912.906,257.027 911.5,257.5C 911.427,255.973 912.094,254.973 913.5,254.5 Z"/></g>
<g><path style="opacity:1" fill="#5688e7" d="M 348.5,259.5 C 358.833,259.5 369.167,259.5 379.5,259.5C 379.795,261.735 379.461,263.735 378.5,265.5C 378.5,263.833 378.5,262.167 378.5,260.5C 368.319,260.827 358.319,260.494 348.5,259.5 Z"/></g>
<g><path style="opacity:1" fill="#5284e7" d="M 615.5,260.5 C 615.5,260.167 615.5,259.833 615.5,259.5C 625.833,259.5 636.167,259.5 646.5,259.5C 646.841,263.16 646.175,266.493 644.5,269.5C 644.963,266.518 645.296,263.518 645.5,260.5C 635.5,260.5 625.5,260.5 615.5,260.5 Z"/></g>
<g><path style="opacity:1" fill="#5487e7" d="M 957.5,259.5 C 967.833,259.5 978.167,259.5 988.5,259.5C 988.813,263.042 988.479,266.375 987.5,269.5C 987.5,268.5 987.5,267.5 987.5,266.5C 987.5,264.5 987.5,262.5 987.5,260.5C 977.319,260.827 967.319,260.494 957.5,259.5 Z"/></g>
<g><path style="opacity:1" fill="#648ce8" d="M 1169.5,260.5 C 1169.28,264.162 1168.28,267.495 1166.5,270.5C 1166.5,270.167 1166.5,269.833 1166.5,269.5C 1166.93,266.215 1167.93,263.215 1169.5,260.5 Z"/></g>
<g><path style="opacity:1" fill="#759bea" d="M 910.5,262.5 C 910.573,264.027 909.906,265.027 908.5,265.5C 908.427,263.973 909.094,262.973 910.5,262.5 Z"/></g>
<g><path style="opacity:1" fill="#c2d2f4" d="M 1027.5,266.5 C 1034.35,268.225 1041.35,268.891 1048.5,268.5C 1043.35,269.651 1038.02,269.817 1032.5,269C 1030.51,268.626 1028.84,267.793 1027.5,266.5 Z"/></g>
<g><path style="opacity:1" fill="#9eb9f0" d="M 189.5,267.5 C 195.711,269.101 202.044,269.768 208.5,269.5C 204.354,270.647 200.02,270.814 195.5,270C 193.148,269.76 191.148,268.927 189.5,267.5 Z"/></g>
<g><path style="opacity:1" fill="#96b5ef" d="M 228.5,268.5 C 231.625,269.479 234.958,269.813 238.5,269.5C 234.981,270.808 231.315,270.808 227.5,269.5C 227.624,268.893 227.957,268.56 228.5,268.5 Z"/></g>
<g><path style="opacity:1" fill="#84a8ed" d="M 281.5,266.5 C 282.434,267.568 282.768,268.901 282.5,270.5C 278.629,270.815 274.962,270.482 271.5,269.5C 274.833,269.5 278.167,269.5 281.5,269.5C 281.5,268.5 281.5,267.5 281.5,266.5 Z"/></g>
<g><path style="opacity:1" fill="#89aaed" d="M 604.5,209.5 C 604.5,229.5 604.5,249.5 604.5,269.5C 617.833,269.5 631.167,269.5 644.5,269.5C 631.01,270.496 617.344,270.829 603.5,270.5C 603.17,249.993 603.503,229.66 604.5,209.5 Z"/></g>
<g><path style="opacity:1" fill="#9bb7ef" d="M 1114.5,267.5 C 1118.6,269.28 1122.93,269.946 1127.5,269.5C 1123.69,270.645 1119.69,270.812 1115.5,270C 1114.75,269.329 1114.41,268.496 1114.5,267.5 Z"/></g>
<g><path style="opacity:1" fill="#afc5f2" d="M 1157.5,263.5 C 1157.64,265.262 1157.31,266.929 1156.5,268.5C 1159.77,269.487 1163.1,269.82 1166.5,269.5C 1166.5,269.833 1166.5,270.167 1166.5,270.5C 1162.83,270.5 1159.17,270.5 1155.5,270.5C 1155.17,267.772 1155.84,265.438 1157.5,263.5 Z"/></g>
<g><path style="opacity:1" fill="#7ea4ec" d="M 1209.5,267.5 C 1210.4,268.209 1210.74,269.209 1210.5,270.5C 1206.3,270.817 1202.3,270.483 1198.5,269.5C 1202.65,270.08 1206.32,269.414 1209.5,267.5 Z"/></g>
<g><path style="opacity:1" fill="#f9fafa" d="M 220.5,355.5 C 271.501,355.333 322.501,355.5 373.5,356C 374.824,368.833 374.824,381.667 373.5,394.5C 354.833,394.5 336.167,394.5 317.5,394.5C 317.5,450.833 317.5,507.167 317.5,563.5C 303.677,564.496 289.677,564.829 275.5,564.5C 275.829,507.762 275.496,451.095 274.5,394.5C 256.341,393.503 238.008,393.17 219.5,393.5C 219.187,380.754 219.52,368.087 220.5,355.5 Z"/></g>
<g><path style="opacity:1" fill="#f8f9fa" d="M 391.5,355.5 C 405.167,355.5 418.833,355.5 432.5,355.5C 432.169,383.672 432.502,411.672 433.5,439.5C 458.833,440.833 484.167,440.833 509.5,439.5C 510.498,411.672 510.831,383.672 510.5,355.5C 524.167,355.5 537.833,355.5 551.5,355.5C 552.833,425.167 552.833,494.833 551.5,564.5C 537.921,564.823 524.421,564.49 511,563.5C 510.832,535.664 510.332,507.997 509.5,480.5C 509.5,479.833 509.167,479.5 508.5,479.5C 483.672,478.502 458.672,478.169 433.5,478.5C 433.5,506.833 433.5,535.167 433.5,563.5C 419.343,564.496 405.01,564.829 390.5,564.5C 390.167,494.665 390.501,424.998 391.5,355.5 Z"/></g>
<g><path style="opacity:1" fill="#f9fafa" d="M 696.5,358.5 C 698.102,360.074 700.102,360.741 702.5,360.5C 712.329,364.01 720.829,369.676 728,377.5C 730.112,380.727 731.945,384.06 733.5,387.5C 733.427,389.027 734.094,390.027 735.5,390.5C 735.595,392.786 736.262,394.786 737.5,396.5C 737.41,399.152 738.076,401.485 739.5,403.5C 739.5,403.833 739.5,404.167 739.5,404.5C 740.77,417.497 740.77,430.497 739.5,443.5C 737.928,446.215 736.928,449.215 736.5,452.5C 736.5,453.167 736.5,453.833 736.5,454.5C 735.094,454.973 734.427,455.973 734.5,457.5C 729.731,468.442 722.231,477.108 712,483.5C 711.855,486.261 712.355,488.927 713.5,491.5C 713.259,493.898 713.926,495.898 715.5,497.5C 715.427,499.027 716.094,500.027 717.5,500.5C 717.263,501.791 717.596,502.791 718.5,503.5C 718.166,506.491 719.166,508.824 721.5,510.5C 722.309,512.028 722.976,513.694 723.5,515.5C 723.259,517.898 723.926,519.898 725.5,521.5C 725.427,523.027 726.094,524.027 727.5,524.5C 727.557,525.609 727.89,526.609 728.5,527.5C 728.166,530.491 729.166,532.824 731.5,534.5C 732.931,535.78 733.598,537.447 733.5,539.5C 733.166,542.491 734.166,544.824 736.5,546.5C 737.931,547.78 738.598,549.447 738.5,551.5C 738.166,554.491 739.166,556.824 741.5,558.5C 741.357,560.262 741.691,561.929 742.5,563.5C 727.848,564.499 713.182,564.833 698.5,564.5C 697.094,564.027 696.427,563.027 696.5,561.5C 696.573,559.973 695.906,558.973 694.5,558.5C 694.5,557.833 694.5,557.167 694.5,556.5C 694.573,554.973 693.906,553.973 692.5,553.5C 692.5,552.833 692.5,552.167 692.5,551.5C 692.573,549.973 691.906,548.973 690.5,548.5C 690.167,547.167 689.833,545.833 689.5,544.5C 689.065,541.843 688.065,539.509 686.5,537.5C 685.89,536.609 685.557,535.609 685.5,534.5C 685.065,531.843 684.065,529.509 682.5,527.5C 681.89,526.609 681.557,525.609 681.5,524.5C 681.065,521.843 680.065,519.509 678.5,517.5C 677.266,512.117 675.266,507.117 672.5,502.5C 672.293,499.759 671.293,497.426 669.5,495.5C 669.389,494.883 669.056,494.383 668.5,494C 655.924,493.179 643.424,493.345 631,494.5C 630.5,517.831 630.333,541.164 630.5,564.5C 616.5,564.5 602.5,564.5 588.5,564.5C 588.5,494.833 588.5,425.167 588.5,355.5C 619.168,355.333 649.835,355.5 680.5,356C 685.795,357.158 691.128,357.991 696.5,358.5 Z"/></g>
<g><path style="opacity:1" fill="#f6f7fa" d="M 768.5,355.5 C 782.833,355.5 797.167,355.5 811.5,355.5C 811.667,425.167 811.5,494.834 811,564.5C 804.077,565.158 797.077,565.491 790,565.5C 782.923,565.491 775.923,565.158 769,564.5C 768.5,494.834 768.333,425.167 768.5,355.5 Z"/></g>
<g><path style="opacity:1" fill="#f7f8fa" d="M 965.5,452.5 C 965.667,464.505 965.5,476.505 965,488.5C 964.617,489.056 964.117,489.389 963.5,489.5C 938.833,489.5 914.167,489.5 889.5,489.5C 889.5,514.5 889.5,539.5 889.5,564.5C 875.333,565.825 861.167,565.825 847,564.5C 846.5,494.834 846.333,425.167 846.5,355.5C 890.833,355.5 935.167,355.5 979.5,355.5C 979.5,368.167 979.5,380.833 979.5,393.5C 949.831,393.333 920.165,393.5 890.5,394C 889.507,412.757 889.174,431.59 889.5,450.5C 914.502,450.333 939.502,450.5 964.5,451C 965.056,451.383 965.389,451.883 965.5,452.5 Z"/></g>
<g><path style="opacity:1" fill="#f8f9fa" d="M 1021.5,355.5 C 1060.17,355.5 1098.83,355.5 1137.5,355.5C 1137.83,368.677 1137.5,381.677 1136.5,394.5C 1118.17,394.5 1099.83,394.5 1081.5,394.5C 1081.5,450.833 1081.5,507.167 1081.5,563.5C 1067.34,564.496 1053.01,564.829 1038.5,564.5C 1038.5,512.5 1038.5,460.5 1038.5,408.5C 1038.82,403.637 1038.49,398.97 1037.5,394.5C 1019.67,393.503 1001.67,393.17 983.5,393.5C 983.5,381.167 983.5,368.833 983.5,356.5C 996.344,356.829 1009.01,356.495 1021.5,355.5 Z"/></g>
<g><path style="opacity:1" fill="#c7d7f5" d="M 391.5,355.5 C 405.5,354.167 419.5,354.167 433.5,355.5C 433.5,383.5 433.5,411.5 433.5,439.5C 432.502,411.672 432.169,383.672 432.5,355.5C 418.833,355.5 405.167,355.5 391.5,355.5 Z"/></g>
<g><path style="opacity:1" fill="#c8d7f5" d="M 551.5,355.5 C 537.833,355.5 524.167,355.5 510.5,355.5C 510.831,383.672 510.498,411.672 509.5,439.5C 509.5,411.5 509.5,383.5 509.5,355.5C 523.5,354.167 537.5,354.167 551.5,355.5 Z"/></g>
<g><path style="opacity:1" fill="#d5e0f6" d="M 1021.5,355.5 C 1009.01,356.495 996.344,356.829 983.5,356.5C 983.5,368.833 983.5,381.167 983.5,393.5C 1001.67,393.17 1019.67,393.503 1037.5,394.5C 1019.5,394.5 1001.5,394.5 983.5,394.5C 982.505,381.677 982.171,368.677 982.5,355.5C 995.5,355.5 1008.5,355.5 1021.5,355.5 Z"/></g>
<g><path style="opacity:1" fill="#5583e7" d="M 696.5,358.5 C 698.898,358.259 700.898,358.926 702.5,360.5C 700.102,360.741 698.102,360.074 696.5,358.5 Z"/></g>
<g><path style="opacity:1" fill="#7a9eeb" d="M 733.5,387.5 C 734.906,387.973 735.573,388.973 735.5,390.5C 734.094,390.027 733.427,389.027 733.5,387.5 Z"/></g>
<g><path style="opacity:1" fill="#c8d8f4" d="M 220.5,355.5 C 219.52,368.087 219.187,380.754 219.5,393.5C 238.008,393.17 256.341,393.503 274.5,394.5C 255.833,394.5 237.167,394.5 218.5,394.5C 217.852,381.124 218.519,368.124 220.5,355.5 Z"/></g>
<g><path style="opacity:1" fill="#0a53df" d="M 675.5,394.5 C 680.293,395.229 684.626,397.063 688.5,400C 691.118,402.106 693.118,404.606 694.5,407.5C 694.259,409.898 694.926,411.898 696.5,413.5C 697.888,422.054 697.721,430.72 696,439.5C 691.982,447.771 685.482,453.105 676.5,455.5C 661.5,455.5 646.5,455.5 631.5,455.5C 631.5,435.167 631.5,414.833 631.5,394.5C 646.167,394.5 660.833,394.5 675.5,394.5 Z"/></g>
<g><path style="opacity:1" fill="#4b81e6" d="M 983.5,394.5 C 1001.5,394.5 1019.5,394.5 1037.5,394.5C 1038.49,398.97 1038.82,403.637 1038.5,408.5C 1037.52,404.366 1037.18,400.032 1037.5,395.5C 1019.33,395.83 1001.33,395.497 983.5,394.5 Z"/></g>
<g><path style="opacity:1" fill="#5285e7" d="M 373.5,394.5 C 355.341,395.497 337.008,395.83 318.5,395.5C 318.832,451.669 318.499,507.669 317.5,563.5C 317.5,507.167 317.5,450.833 317.5,394.5C 336.167,394.5 354.833,394.5 373.5,394.5 Z"/></g>
<g><path style="opacity:1" fill="#3471e4" d="M 1136.5,394.5 C 1118.67,395.497 1100.67,395.83 1082.5,395.5C 1082.83,451.669 1082.5,507.669 1081.5,563.5C 1081.5,507.167 1081.5,450.833 1081.5,394.5C 1099.83,394.5 1118.17,394.5 1136.5,394.5 Z"/></g>
<g><path style="opacity:1" fill="#7299eb" d="M 737.5,396.5 C 738.924,398.515 739.59,400.848 739.5,403.5C 738.076,401.485 737.41,399.152 737.5,396.5 Z"/></g>
<g><path style="opacity:1" fill="#c5d4f5" d="M 630.5,394.5 C 630.17,415.007 630.503,435.34 631.5,455.5C 646.5,455.5 661.5,455.5 676.5,455.5C 661.009,456.496 645.342,456.83 629.5,456.5C 629.169,435.66 629.503,414.993 630.5,394.5 Z"/></g>
<g><path style="opacity:1" fill="#6895ea" d="M 675.5,394.5 C 660.833,394.5 646.167,394.5 631.5,394.5C 631.5,414.833 631.5,435.167 631.5,455.5C 630.503,435.34 630.17,415.007 630.5,394.5C 645.5,393.167 660.5,393.167 675.5,394.5 Z"/></g>
<g><path style="opacity:1" fill="#5882e7" d="M 694.5,407.5 C 696.074,409.102 696.741,411.102 696.5,413.5C 694.926,411.898 694.259,409.898 694.5,407.5 Z"/></g>
<g><path style="opacity:1" fill="#7b9feb" d="M 739.5,404.5 C 741.054,410.754 741.72,417.254 741.5,424C 741.72,430.746 741.054,437.246 739.5,443.5C 740.77,430.497 740.77,417.497 739.5,404.5 Z"/></g>
<g><path style="opacity:1" fill="#5a8be8" d="M 433.5,355.5 C 434.498,383.328 434.831,411.328 434.5,439.5C 459.167,439.5 483.833,439.5 508.5,439.5C 508.169,411.328 508.502,383.328 509.5,355.5C 509.5,383.5 509.5,411.5 509.5,439.5C 484.167,440.833 458.833,440.833 433.5,439.5C 433.5,411.5 433.5,383.5 433.5,355.5 Z"/></g>
<g><path style="opacity:1" fill="#799eeb" d="M 739.5,443.5 C 739.472,446.916 738.472,449.916 736.5,452.5C 736.928,449.215 737.928,446.215 739.5,443.5 Z"/></g>
<g><path style="opacity:1" fill="#296ae2" d="M 965.5,452.5 C 966.66,464.66 966.827,476.993 966,489.5C 965.329,490.252 964.496,490.586 963.5,490.5C 963.5,490.167 963.5,489.833 963.5,489.5C 964.117,489.389 964.617,489.056 965,488.5C 965.5,476.505 965.667,464.505 965.5,452.5 Z"/></g>
<g><path style="opacity:1" fill="#80a2ec" d="M 736.5,454.5 C 736.573,456.027 735.906,457.027 734.5,457.5C 734.427,455.973 735.094,454.973 736.5,454.5 Z"/></g>
<g><path style="opacity:1" fill="#6d98ea" d="M 508.5,479.5 C 483.833,479.5 459.167,479.5 434.5,479.5C 434.831,507.672 434.498,535.672 433.5,563.5C 433.5,535.167 433.5,506.833 433.5,478.5C 458.672,478.169 483.672,478.502 508.5,479.5 Z"/></g>
<g><path style="opacity:1" fill="#bfcff4" d="M 509.5,480.5 C 510.332,507.997 510.832,535.664 511,563.5C 524.421,564.49 537.921,564.823 551.5,564.5C 537.765,565.83 523.931,565.83 510,564.5C 509.5,536.502 509.333,508.502 509.5,480.5 Z"/></g>
<g><path style="opacity:1" fill="#487fe6" d="M 963.5,489.5 C 963.5,489.833 963.5,490.167 963.5,490.5C 939.167,490.5 914.833,490.5 890.5,490.5C 890.831,515.339 890.498,540.006 889.5,564.5C 889.5,539.5 889.5,514.5 889.5,489.5C 914.167,489.5 938.833,489.5 963.5,489.5 Z"/></g>
<g><path style="opacity:1" fill="#aec2f2" d="M 713.5,491.5 C 715.074,493.102 715.741,495.102 715.5,497.5C 713.926,495.898 713.259,493.898 713.5,491.5 Z"/></g>
<g><path style="opacity:1" fill="#6688e8" d="M 669.5,495.5 C 671.293,497.426 672.293,499.759 672.5,502.5C 670.166,500.824 669.166,498.491 669.5,495.5 Z"/></g>
<g><path style="opacity:1" fill="#83a4ed" d="M 715.5,497.5 C 716.906,497.973 717.573,498.973 717.5,500.5C 716.094,500.027 715.427,499.027 715.5,497.5 Z"/></g>
<g><path style="opacity:1" fill="#9fb6f0" d="M 718.5,503.5 C 720.293,505.426 721.293,507.759 721.5,510.5C 719.166,508.824 718.166,506.491 718.5,503.5 Z"/></g>
<g><path style="opacity:1" fill="#aec2f1" d="M 723.5,515.5 C 725.074,517.102 725.741,519.102 725.5,521.5C 723.926,519.898 723.259,517.898 723.5,515.5 Z"/></g>
<g><path style="opacity:1" fill="#6b8fe9" d="M 678.5,517.5 C 680.065,519.509 681.065,521.843 681.5,524.5C 679.166,522.824 678.166,520.491 678.5,517.5 Z"/></g>
<g><path style="opacity:1" fill="#83a5ed" d="M 725.5,521.5 C 726.906,521.973 727.573,522.973 727.5,524.5C 726.094,524.027 725.427,523.027 725.5,521.5 Z"/></g>
<g><path style="opacity:1" fill="#6a8fe9" d="M 682.5,527.5 C 684.065,529.509 685.065,531.843 685.5,534.5C 683.166,532.824 682.166,530.491 682.5,527.5 Z"/></g>
<g><path style="opacity:1" fill="#a0b7f0" d="M 728.5,527.5 C 730.293,529.426 731.293,531.759 731.5,534.5C 729.166,532.824 728.166,530.491 728.5,527.5 Z"/></g>
<g><path style="opacity:1" fill="#6b8fe9" d="M 686.5,537.5 C 688.065,539.509 689.065,541.843 689.5,544.5C 687.166,542.824 686.166,540.491 686.5,537.5 Z"/></g>
<g><path style="opacity:1" fill="#a3baf0" d="M 733.5,539.5 C 735.065,541.509 736.065,543.843 736.5,546.5C 734.166,544.824 733.166,542.491 733.5,539.5 Z"/></g>
<g><path style="opacity:1" fill="#86a7ed" d="M 690.5,548.5 C 691.906,548.973 692.573,549.973 692.5,551.5C 691.094,551.027 690.427,550.027 690.5,548.5 Z"/></g>
<g><path style="opacity:1" fill="#a4baf0" d="M 738.5,551.5 C 740.065,553.509 741.065,555.843 741.5,558.5C 739.166,556.824 738.166,554.491 738.5,551.5 Z"/></g>
<g><path style="opacity:1" fill="#86a7ed" d="M 692.5,553.5 C 693.906,553.973 694.573,554.973 694.5,556.5C 693.094,556.027 692.427,555.027 692.5,553.5 Z"/></g>
<g><path style="opacity:1" fill="#86a7ed" d="M 694.5,558.5 C 695.906,558.973 696.573,559.973 696.5,561.5C 695.094,561.027 694.427,560.027 694.5,558.5 Z"/></g>
<g><path style="opacity:1" fill="#7da3ec" d="M 741.5,558.5 C 743.163,560.438 743.829,562.772 743.5,565.5C 728.324,565.829 713.324,565.496 698.5,564.5C 713.182,564.833 727.848,564.499 742.5,563.5C 741.691,561.929 741.357,560.262 741.5,558.5 Z"/></g>
<g><path style="opacity:1" fill="#86a8ed" d="M 302.5,605.5 C 289.757,605.183 277.091,605.849 264.5,607.5C 267.942,606.252 271.608,605.419 275.5,605C 284.676,604.176 293.676,604.343 302.5,605.5 Z"/></g>
<g><path style="opacity:1" fill="#f8f9fa" d="M 302.5,605.5 C 311.334,606.2 320,607.2 328.5,608.5C 336.588,610.569 344.921,611.903 353.5,612.5C 354.993,613.312 355.66,614.645 355.5,616.5C 354.246,626.867 352.913,637.2 351.5,647.5C 346.848,647.002 342.181,646.669 337.5,646.5C 317.426,643.61 297.426,642.943 277.5,644.5C 275.102,644.259 273.102,644.926 271.5,646.5C 267.233,647.768 264.233,650.435 262.5,654.5C 261.883,654.611 261.383,654.944 261,655.5C 260.186,660.02 260.353,664.354 261.5,668.5C 262.31,674.64 265.643,678.64 271.5,680.5C 271.973,681.906 272.973,682.573 274.5,682.5C 276.117,683.038 277.784,683.371 279.5,683.5C 282.626,685.99 286.292,687.323 290.5,687.5C 292.117,688.038 293.784,688.371 295.5,688.5C 298.626,690.99 302.292,692.323 306.5,692.5C 308.042,693.301 309.708,693.634 311.5,693.5C 313.32,695.448 315.654,696.448 318.5,696.5C 326.312,699.739 333.979,703.573 341.5,708C 343.756,710.083 345.756,712.25 347.5,714.5C 348.08,716.749 349.413,718.415 351.5,719.5C 353.771,721.612 355.104,724.279 355.5,727.5C 355.41,730.152 356.076,732.485 357.5,734.5C 358.218,743.482 358.552,752.482 358.5,761.5C 357.929,766.925 356.929,772.258 355.5,777.5C 353.755,779.033 352.755,781.033 352.5,783.5C 346.806,795.195 338.139,803.861 326.5,809.5C 321.856,810.599 317.522,812.266 313.5,814.5C 312.5,814.5 311.5,814.5 310.5,814.5C 308.102,814.259 306.102,814.926 304.5,816.5C 283.025,817.241 261.692,815.908 240.5,812.5C 238.095,811.232 235.428,810.565 232.5,810.5C 228.443,810.152 224.443,809.486 220.5,808.5C 221.03,796.935 222.363,785.602 224.5,774.5C 227.786,775.207 231.119,775.54 234.5,775.5C 240.559,775.699 246.559,776.366 252.5,777.5C 265.803,779.511 279.136,779.845 292.5,778.5C 293.5,778.5 294.5,778.5 295.5,778.5C 298.495,778.706 301.162,778.04 303.5,776.5C 310.96,772.714 315.293,766.714 316.5,758.5C 317.645,754.689 317.812,750.689 317,746.5C 316.434,743.771 314.934,741.771 312.5,740.5C 308.796,737.648 304.796,735.315 300.5,733.5C 299.07,732.463 297.403,731.796 295.5,731.5C 294.833,731.5 294.167,731.5 293.5,731.5C 292.07,730.463 290.403,729.796 288.5,729.5C 285.017,729.309 281.684,728.643 278.5,727.5C 276.064,726.129 273.397,725.129 270.5,724.5C 266.216,723.739 262.216,722.405 258.5,720.5C 256.898,718.926 254.898,718.259 252.5,718.5C 250.819,716.992 248.819,715.992 246.5,715.5C 246.027,714.094 245.027,713.427 243.5,713.5C 233.711,707.91 226.711,699.91 222.5,689.5C 221.12,683.726 219.787,678.059 218.5,672.5C 218.377,665.471 218.71,658.471 219.5,651.5C 220.669,648.659 221.669,645.659 222.5,642.5C 228.671,625.662 240.338,614.662 257.5,609.5C 260.152,609.59 262.485,608.924 264.5,607.5C 277.091,605.849 289.757,605.183 302.5,605.5 Z"/></g>
<g><path style="opacity:1" fill="#a5bef1" d="M 264.5,607.5 C 262.485,608.924 260.152,609.59 257.5,609.5C 259.515,608.076 261.848,607.41 264.5,607.5 Z"/></g>
<g><path style="opacity:1" fill="#90afee" d="M 328.5,608.5 C 337.079,609.097 345.412,610.431 353.5,612.5C 344.921,611.903 336.588,610.569 328.5,608.5 Z"/></g>
<g><path style="opacity:1" fill="#e1e8f7" d="M 470.5,609.5 C 442.167,609.5 413.833,609.5 385.5,609.5C 385.5,677.5 385.5,745.5 385.5,813.5C 384.501,745.335 384.167,677.002 384.5,608.5C 413.338,608.169 442.005,608.502 470.5,609.5 Z"/></g>
<g><path style="opacity:1" fill="#f9f9fa" d="M 470.5,609.5 C 472.167,609.5 473.833,609.5 475.5,609.5C 478.171,611.118 481.171,611.785 484.5,611.5C 486.861,611.674 489.194,612.007 491.5,612.5C 491.973,613.906 492.973,614.573 494.5,614.5C 495.167,614.5 495.833,614.5 496.5,614.5C 496.973,615.906 497.973,616.573 499.5,616.5C 512.747,622.744 521.747,632.744 526.5,646.5C 526.259,648.898 526.926,650.898 528.5,652.5C 528.77,657.45 529.77,662.117 531.5,666.5C 534.12,689.745 529.286,711.078 517,730.5C 511.093,737.182 504.26,742.515 496.5,746.5C 491.607,747.796 486.94,749.462 482.5,751.5C 481.167,751.5 479.833,751.5 478.5,751.5C 461.015,752.096 443.681,752.763 426.5,753.5C 426.5,773.167 426.5,792.833 426.5,812.5C 413.01,813.496 399.344,813.829 385.5,813.5C 385.5,745.5 385.5,677.5 385.5,609.5C 413.833,609.5 442.167,609.5 470.5,609.5 Z"/></g>
<g><path style="opacity:1" fill="#f9fafa" d="M 644.5,609.5 C 645.167,609.5 645.833,609.5 646.5,609.5C 650.236,610.989 654.236,611.656 658.5,611.5C 667.725,614.278 676.392,618.444 684.5,624C 687.423,626.416 689.757,629.25 691.5,632.5C 691.427,634.027 692.094,635.027 693.5,635.5C 694.338,635.842 694.672,636.508 694.5,637.5C 694.427,639.027 695.094,640.027 696.5,640.5C 696.259,642.898 696.926,644.898 698.5,646.5C 698.528,649.916 699.528,652.916 701.5,655.5C 702.803,667.835 702.803,680.168 701.5,692.5C 701.261,697.363 700.261,702.03 698.5,706.5C 697.094,706.973 696.427,707.973 696.5,709.5C 696.443,710.609 696.11,711.609 695.5,712.5C 694.094,712.973 693.427,713.973 693.5,715.5C 688.526,722.639 682.36,728.639 675,733.5C 674.697,736.624 675.197,739.624 676.5,742.5C 676.259,744.898 676.926,746.898 678.5,748.5C 678.427,750.027 679.094,751.027 680.5,751.5C 680.557,752.609 680.89,753.609 681.5,754.5C 681.259,756.898 681.926,758.898 683.5,760.5C 683.427,762.027 684.094,763.027 685.5,763.5C 685.557,764.609 685.89,765.609 686.5,766.5C 686.259,768.898 686.926,770.898 688.5,772.5C 688.427,774.027 689.094,775.027 690.5,775.5C 690.557,776.609 690.89,777.609 691.5,778.5C 691.259,780.898 691.926,782.898 693.5,784.5C 693.427,786.027 694.094,787.027 695.5,787.5C 695.557,788.609 695.89,789.609 696.5,790.5C 696.259,792.898 696.926,794.898 698.5,796.5C 698.427,798.027 699.094,799.027 700.5,799.5C 700.557,800.609 700.89,801.609 701.5,802.5C 701.259,804.898 701.926,806.898 703.5,808.5C 704.038,810.117 704.371,811.784 704.5,813.5C 690.167,813.5 675.833,813.5 661.5,813.5C 652.113,793.137 643.613,772.137 636,750.5C 634.53,748.369 633.03,746.369 631.5,744.5C 619.678,743.505 607.678,743.172 595.5,743.5C 595.5,766.5 595.5,789.5 595.5,812.5C 582.01,813.496 568.344,813.829 554.5,813.5C 554.5,745.5 554.5,677.5 554.5,609.5C 584.5,609.5 614.5,609.5 644.5,609.5 Z"/></g>
<g><path style="opacity:1" fill="#99b5ef" d="M 646.5,609.5 C 650.733,609.539 654.733,610.205 658.5,611.5C 654.236,611.656 650.236,610.989 646.5,609.5 Z"/></g>
<g><path style="opacity:1" fill="#fafafa" d="M 871.5,609.5 C 872.434,610.568 872.768,611.901 872.5,613.5C 872.427,615.027 873.094,616.027 874.5,616.5C 886.034,650.608 897.701,684.608 909.5,718.5C 909.427,720.027 910.094,721.027 911.5,721.5C 913.915,729.976 916.581,738.309 919.5,746.5C 919.66,748.153 920.326,749.486 921.5,750.5C 921.557,751.609 921.89,752.609 922.5,753.5C 922.557,754.609 922.89,755.609 923.5,756.5C 923.5,757.833 923.5,759.167 923.5,760.5C 924.5,760.5 925.5,760.5 926.5,760.5C 926.5,710.167 926.5,659.833 926.5,609.5C 939.833,609.5 953.167,609.5 966.5,609.5C 966.5,677.5 966.5,745.5 966.5,813.5C 946.164,813.667 925.831,813.5 905.5,813C 903.549,811.266 902.549,809.099 902.5,806.5C 902.771,804.62 902.104,803.287 900.5,802.5C 899.336,799.241 898.336,795.907 897.5,792.5C 897.771,790.62 897.104,789.287 895.5,788.5C 895.116,786.071 894.449,783.737 893.5,781.5C 893.771,779.62 893.104,778.287 891.5,777.5C 890.561,774.197 889.561,770.864 888.5,767.5C 888.771,765.62 888.104,764.287 886.5,763.5C 885.336,760.241 884.336,756.907 883.5,753.5C 883.771,751.62 883.104,750.287 881.5,749.5C 881.116,747.071 880.449,744.737 879.5,742.5C 879.771,740.62 879.104,739.287 877.5,738.5C 876.561,735.197 875.561,731.864 874.5,728.5C 874.771,726.62 874.104,725.287 872.5,724.5C 871.336,721.241 870.336,717.907 869.5,714.5C 869.771,712.62 869.104,711.287 867.5,710.5C 867.116,708.071 866.449,705.737 865.5,703.5C 865.771,701.62 865.104,700.287 863.5,699.5C 862.561,696.197 861.561,692.864 860.5,689.5C 860.771,687.62 860.104,686.287 858.5,685.5C 857.336,682.241 856.336,678.907 855.5,675.5C 855.771,673.62 855.104,672.287 853.5,671.5C 853.635,669.446 852.968,667.779 851.5,666.5C 851.5,665.833 851.5,665.167 851.5,664.5C 851.179,662.952 850.179,662.285 848.5,662.5C 848.5,712.833 848.5,763.167 848.5,813.5C 835.5,813.5 822.5,813.5 809.5,813.5C 808.504,745.571 808.17,677.571 808.5,609.5C 829.5,609.5 850.5,609.5 871.5,609.5 Z"/></g>
<g><path style="opacity:1" fill="#f8f8fa" d="M 1136.5,646.5 C 1118.5,646.5 1100.5,646.5 1082.5,646.5C 1082.5,701.833 1082.5,757.167 1082.5,812.5C 1068.68,813.496 1054.68,813.829 1040.5,813.5C 1040.67,758.166 1040.5,702.832 1040,647.5C 1021.58,646.507 1003.08,646.174 984.5,646.5C 984.178,633.92 984.511,621.42 985.5,609C 1036.17,608.5 1086.83,608.333 1137.5,608.5C 1137.83,621.344 1137.5,634.011 1136.5,646.5 Z"/></g>
<g><path style="opacity:1" fill="#93b1ee" d="M 475.5,609.5 C 478.781,609.42 481.781,610.087 484.5,611.5C 481.171,611.785 478.171,611.118 475.5,609.5 Z"/></g>
<g><path style="opacity:1" fill="#bed0f4" d="M 771.5,813.5 C 771.5,745.5 771.5,677.5 771.5,609.5C 758.167,609.5 744.833,609.5 731.5,609.5C 731.5,677.5 731.5,745.5 731.5,813.5C 730.501,745.335 730.167,677.002 730.5,608.5C 744.5,608.5 758.5,608.5 772.5,608.5C 772.833,677.002 772.499,745.335 771.5,813.5 Z"/></g>
<g><path style="opacity:1" fill="#fafafa" d="M 771.5,813.5 C 758.167,813.5 744.833,813.5 731.5,813.5C 731.5,745.5 731.5,677.5 731.5,609.5C 744.833,609.5 758.167,609.5 771.5,609.5C 771.5,677.5 771.5,745.5 771.5,813.5 Z"/></g>
<g><path style="opacity:1" fill="#dbe5f7" d="M 871.5,609.5 C 850.5,609.5 829.5,609.5 808.5,609.5C 808.17,677.571 808.504,745.571 809.5,813.5C 807.503,745.508 806.837,677.175 807.5,608.5C 829.007,608.169 850.34,608.503 871.5,609.5 Z"/></g>
<g><path style="opacity:1" fill="#1c5fe1" d="M 925.5,609.5 C 925.667,659.501 925.5,709.501 925,759.5C 924.768,758.263 924.268,757.263 923.5,756.5C 922.89,755.609 922.557,754.609 922.5,753.5C 923.117,753.611 923.617,753.944 924,754.5C 924.167,705.998 924.667,657.665 925.5,609.5 Z"/></g>
<g><path style="opacity:1" fill="#98b6ef" d="M 966.5,608.5 C 952.99,608.171 939.656,608.504 926.5,609.5C 926.5,659.833 926.5,710.167 926.5,760.5C 925.5,760.5 924.5,760.5 923.5,760.5C 923.5,759.167 923.5,757.833 923.5,756.5C 924.268,757.263 924.768,758.263 925,759.5C 925.5,709.501 925.667,659.501 925.5,609.5C 931.966,608.17 938.799,607.503 946,607.5C 953.008,607.5 959.842,607.834 966.5,608.5 Z"/></g>
<g><path style="opacity:1" fill="#d4e1f6" d="M 926.5,609.5 C 939.656,608.504 952.99,608.171 966.5,608.5C 967.833,676.833 967.833,745.167 966.5,813.5C 966.5,745.5 966.5,677.5 966.5,609.5C 953.167,609.5 939.833,609.5 926.5,609.5 Z"/></g>
<g><path style="opacity:1" fill="#7298ea" d="M 491.5,612.5 C 493.027,612.427 494.027,613.094 494.5,614.5C 492.973,614.573 491.973,613.906 491.5,612.5 Z"/></g>
<g><path style="opacity:1" fill="#789ceb" d="M 496.5,614.5 C 498.027,614.427 499.027,615.094 499.5,616.5C 497.973,616.573 496.973,615.906 496.5,614.5 Z"/></g>
<g><path style="opacity:1" fill="#83a5ec" d="M 872.5,613.5 C 873.906,613.973 874.573,614.973 874.5,616.5C 873.094,616.027 872.427,615.027 872.5,613.5 Z"/></g>
<g><path style="opacity:1" fill="#94b1ee" d="M 691.5,632.5 C 692.906,632.973 693.573,633.973 693.5,635.5C 692.094,635.027 691.427,634.027 691.5,632.5 Z"/></g>
<g><path style="opacity:1" fill="#89a9ee" d="M 694.5,637.5 C 695.906,637.973 696.573,638.973 696.5,640.5C 695.094,640.027 694.427,639.027 694.5,637.5 Z"/></g>
<g><path style="opacity:1" fill="#a8bef1" d="M 696.5,640.5 C 698.074,642.102 698.741,644.102 698.5,646.5C 696.926,644.898 696.259,642.898 696.5,640.5 Z"/></g>
<g><path style="opacity:1" fill="#507ee6" d="M 277.5,644.5 C 275.898,646.074 273.898,646.741 271.5,646.5C 273.102,644.926 275.102,644.259 277.5,644.5 Z"/></g>
<g><path style="opacity:1" fill="#0953df" d="M 640.5,646.5 C 647.641,648.982 653.307,653.316 657.5,659.5C 657.259,661.898 657.926,663.898 659.5,665.5C 660.937,673.833 660.771,682.167 659,690.5C 655.926,697.742 650.759,702.742 643.5,705.5C 627.862,706.437 612.195,706.771 596.5,706.5C 596.5,686.5 596.5,666.5 596.5,646.5C 611.167,646.5 625.833,646.5 640.5,646.5 Z"/></g>
<g><path style="opacity:1" fill="#638ee9" d="M 337.5,646.5 C 342.181,646.669 346.848,647.002 351.5,647.5C 346.754,648.789 342.087,648.456 337.5,646.5 Z"/></g>
<g><path style="opacity:1" fill="#2063e1" d="M 472.5,647.5 C 457.5,647.5 442.5,647.5 427.5,647.5C 427.5,669.833 427.5,692.167 427.5,714.5C 439.167,714.5 450.833,714.5 462.5,714.5C 450.678,715.495 438.678,715.828 426.5,715.5C 426.5,692.5 426.5,669.5 426.5,646.5C 442.009,646.17 457.342,646.504 472.5,647.5 Z"/></g>
<g><path style="opacity:1" fill="#0853df" d="M 472.5,647.5 C 479.078,649.743 483.744,654.077 486.5,660.5C 486.259,662.898 486.926,664.898 488.5,666.5C 488.716,675.533 488.383,684.533 487.5,693.5C 486.659,695.379 486.325,697.379 486.5,699.5C 485.094,699.973 484.427,700.973 484.5,702.5C 482.167,706.833 478.833,710.167 474.5,712.5C 470.658,714.002 466.658,714.668 462.5,714.5C 450.833,714.5 439.167,714.5 427.5,714.5C 427.5,692.167 427.5,669.833 427.5,647.5C 442.5,647.5 457.5,647.5 472.5,647.5 Z"/></g>
<g><path style="opacity:1" fill="#648fe9" d="M 222.5,642.5 C 221.669,645.659 220.669,648.659 219.5,651.5C 219.138,647.919 220.138,644.919 222.5,642.5 Z"/></g>
<g><path style="opacity:1" fill="#b3c6f2" d="M 698.5,646.5 C 700.855,648.923 701.855,651.923 701.5,655.5C 699.528,652.916 698.528,649.916 698.5,646.5 Z"/></g>
<g><path style="opacity:1" fill="#93b0ee" d="M 526.5,646.5 C 528.074,648.102 528.741,650.102 528.5,652.5C 526.926,650.898 526.259,648.898 526.5,646.5 Z"/></g>
<g><path style="opacity:1" fill="#cad8f5" d="M 644.5,609.5 C 614.5,609.5 584.5,609.5 554.5,609.5C 554.5,677.5 554.5,745.5 554.5,813.5C 553.501,745.335 553.167,677.002 553.5,608.5C 584.005,608.169 614.338,608.502 644.5,609.5 Z"/></g>
<g><path style="opacity:1" fill="#80a3ec" d="M 528.5,652.5 C 530.23,656.883 531.23,661.55 531.5,666.5C 529.77,662.117 528.77,657.45 528.5,652.5 Z"/></g>
<g><path style="opacity:1" fill="#5780e6" d="M 262.5,654.5 C 261.617,659.103 261.283,663.77 261.5,668.5C 260.353,664.354 260.186,660.02 261,655.5C 261.383,654.944 261.883,654.611 262.5,654.5 Z"/></g>
<g><path style="opacity:1" fill="#5980e7" d="M 657.5,659.5 C 659.074,661.102 659.741,663.102 659.5,665.5C 657.926,663.898 657.259,661.898 657.5,659.5 Z"/></g>
<g><path style="opacity:1" fill="#94b4ee" d="M 851.5,664.5 C 850.883,664.389 850.383,664.056 850,663.5C 849.5,713.166 849.333,762.832 849.5,812.5C 849.5,813.167 849.167,813.5 848.5,813.5C 848.5,763.167 848.5,712.833 848.5,662.5C 850.179,662.285 851.179,662.952 851.5,664.5 Z"/></g>
<g><path style="opacity:1" fill="#2266e2" d="M 851.5,664.5 C 851.5,665.167 851.5,665.833 851.5,666.5C 850.833,715.167 850.167,763.833 849.5,812.5C 849.333,762.832 849.5,713.166 850,663.5C 850.383,664.056 850.883,664.389 851.5,664.5 Z"/></g>
<g><path style="opacity:1" fill="#7298ea" d="M 486.5,660.5 C 488.074,662.102 488.741,664.102 488.5,666.5C 486.926,664.898 486.259,662.898 486.5,660.5 Z"/></g>
<g><path style="opacity:1" fill="#507de6" d="M 640.5,646.5 C 625.833,646.5 611.167,646.5 596.5,646.5C 596.5,666.5 596.5,686.5 596.5,706.5C 596.167,706.5 595.833,706.5 595.5,706.5C 595.5,686.167 595.5,665.833 595.5,645.5C 610.676,645.171 625.676,645.504 640.5,646.5 Z"/></g>
<g><path style="opacity:1" fill="#8eadee" d="M 701.5,655.5 C 703.035,662.264 703.702,669.264 703.5,676.5C 703.333,681.5 703.167,686.5 703,691.5C 702.617,692.056 702.117,692.389 701.5,692.5C 702.803,680.168 702.803,667.835 701.5,655.5 Z"/></g>
<g><path style="opacity:1" fill="#95b2ee" d="M 853.5,671.5 C 855.104,672.287 855.771,673.62 855.5,675.5C 854.326,674.486 853.66,673.153 853.5,671.5 Z"/></g>
<g><path style="opacity:1" fill="#4c7de6" d="M 488.5,666.5 C 489.656,674.323 489.823,682.323 489,690.5C 488.768,691.737 488.268,692.737 487.5,693.5C 488.383,684.533 488.716,675.533 488.5,666.5 Z"/></g>
<g><path style="opacity:1" fill="#7ea1ec" d="M 271.5,680.5 C 273.027,680.427 274.027,681.094 274.5,682.5C 272.973,682.573 271.973,681.906 271.5,680.5 Z"/></g>
<g><path style="opacity:1" fill="#6089e8" d="M 218.5,672.5 C 219.787,678.059 221.12,683.726 222.5,689.5C 219.153,684.42 217.819,678.753 218.5,672.5 Z"/></g>
<g><path style="opacity:1" fill="#92afee" d="M 279.5,683.5 C 283.395,684.462 287.061,685.796 290.5,687.5C 286.292,687.323 282.626,685.99 279.5,683.5 Z"/></g>
<g><path style="opacity:1" fill="#94b1ee" d="M 858.5,685.5 C 860.104,686.287 860.771,687.62 860.5,689.5C 859.326,688.486 858.66,687.153 858.5,685.5 Z"/></g>
<g><path style="opacity:1" fill="#92afee" d="M 295.5,688.5 C 299.395,689.462 303.061,690.796 306.5,692.5C 302.292,692.323 298.626,690.99 295.5,688.5 Z"/></g>
<g><path style="opacity:1" fill="#92afee" d="M 311.5,693.5 C 314.157,693.935 316.491,694.935 318.5,696.5C 315.654,696.448 313.32,695.448 311.5,693.5 Z"/></g>
<g><path style="opacity:1" fill="#7197ea" d="M 486.5,699.5 C 486.573,701.027 485.906,702.027 484.5,702.5C 484.427,700.973 485.094,699.973 486.5,699.5 Z"/></g>
<g><path style="opacity:1" fill="#94b1ee" d="M 863.5,699.5 C 865.104,700.287 865.771,701.62 865.5,703.5C 864.326,702.486 863.66,701.153 863.5,699.5 Z"/></g>
<g><path style="opacity:1" fill="#94b4ef" d="M 643.5,705.5 C 642.737,706.268 641.737,706.768 640.5,707C 625.328,707.828 610.328,707.661 595.5,706.5C 595.833,706.5 596.167,706.5 596.5,706.5C 612.195,706.771 627.862,706.437 643.5,705.5 Z"/></g>
<g><path style="opacity:1" fill="#759aeb" d="M 698.5,706.5 C 698.573,708.027 697.906,709.027 696.5,709.5C 696.427,707.973 697.094,706.973 698.5,706.5 Z"/></g>
<g><path style="opacity:1" fill="#94b1ee" d="M 867.5,710.5 C 869.104,711.287 869.771,712.62 869.5,714.5C 868.326,713.486 867.66,712.153 867.5,710.5 Z"/></g>
<g><path style="opacity:1" fill="#88a9ed" d="M 243.5,713.5 C 245.027,713.427 246.027,714.094 246.5,715.5C 244.973,715.573 243.973,714.906 243.5,713.5 Z"/></g>
<g><path style="opacity:1" fill="#6c93e9" d="M 695.5,712.5 C 695.573,714.027 694.906,715.027 693.5,715.5C 693.427,713.973 694.094,712.973 695.5,712.5 Z"/></g>
<g><path style="opacity:1" fill="#b1c6f2" d="M 347.5,714.5 C 349.587,715.585 350.92,717.251 351.5,719.5C 349.413,718.415 348.08,716.749 347.5,714.5 Z"/></g>
<g><path style="opacity:1" fill="#b1c7f2" d="M 474.5,712.5 C 473.942,713.79 472.942,714.623 471.5,715C 456.369,716.736 441.369,716.903 426.5,715.5C 438.678,715.828 450.678,715.495 462.5,714.5C 466.658,714.668 470.658,714.002 474.5,712.5 Z"/></g>
<g><path style="opacity:1" fill="#afc2f1" d="M 252.5,718.5 C 254.898,718.259 256.898,718.926 258.5,720.5C 256.102,720.741 254.102,720.074 252.5,718.5 Z"/></g>
<g><path style="opacity:1" fill="#85a6ed" d="M 909.5,718.5 C 910.906,718.973 911.573,719.973 911.5,721.5C 910.094,721.027 909.427,720.027 909.5,718.5 Z"/></g>
<g><path style="opacity:1" fill="#6f96ea" d="M 270.5,724.5 C 273.397,725.129 276.064,726.129 278.5,727.5C 275.284,727.655 272.617,726.655 270.5,724.5 Z"/></g>
<g><path style="opacity:1" fill="#356ee3" d="M 1136.5,646.5 C 1119.01,647.497 1101.34,647.83 1083.5,647.5C 1083.83,702.669 1083.5,757.669 1082.5,812.5C 1082.5,757.167 1082.5,701.833 1082.5,646.5C 1100.5,646.5 1118.5,646.5 1136.5,646.5 Z"/></g>
<g><path style="opacity:1" fill="#94b1ee" d="M 872.5,724.5 C 874.104,725.287 874.771,726.62 874.5,728.5C 873.326,727.486 872.66,726.153 872.5,724.5 Z"/></g>
<g><path style="opacity:1" fill="#6891e9" d="M 288.5,729.5 C 290.403,729.796 292.07,730.463 293.5,731.5C 291.302,731.88 289.635,731.213 288.5,729.5 Z"/></g>
<g><path style="opacity:1" fill="#7197ea" d="M 295.5,731.5 C 297.403,731.796 299.07,732.463 300.5,733.5C 298.302,733.88 296.635,733.213 295.5,731.5 Z"/></g>
<g><path style="opacity:1" fill="#94b2ef" d="M 355.5,727.5 C 356.924,729.515 357.59,731.848 357.5,734.5C 356.076,732.485 355.41,730.152 355.5,727.5 Z"/></g>
<g><path style="opacity:1" fill="#94b1ee" d="M 877.5,738.5 C 879.104,739.287 879.771,740.62 879.5,742.5C 878.326,741.486 877.66,740.153 877.5,738.5 Z"/></g>
<g><path style="opacity:1" fill="#4276e4" d="M 631.5,744.5 C 619.833,744.5 608.167,744.5 596.5,744.5C 596.831,767.339 596.497,790.006 595.5,812.5C 595.5,789.5 595.5,766.5 595.5,743.5C 607.678,743.172 619.678,743.505 631.5,744.5 Z"/></g>
<g><path style="opacity:1" fill="#b3c6f2" d="M 676.5,742.5 C 678.074,744.102 678.741,746.102 678.5,748.5C 676.926,746.898 676.259,744.898 676.5,742.5 Z"/></g>
<g><path style="opacity:1" fill="#4b7ae5" d="M 496.5,746.5 C 493.859,748.453 490.859,749.953 487.5,751C 485.866,751.494 484.199,751.66 482.5,751.5C 486.94,749.462 491.607,747.796 496.5,746.5 Z"/></g>
<g><path style="opacity:1" fill="#95b3ef" d="M 357.5,734.5 C 358.975,739.757 359.642,745.257 359.5,751C 359.499,754.683 359.165,758.183 358.5,761.5C 358.552,752.482 358.218,743.482 357.5,734.5 Z"/></g>
<g><path style="opacity:1" fill="#7399eb" d="M 919.5,746.5 C 921.104,747.287 921.771,748.62 921.5,750.5C 920.326,749.486 919.66,748.153 919.5,746.5 Z"/></g>
<g><path style="opacity:1" fill="#5988e7" d="M 312.5,740.5 C 314.934,741.771 316.434,743.771 317,746.5C 317.812,750.689 317.645,754.689 316.5,758.5C 316.665,754.818 316.499,751.152 316,747.5C 315.011,745.03 313.845,742.697 312.5,740.5 Z"/></g>
<g><path style="opacity:1" fill="#90aeee" d="M 678.5,748.5 C 679.906,748.973 680.573,749.973 680.5,751.5C 679.094,751.027 678.427,750.027 678.5,748.5 Z"/></g>
<g><path style="opacity:1" fill="#94b1ee" d="M 881.5,749.5 C 883.104,750.287 883.771,751.62 883.5,753.5C 882.326,752.486 881.66,751.153 881.5,749.5 Z"/></g>
<g><path style="opacity:1" fill="#8baaee" d="M 478.5,751.5 C 475.781,752.913 472.781,753.58 469.5,753.5C 455.167,753.5 440.833,753.5 426.5,753.5C 443.681,752.763 461.015,752.096 478.5,751.5 Z"/></g>
<g><path style="opacity:1" fill="#2164e1" d="M 426.5,753.5 C 440.833,753.5 455.167,753.5 469.5,753.5C 455.677,754.496 441.677,754.829 427.5,754.5C 427.83,774.007 427.497,793.341 426.5,812.5C 426.5,792.833 426.5,773.167 426.5,753.5 Z"/></g>
<g><path style="opacity:1" fill="#b3c6f2" d="M 681.5,754.5 C 683.074,756.102 683.741,758.102 683.5,760.5C 681.926,758.898 681.259,756.898 681.5,754.5 Z"/></g>
<g><path style="opacity:1" fill="#90aeee" d="M 683.5,760.5 C 684.906,760.973 685.573,761.973 685.5,763.5C 684.094,763.027 683.427,762.027 683.5,760.5 Z"/></g>
<g><path style="opacity:1" fill="#94b1ee" d="M 886.5,763.5 C 888.104,764.287 888.771,765.62 888.5,767.5C 887.326,766.486 886.66,765.153 886.5,763.5 Z"/></g>
<g><path style="opacity:1" fill="#b3c6f2" d="M 686.5,766.5 C 688.074,768.102 688.741,770.102 688.5,772.5C 686.926,770.898 686.259,768.898 686.5,766.5 Z"/></g>
<g><path style="opacity:1" fill="#a3baf0" d="M 224.5,774.5 C 227.93,773.29 231.263,773.624 234.5,775.5C 231.119,775.54 227.786,775.207 224.5,774.5 Z"/></g>
<g><path style="opacity:1" fill="#90aeee" d="M 688.5,772.5 C 689.906,772.973 690.573,773.973 690.5,775.5C 689.094,775.027 688.427,774.027 688.5,772.5 Z"/></g>
<g><path style="opacity:1" fill="#9cb7f0" d="M 303.5,776.5 C 301.162,778.04 298.495,778.706 295.5,778.5C 297.905,777.232 300.572,776.565 303.5,776.5 Z"/></g>
<g><path style="opacity:1" fill="#afc6f2" d="M 252.5,777.5 C 265.827,778.055 279.16,778.389 292.5,778.5C 279.136,779.845 265.803,779.511 252.5,777.5 Z"/></g>
<g><path style="opacity:1" fill="#91adee" d="M 355.5,777.5 C 355.245,779.967 354.245,781.967 352.5,783.5C 352.755,781.033 353.755,779.033 355.5,777.5 Z"/></g>
<g><path style="opacity:1" fill="#94b1ee" d="M 891.5,777.5 C 893.104,778.287 893.771,779.62 893.5,781.5C 892.326,780.486 891.66,779.153 891.5,777.5 Z"/></g>
<g><path style="opacity:1" fill="#b4c6f2" d="M 691.5,778.5 C 693.074,780.102 693.741,782.102 693.5,784.5C 691.926,782.898 691.259,780.898 691.5,778.5 Z"/></g>
<g><path style="opacity:1" fill="#90aeee" d="M 693.5,784.5 C 694.906,784.973 695.573,785.973 695.5,787.5C 694.094,787.027 693.427,786.027 693.5,784.5 Z"/></g>
<g><path style="opacity:1" fill="#94b1ee" d="M 895.5,788.5 C 897.104,789.287 897.771,790.62 897.5,792.5C 896.326,791.486 895.66,790.153 895.5,788.5 Z"/></g>
<g><path style="opacity:1" fill="#b4c6f2" d="M 696.5,790.5 C 698.074,792.102 698.741,794.102 698.5,796.5C 696.926,794.898 696.259,792.898 696.5,790.5 Z"/></g>
<g><path style="opacity:1" fill="#90aeee" d="M 698.5,796.5 C 699.906,796.973 700.573,797.973 700.5,799.5C 699.094,799.027 698.427,798.027 698.5,796.5 Z"/></g>
<g><path style="opacity:1" fill="#94b1ee" d="M 900.5,802.5 C 902.104,803.287 902.771,804.62 902.5,806.5C 901.326,805.486 900.66,804.153 900.5,802.5 Z"/></g>
<g><path style="opacity:1" fill="#b4c7f2" d="M 701.5,802.5 C 703.074,804.102 703.741,806.102 703.5,808.5C 701.926,806.898 701.259,804.898 701.5,802.5 Z"/></g>
<g><path style="opacity:1" fill="#6d94e9" d="M 232.5,810.5 C 235.428,810.565 238.095,811.232 240.5,812.5C 237.447,812.889 234.78,812.223 232.5,810.5 Z"/></g>
<g><path style="opacity:1" fill="#4b7ae5" d="M 326.5,809.5 C 326.389,810.117 326.056,810.617 325.5,811C 321.553,812.484 317.553,813.65 313.5,814.5C 317.522,812.266 321.856,810.599 326.5,809.5 Z"/></g>
<g><path style="opacity:1" fill="#5787e7" d="M 703.5,808.5 C 705.28,809.99 705.946,811.99 705.5,814.5C 690.657,814.829 675.99,814.496 661.5,813.5C 675.833,813.5 690.167,813.5 704.5,813.5C 704.371,811.784 704.038,810.117 703.5,808.5 Z"/></g>
<g><path style="opacity:1" fill="#507fe6" d="M 310.5,814.5 C 308.898,816.074 306.898,816.741 304.5,816.5C 306.102,814.926 308.102,814.259 310.5,814.5 Z"/></g>
<g><path style="opacity:1" fill="#d7e1f7" d="M 103.5,975.5 C 487.5,975.5 871.5,975.5 1255.5,975.5C 1063.83,976.833 871.834,977.5 679.5,977.5C 487.166,977.5 295.166,976.833 103.5,975.5 Z"/></g>
<g><path style="opacity:1" fill="#facab8" d="M 86.5,163.5 C 87.4998,439.666 87.8331,715.999 87.5,992.5C 482.5,992.5 877.5,992.5 1272.5,992.5C 1272.5,992.833 1272.5,993.167 1272.5,993.5C 877,993.833 481.666,993.5 86.5,992.5C 86.5,716.167 86.5,439.833 86.5,163.5 Z"/></g>
</svg>
